<svg width="100" height="97" viewBox="0 0 100 97" fill="none" xmlns="http://www.w3.org/2000/svg">
<path d="M70.4439 95.3925C80.9137 90.7202 89.4396 82.5621 94.5688 72.3084C99.698 62.0547 101.113 50.3397 98.5733 39.1595C96.0333 27.9793 89.6954 18.0257 80.6393 10.9947C71.5833 3.96361 60.3695 0.290123 48.9086 0.600132C37.4477 0.910141 26.4489 5.18446 17.7862 12.6948C9.1235 20.2051 3.33289 30.4868 1.40104 41.788C-0.530817 53.0891 1.51561 64.7104 7.19163 74.6719C12.8676 84.6333 21.8221 92.3185 32.5292 96.418L40.5239 75.5373C34.6477 73.2874 29.7333 69.0697 26.6182 63.6027C23.5031 58.1356 22.38 51.7577 23.4403 45.5554C24.5005 39.3532 27.6785 33.7104 32.4327 29.5886C37.1869 25.4668 43.2233 23.121 49.5132 22.9509C55.8031 22.7807 61.9574 24.7968 66.9275 28.6556C71.8976 32.5143 75.376 37.977 76.7699 44.1129C78.1639 50.2487 77.3872 56.6781 74.5722 62.3055C71.7572 67.9329 67.0781 72.4102 61.3321 74.9744L70.4439 95.3925Z" fill="url(#paint0_angular_16_97)"/>
<rect x="48.6084" y="36.25" width="3.28155" height="27.7762" rx="1.64077" fill="#77BABB"/>
<rect x="54.9275" y="40.9359" width="3.28155" height="18.4043" rx="1.64077" fill="#77BABB"/>
<rect width="3.28155" height="18.4043" rx="1.64077" transform="matrix(-1 0 0 1 45.571 40.9359)" fill="#77BABB"/>
<rect x="61.2471" y="44.8783" width="3.28155" height="10.5195" rx="1.64077" fill="#77BABB"/>
<rect width="3.28155" height="10.5195" rx="1.64077" transform="matrix(-1 0 0 1 39.252 44.8783)" fill="#77BABB"/>
<rect x="29.6509" y="47.7456" width="3.28155" height="4.78502" rx="1.64077" fill="#77BABB"/>
<rect x="67.5654" y="47.7456" width="3.28155" height="4.78502" rx="1.64077" fill="#77BABB"/>
<defs>
<radialGradient id="paint0_angular_16_97" cx="0" cy="0" r="1" gradientUnits="userSpaceOnUse" gradientTransform="translate(50.2486 50.1381) rotate(135) scale(49.5561)">
<stop offset="0.375552" stop-color="#6F90D9"/>
<stop offset="1" stop-color="#77BABB"/>
</radialGradient>
</defs>
</svg>
