<svg width="323" height="95" viewBox="0 0 323 95" fill="none" xmlns="http://www.w3.org/2000/svg">
<path d="M68.616 93.4987C78.8403 88.936 87.1662 80.9693 92.1752 70.956C97.1841 60.9427 98.5661 49.5024 96.0857 38.5844C93.6053 27.6663 87.416 17.9461 78.5723 11.0799C69.7286 4.21375 58.7778 0.626404 47.5856 0.929144C36.3935 1.23188 25.6526 5.40598 17.193 12.7402C8.73342 20.0744 3.07859 30.115 1.19204 41.1512C-0.694518 52.1873 1.30392 63.5362 6.84685 73.264C12.3898 82.9919 21.1342 90.4969 31.5903 94.5002L39.3975 74.1091C33.6591 71.912 28.86 67.7932 25.8179 62.4543C22.7759 57.1155 21.6791 50.8871 22.7145 44.8303C23.7498 38.7735 26.8533 33.263 31.4961 29.2379C36.1388 25.2128 42.0336 22.9219 48.176 22.7558C54.3184 22.5896 60.3284 24.5584 65.182 28.3267C70.0356 32.095 73.4324 37.4296 74.7937 43.4216C76.1549 49.4136 75.3965 55.6922 72.6475 61.1876C69.8985 66.6831 65.3291 71.0554 59.7178 73.5595L68.616 93.4987Z" fill="white"/>
<path d="M47.2924 37.3455C47.2924 36.4605 48.0098 35.7432 48.8947 35.7432C49.7796 35.7432 50.497 36.4605 50.497 37.3455V61.2658C50.497 62.1507 49.7796 62.8681 48.8947 62.8681C48.0098 62.8681 47.2924 62.1507 47.2924 61.2658V37.3455Z" fill="white"/>
<path d="M53.4634 41.9214C53.4634 41.0365 54.1807 40.3191 55.0657 40.3191C55.9506 40.3191 56.6679 41.0365 56.6679 41.9214V56.6896C56.6679 57.5745 55.9506 58.2919 55.0657 58.2919C54.1807 58.2919 53.4634 57.5745 53.4634 56.6896V41.9214Z" fill="white"/>
<path d="M44.3262 41.9214C44.3262 41.0365 43.6088 40.3191 42.7239 40.3191C41.839 40.3191 41.1216 41.0365 41.1216 41.9214V56.6896C41.1216 57.5745 41.839 58.2919 42.7239 58.2919C43.6088 58.2919 44.3262 57.5745 44.3262 56.6896V41.9214Z" fill="white"/>
<path d="M59.6344 45.7715C59.6344 44.8866 60.3517 44.1692 61.2367 44.1692C62.1216 44.1692 62.839 44.8866 62.839 45.7715V52.8397C62.839 53.7247 62.1216 54.442 61.2367 54.442C60.3517 54.442 59.6344 53.7247 59.6344 52.8397V45.7715Z" fill="white"/>
<path d="M38.1551 45.7715C38.1551 44.8866 37.4377 44.1692 36.5528 44.1692C35.6679 44.1692 34.9505 44.8866 34.9505 45.7715V52.8397C34.9505 53.7247 35.6679 54.442 36.5528 54.442C37.4377 54.442 38.1551 53.7247 38.1551 52.8397V45.7715Z" fill="white"/>
<path d="M28.7797 48.5715C28.7797 47.6866 29.497 46.9692 30.382 46.9692C31.2669 46.9692 31.9843 47.6866 31.9843 48.5715V50.0398C31.9843 50.9247 31.2669 51.6421 30.382 51.6421C29.497 51.6421 28.7797 50.9247 28.7797 50.0398V48.5715Z" fill="white"/>
<path d="M65.8046 48.5715C65.8046 47.6866 66.522 46.9692 67.4069 46.9692C68.2918 46.9692 69.0092 47.6866 69.0092 48.5715V50.0398C69.0092 50.9247 68.2918 51.6421 67.4069 51.6421C66.522 51.6421 65.8046 50.9247 65.8046 50.0398V48.5715Z" fill="white"/>
<path d="M121.093 28.731H138.333C142.453 28.731 146.085 29.5261 149.23 31.1164C152.41 32.6706 154.868 34.8753 156.603 37.7305C158.374 40.5858 159.259 43.9109 159.259 47.7059C159.259 51.5009 158.374 54.826 156.603 57.6813C154.868 60.5365 152.41 62.7593 149.23 64.3496C146.085 65.9037 142.453 66.6808 138.333 66.6808H121.093V28.731ZM137.899 59.4703C141.694 59.4703 144.712 58.4222 146.953 56.3259C149.23 54.1935 150.368 51.3202 150.368 47.7059C150.368 44.0916 149.23 41.2364 146.953 39.1401C144.712 37.0077 141.694 35.9415 137.899 35.9415H129.875V59.4703H137.899Z" fill="white"/>
<path d="M173.214 35.8873H161.071V28.731H194.141V35.8873H181.997V66.6808H173.214V35.8873Z" fill="white"/>
<path d="M233.672 28.731V66.6808H224.889V51.1214H207.649V66.6808H198.867V28.731H207.649V43.6941H224.889V28.731H233.672Z" fill="white"/>
<path d="M277.185 66.6808L277.131 43.9109L265.963 62.6689H262.005L250.891 44.3988V66.6808H242.651V28.731H249.915L264.119 52.3141L278.107 28.731H285.317L285.425 66.6808H277.185Z" fill="white"/>
<path d="M306.898 67.3313C303.899 67.3313 300.989 66.9338 298.17 66.1386C295.387 65.3074 293.146 64.2412 291.447 62.94L294.429 56.3259C296.056 57.5186 297.989 58.4764 300.23 59.1993C302.471 59.9221 304.712 60.2835 306.953 60.2835C309.447 60.2835 311.29 59.9221 312.482 59.1993C313.675 58.4403 314.272 57.4463 314.272 56.2175C314.272 55.3139 313.91 54.573 313.187 53.9947C312.501 53.3803 311.597 52.8924 310.477 52.5309C309.392 52.1695 307.91 51.7719 306.031 51.3382C303.14 50.6515 300.772 49.9648 298.929 49.2781C297.086 48.5914 295.495 47.489 294.158 45.971C292.857 44.4531 292.206 42.4291 292.206 39.8991C292.206 37.6944 292.803 35.7065 293.996 33.9356C295.188 32.1284 296.977 30.7008 299.363 29.6526C301.784 28.6045 304.73 28.0804 308.2 28.0804C310.621 28.0804 312.988 28.3696 315.302 28.9479C317.615 29.5261 319.639 30.3574 321.374 31.4417L318.663 38.11C315.157 36.1222 311.651 35.1283 308.145 35.1283C305.688 35.1283 303.862 35.5258 302.67 36.321C301.513 37.1161 300.935 38.1642 300.935 39.4654C300.935 40.7665 301.604 41.7424 302.941 42.3929C304.314 43.0074 306.392 43.6218 309.175 44.2362C312.067 44.9229 314.434 45.6096 316.277 46.2963C318.121 46.983 319.693 48.0673 320.994 49.5492C322.331 51.031 323 53.0369 323 55.5669C323 57.7355 322.386 59.7233 321.157 61.5305C319.964 63.3014 318.157 64.711 315.735 65.7591C313.314 66.8073 310.368 67.3313 306.898 67.3313Z" fill="white"/>
</svg>
