<svg width="252" height="58" viewBox="0 0 252 58" fill="none" xmlns="http://www.w3.org/2000/svg">
<path d="M38.0747 52.5505C43.7897 50.0001 48.4437 45.5469 51.2435 39.9498C54.0434 34.3527 54.8159 27.9579 53.4294 21.8551C52.0429 15.7523 48.5833 10.319 43.6399 6.48102C38.6966 2.64304 32.5754 0.637825 26.3194 0.807047C20.0633 0.976269 14.0595 3.30946 9.33086 7.40906C4.60222 11.5087 1.44135 17.121 0.386827 23.2899C-0.667698 29.4587 0.449367 35.8024 3.54769 41.24C6.64601 46.6775 11.5339 50.8726 17.3785 53.1103L21.7425 41.7123C18.5349 40.4842 15.8523 38.1819 14.1519 35.1977C12.4515 32.2135 11.8384 28.732 12.4172 25.3464C12.9959 21.9608 14.7307 18.8807 17.3258 16.6307C19.921 14.3808 23.216 13.1003 26.6494 13.0075C30.0828 12.9146 33.4422 14.0151 36.1552 16.1214C38.8682 18.2278 40.7669 21.2096 41.5278 24.559C42.2887 27.9083 41.8648 31.4178 40.3282 34.4896C38.7916 37.5614 36.2374 40.0054 33.1009 41.4051L38.0747 52.5505Z" fill="url(#paint0_angular_30_307)"/>
<path d="M26.1554 21.1625C26.1554 20.6679 26.5564 20.2669 27.051 20.2669C27.5457 20.2669 27.9467 20.6679 27.9467 21.1625V34.5333C27.9467 35.0279 27.5457 35.4289 27.051 35.4289C26.5564 35.4289 26.1554 35.0279 26.1554 34.5333V21.1625Z" fill="#77BABB"/>
<path d="M29.6048 23.7204C29.6048 23.2257 30.0058 22.8247 30.5004 22.8247C30.9951 22.8247 31.396 23.2257 31.396 23.7204V31.9753C31.396 32.47 30.9951 32.8709 30.5004 32.8709C30.0058 32.8709 29.6048 32.47 29.6048 31.9753V23.7204Z" fill="#77BABB"/>
<path d="M24.4974 23.7204C24.4974 23.2257 24.0964 22.8247 23.6018 22.8247C23.1071 22.8247 22.7061 23.2257 22.7061 23.7204V31.9753C22.7061 32.47 23.1071 32.8709 23.6018 32.8709C24.0964 32.8709 24.4974 32.47 24.4974 31.9753V23.7204Z" fill="#77BABB"/>
<path d="M33.0542 25.8724C33.0542 25.3778 33.4552 24.9768 33.9498 24.9768C34.4445 24.9768 34.8454 25.3778 34.8454 25.8724V29.8233C34.8454 30.318 34.4445 30.719 33.9498 30.719C33.4552 30.719 33.0542 30.318 33.0542 29.8233V25.8724Z" fill="#77BABB"/>
<path d="M21.0479 25.8724C21.0479 25.3778 20.647 24.9768 20.1523 24.9768C19.6577 24.9768 19.2567 25.3778 19.2567 25.8724V29.8233C19.2567 30.318 19.6577 30.719 20.1523 30.719C20.647 30.719 21.0479 30.318 21.0479 29.8233V25.8724Z" fill="#77BABB"/>
<path d="M15.8074 27.4376C15.8074 26.9429 16.2084 26.5419 16.703 26.5419C17.1977 26.5419 17.5986 26.9429 17.5986 27.4376V28.2582C17.5986 28.7529 17.1977 29.1539 16.703 29.1539C16.2084 29.1539 15.8074 28.7529 15.8074 28.2582V27.4376Z" fill="#77BABB"/>
<path d="M36.5031 27.4376C36.5031 26.9429 36.9041 26.5419 37.3988 26.5419C37.8934 26.5419 38.2944 26.9429 38.2944 27.4376V28.2582C38.2944 28.7529 37.8934 29.1539 37.3988 29.1539C36.9041 29.1539 36.5031 28.7529 36.5031 28.2582V27.4376Z" fill="#77BABB"/>
<path d="M68.828 6.91032H73.916C75.132 6.91032 76.204 7.14499 77.132 7.61432C78.0707 8.07299 78.796 8.72365 79.308 9.56632C79.8307 10.409 80.092 11.3903 80.092 12.5103C80.092 13.6303 79.8307 14.6117 79.308 15.4543C78.796 16.297 78.0707 16.953 77.132 17.4223C76.204 17.881 75.132 18.1103 73.916 18.1103H68.828V6.91032ZM73.788 15.9823C74.908 15.9823 75.7987 15.673 76.46 15.0543C77.132 14.425 77.468 13.577 77.468 12.5103C77.468 11.4437 77.132 10.601 76.46 9.98232C75.7987 9.35299 74.908 9.03832 73.788 9.03832H71.42V15.9823H73.788ZM81.8708 9.50232H84.3668V18.1103H81.8708V9.50232ZM83.1188 8.30232C82.6601 8.30232 82.2868 8.16899 81.9988 7.90232C81.7108 7.63565 81.5668 7.30499 81.5668 6.91032C81.5668 6.51565 81.7108 6.18499 81.9988 5.91832C82.2868 5.65165 82.6601 5.51832 83.1188 5.51832C83.5774 5.51832 83.9508 5.64632 84.2388 5.90232C84.5268 6.15832 84.6708 6.47832 84.6708 6.86232C84.6708 7.27832 84.5268 7.62499 84.2388 7.90232C83.9508 8.16899 83.5774 8.30232 83.1188 8.30232ZM95.5633 9.50232V16.6703C95.5633 18.249 95.1526 19.4223 94.3313 20.1903C93.5099 20.9583 92.3099 21.3423 90.7313 21.3423C89.8993 21.3423 89.1099 21.241 88.3633 21.0383C87.6166 20.8357 86.9979 20.5423 86.5073 20.1583L87.4993 18.3663C87.8619 18.665 88.3206 18.8997 88.8753 19.0703C89.4299 19.2517 89.9846 19.3423 90.5393 19.3423C91.4033 19.3423 92.0379 19.145 92.4433 18.7503C92.8593 18.3663 93.0673 17.7797 93.0673 16.9903V16.6223C92.4166 17.337 91.5099 17.6943 90.3473 17.6943C89.5579 17.6943 88.8326 17.5237 88.1713 17.1823C87.5206 16.8303 87.0033 16.3397 86.6193 15.7103C86.2353 15.081 86.0433 14.3557 86.0433 13.5343C86.0433 12.713 86.2353 11.9877 86.6193 11.3583C87.0033 10.729 87.5206 10.2437 88.1713 9.90232C88.8326 9.55032 89.5579 9.37432 90.3473 9.37432C91.5953 9.37432 92.5446 9.78499 93.1953 10.6063V9.50232H95.5633ZM90.8433 15.6463C91.5046 15.6463 92.0433 15.4543 92.4593 15.0703C92.8859 14.6757 93.0993 14.1637 93.0993 13.5343C93.0993 12.905 92.8859 12.3983 92.4593 12.0143C92.0433 11.6197 91.5046 11.4223 90.8433 11.4223C90.1819 11.4223 89.6379 11.6197 89.2113 12.0143C88.7846 12.3983 88.5713 12.905 88.5713 13.5343C88.5713 14.1637 88.7846 14.6757 89.2113 15.0703C89.6379 15.4543 90.1819 15.6463 90.8433 15.6463ZM97.8864 9.50232H100.382V18.1103H97.8864V9.50232ZM99.1344 8.30232C98.6757 8.30232 98.3024 8.16899 98.0144 7.90232C97.7264 7.63565 97.5824 7.30499 97.5824 6.91032C97.5824 6.51565 97.7264 6.18499 98.0144 5.91832C98.3024 5.65165 98.6757 5.51832 99.1344 5.51832C99.593 5.51832 99.9664 5.64632 100.254 5.90232C100.542 6.15832 100.686 6.47832 100.686 6.86232C100.686 7.27832 100.542 7.62499 100.254 7.90232C99.9664 8.16899 99.593 8.30232 99.1344 8.30232ZM108.251 17.6943C108.006 17.8757 107.702 18.0143 107.339 18.1103C106.987 18.1957 106.614 18.2383 106.219 18.2383C105.195 18.2383 104.4 17.977 103.835 17.4543C103.28 16.9317 103.003 16.1637 103.003 15.1503V11.6143H101.675V9.69432H103.003V7.59832H105.499V9.69432H107.643V11.6143H105.499V15.1183C105.499 15.481 105.59 15.7637 105.771 15.9663C105.963 16.1583 106.23 16.2543 106.571 16.2543C106.966 16.2543 107.302 16.1477 107.579 15.9343L108.251 17.6943ZM113.124 9.37432C114.457 9.37432 115.481 9.69432 116.196 10.3343C116.911 10.9637 117.268 11.9183 117.268 13.1983V18.1103H114.932V17.0383C114.463 17.8383 113.588 18.2383 112.308 18.2383C111.647 18.2383 111.071 18.1263 110.58 17.9023C110.1 17.6783 109.732 17.369 109.476 16.9743C109.22 16.5797 109.092 16.1317 109.092 15.6303C109.092 14.8303 109.391 14.201 109.988 13.7423C110.596 13.2837 111.529 13.0543 112.788 13.0543H114.772C114.772 12.5103 114.607 12.0943 114.276 11.8063C113.945 11.5077 113.449 11.3583 112.788 11.3583C112.329 11.3583 111.876 11.433 111.428 11.5823C110.991 11.721 110.617 11.913 110.308 12.1583L109.412 10.4143C109.881 10.0837 110.441 9.82765 111.092 9.64632C111.753 9.46499 112.431 9.37432 113.124 9.37432ZM112.932 16.5583C113.359 16.5583 113.737 16.4623 114.068 16.2703C114.399 16.0677 114.633 15.7743 114.772 15.3903V14.5103H113.06C112.036 14.5103 111.524 14.8463 111.524 15.5183C111.524 15.8383 111.647 16.0943 111.892 16.2863C112.148 16.4677 112.495 16.5583 112.932 16.5583ZM119.527 6.23832H122.023V18.1103H119.527V6.23832ZM71.148 29.0223H67.564V26.9103H77.324V29.0223H73.74V38.1103H71.148V29.0223ZM80.7391 30.6383C81.0378 30.2223 81.4378 29.9077 81.9391 29.6943C82.4511 29.481 83.0378 29.3743 83.6991 29.3743V31.6783C83.4218 31.657 83.2351 31.6463 83.1391 31.6463C82.4245 31.6463 81.8645 31.849 81.4591 32.2543C81.0538 32.649 80.8511 33.2463 80.8511 34.0463V38.1103H78.3551V29.5023H80.7391V30.6383ZM88.6084 29.3743C89.9417 29.3743 90.9657 29.6943 91.6804 30.3343C92.395 30.9637 92.7524 31.9183 92.7524 33.1983V38.1103H90.4164V37.0383C89.947 37.8383 89.0724 38.2383 87.7924 38.2383C87.131 38.2383 86.555 38.1263 86.0644 37.9023C85.5844 37.6783 85.2164 37.369 84.9604 36.9743C84.7044 36.5797 84.5764 36.1317 84.5764 35.6303C84.5764 34.8303 84.875 34.201 85.4724 33.7423C86.0804 33.2837 87.0137 33.0543 88.2724 33.0543H90.2564C90.2564 32.5103 90.091 32.0943 89.7604 31.8063C89.4297 31.5077 88.9337 31.3583 88.2724 31.3583C87.8137 31.3583 87.3604 31.433 86.9124 31.5823C86.475 31.721 86.1017 31.913 85.7924 32.1583L84.8964 30.4143C85.3657 30.0837 85.9257 29.8277 86.5764 29.6463C87.2377 29.465 87.915 29.3743 88.6084 29.3743ZM88.4164 36.5583C88.843 36.5583 89.2217 36.4623 89.5524 36.2703C89.883 36.0677 90.1177 35.7743 90.2564 35.3903V34.5103H88.5444C87.5204 34.5103 87.0084 34.8463 87.0084 35.5183C87.0084 35.8383 87.131 36.0943 87.3764 36.2863C87.6324 36.4677 87.979 36.5583 88.4164 36.5583ZM100.243 29.3743C101.31 29.3743 102.169 29.6943 102.819 30.3343C103.481 30.9743 103.811 31.9237 103.811 33.1823V38.1103H101.315V33.5663C101.315 32.8837 101.166 32.377 100.867 32.0463C100.569 31.705 100.137 31.5343 99.5714 31.5343C98.942 31.5343 98.4407 31.7317 98.0674 32.1263C97.694 32.5103 97.5074 33.0863 97.5074 33.8543V38.1103H95.0114V29.5023H97.3954V30.5103C97.726 30.1477 98.1367 29.8703 98.6274 29.6783C99.118 29.4757 99.6567 29.3743 100.243 29.3743ZM108.97 38.2383C108.255 38.2383 107.557 38.153 106.874 37.9823C106.191 37.801 105.647 37.577 105.242 37.3103L106.074 35.5183C106.458 35.7637 106.922 35.9663 107.466 36.1263C108.01 36.2757 108.543 36.3503 109.066 36.3503C110.122 36.3503 110.65 36.089 110.65 35.5663C110.65 35.321 110.506 35.145 110.218 35.0383C109.93 34.9317 109.487 34.841 108.89 34.7663C108.186 34.6597 107.605 34.537 107.146 34.3983C106.687 34.2597 106.287 34.0143 105.946 33.6623C105.615 33.3103 105.45 32.809 105.45 32.1583C105.45 31.6143 105.605 31.1343 105.914 30.7183C106.234 30.2917 106.693 29.961 107.29 29.7263C107.898 29.4917 108.613 29.3743 109.434 29.3743C110.042 29.3743 110.645 29.4437 111.242 29.5823C111.85 29.7103 112.351 29.8917 112.746 30.1263L111.914 31.9023C111.157 31.4757 110.33 31.2623 109.434 31.2623C108.901 31.2623 108.501 31.337 108.234 31.4863C107.967 31.6357 107.834 31.8277 107.834 32.0623C107.834 32.329 107.978 32.5157 108.266 32.6223C108.554 32.729 109.013 32.8303 109.642 32.9263C110.346 33.0437 110.922 33.1717 111.37 33.3103C111.818 33.4383 112.207 33.6783 112.538 34.0303C112.869 34.3823 113.034 34.873 113.034 35.5023C113.034 36.0357 112.874 36.5103 112.554 36.9263C112.234 37.3423 111.765 37.6677 111.146 37.9023C110.538 38.1263 109.813 38.2383 108.97 38.2383ZM117.31 29.6943H119.518V31.6143H117.374V38.1103H114.878V31.6143H113.55V29.6943H114.878V29.3103C114.878 28.329 115.166 27.5503 115.742 26.9743C116.329 26.3983 117.15 26.1103 118.206 26.1103C118.579 26.1103 118.931 26.153 119.262 26.2383C119.603 26.313 119.886 26.425 120.11 26.5743L119.454 28.3823C119.166 28.1797 118.83 28.0783 118.446 28.0783C117.689 28.0783 117.31 28.4943 117.31 29.3263V29.6943ZM124.748 38.2383C123.841 38.2383 123.025 38.0517 122.3 37.6783C121.585 37.2943 121.025 36.7663 120.62 36.0943C120.215 35.4223 120.012 34.6597 120.012 33.8063C120.012 32.953 120.215 32.1903 120.62 31.5183C121.025 30.8463 121.585 30.3237 122.3 29.9503C123.025 29.5663 123.841 29.3743 124.748 29.3743C125.655 29.3743 126.465 29.5663 127.18 29.9503C127.895 30.3237 128.455 30.8463 128.86 31.5183C129.265 32.1903 129.468 32.953 129.468 33.8063C129.468 34.6597 129.265 35.4223 128.86 36.0943C128.455 36.7663 127.895 37.2943 127.18 37.6783C126.465 38.0517 125.655 38.2383 124.748 38.2383ZM124.748 36.1903C125.388 36.1903 125.911 35.977 126.316 35.5503C126.732 35.113 126.94 34.5317 126.94 33.8063C126.94 33.081 126.732 32.505 126.316 32.0783C125.911 31.641 125.388 31.4223 124.748 31.4223C124.108 31.4223 123.58 31.641 123.164 32.0783C122.748 32.505 122.54 33.081 122.54 33.8063C122.54 34.5317 122.748 35.113 123.164 35.5503C123.58 35.977 124.108 36.1903 124.748 36.1903ZM133.52 30.6383C133.819 30.2223 134.219 29.9077 134.72 29.6943C135.232 29.481 135.819 29.3743 136.48 29.3743V31.6783C136.203 31.657 136.016 31.6463 135.92 31.6463C135.206 31.6463 134.646 31.849 134.24 32.2543C133.835 32.649 133.632 33.2463 133.632 34.0463V38.1103H131.136V29.5023H133.52V30.6383ZM148.989 29.3743C150.066 29.3743 150.919 29.6943 151.549 30.3343C152.189 30.9637 152.509 31.913 152.509 33.1823V38.1103H150.013V33.5663C150.013 32.8837 149.869 32.377 149.581 32.0463C149.303 31.705 148.903 31.5343 148.381 31.5343C147.794 31.5343 147.33 31.7263 146.989 32.1103C146.647 32.4837 146.477 33.0437 146.477 33.7903V38.1103H143.981V33.5663C143.981 32.2117 143.437 31.5343 142.349 31.5343C141.773 31.5343 141.314 31.7263 140.973 32.1103C140.631 32.4837 140.461 33.0437 140.461 33.7903V38.1103H137.965V29.5023H140.349V30.4943C140.669 30.1317 141.058 29.8543 141.516 29.6623C141.986 29.4703 142.498 29.3743 143.053 29.3743C143.661 29.3743 144.21 29.497 144.701 29.7423C145.191 29.977 145.586 30.3237 145.885 30.7823C146.237 30.3343 146.679 29.9877 147.213 29.7423C147.757 29.497 148.349 29.3743 148.989 29.3743ZM158.218 29.3743C159.551 29.3743 160.575 29.6943 161.29 30.3343C162.004 30.9637 162.362 31.9183 162.362 33.1983V38.1103H160.026V37.0383C159.556 37.8383 158.682 38.2383 157.402 38.2383C156.74 38.2383 156.164 38.1263 155.674 37.9023C155.194 37.6783 154.826 37.369 154.57 36.9743C154.314 36.5797 154.186 36.1317 154.186 35.6303C154.186 34.8303 154.484 34.201 155.082 33.7423C155.69 33.2837 156.623 33.0543 157.882 33.0543H159.866C159.866 32.5103 159.7 32.0943 159.37 31.8063C159.039 31.5077 158.543 31.3583 157.882 31.3583C157.423 31.3583 156.97 31.433 156.522 31.5823C156.084 31.721 155.711 31.913 155.402 32.1583L154.506 30.4143C154.975 30.0837 155.535 29.8277 156.186 29.6463C156.847 29.465 157.524 29.3743 158.218 29.3743ZM158.026 36.5583C158.452 36.5583 158.831 36.4623 159.162 36.2703C159.492 36.0677 159.727 35.7743 159.866 35.3903V34.5103H158.154C157.13 34.5103 156.618 34.8463 156.618 35.5183C156.618 35.8383 156.74 36.0943 156.986 36.2863C157.242 36.4677 157.588 36.5583 158.026 36.5583ZM170.173 37.6943C169.927 37.8757 169.623 38.0143 169.261 38.1103C168.909 38.1957 168.535 38.2383 168.141 38.2383C167.117 38.2383 166.322 37.977 165.757 37.4543C165.202 36.9317 164.925 36.1637 164.925 35.1503V31.6143H163.597V29.6943H164.925V27.5983H167.421V29.6943H169.565V31.6143H167.421V35.1183C167.421 35.481 167.511 35.7637 167.693 35.9663C167.885 36.1583 168.151 36.2543 168.493 36.2543C168.887 36.2543 169.223 36.1477 169.501 35.9343L170.173 37.6943ZM171.574 29.5023H174.07V38.1103H171.574V29.5023ZM172.822 28.3023C172.363 28.3023 171.99 28.169 171.702 27.9023C171.414 27.6357 171.27 27.305 171.27 26.9103C171.27 26.5157 171.414 26.185 171.702 25.9183C171.99 25.6517 172.363 25.5183 172.822 25.5183C173.281 25.5183 173.654 25.6463 173.942 25.9023C174.23 26.1583 174.374 26.4783 174.374 26.8623C174.374 27.2783 174.23 27.625 173.942 27.9023C173.654 28.169 173.281 28.3023 172.822 28.3023ZM180.482 38.2383C179.576 38.2383 178.76 38.0517 178.034 37.6783C177.32 37.2943 176.76 36.7663 176.354 36.0943C175.949 35.4223 175.746 34.6597 175.746 33.8063C175.746 32.953 175.949 32.1903 176.354 31.5183C176.76 30.8463 177.32 30.3237 178.034 29.9503C178.76 29.5663 179.576 29.3743 180.482 29.3743C181.389 29.3743 182.2 29.5663 182.914 29.9503C183.629 30.3237 184.189 30.8463 184.594 31.5183C185 32.1903 185.202 32.953 185.202 33.8063C185.202 34.6597 185 35.4223 184.594 36.0943C184.189 36.7663 183.629 37.2943 182.914 37.6783C182.2 38.0517 181.389 38.2383 180.482 38.2383ZM180.482 36.1903C181.122 36.1903 181.645 35.977 182.05 35.5503C182.466 35.113 182.674 34.5317 182.674 33.8063C182.674 33.081 182.466 32.505 182.05 32.0783C181.645 31.641 181.122 31.4223 180.482 31.4223C179.842 31.4223 179.314 31.641 178.898 32.0783C178.482 32.505 178.274 33.081 178.274 33.8063C178.274 34.5317 178.482 35.113 178.898 35.5503C179.314 35.977 179.842 36.1903 180.482 36.1903ZM192.103 29.3743C193.169 29.3743 194.028 29.6943 194.679 30.3343C195.34 30.9743 195.671 31.9237 195.671 33.1823V38.1103H193.175V33.5663C193.175 32.8837 193.025 32.377 192.727 32.0463C192.428 31.705 191.996 31.5343 191.431 31.5343C190.801 31.5343 190.3 31.7317 189.927 32.1263C189.553 32.5103 189.367 33.0863 189.367 33.8543V38.1103H186.871V29.5023H189.255V30.5103C189.585 30.1477 189.996 29.8703 190.487 29.6783C190.977 29.4757 191.516 29.3743 192.103 29.3743Z" fill="#6F90D9"/>
<path d="M70.954 53.1653C70.3967 53.1653 69.8943 53.0407 69.447 52.7913C68.9997 52.5347 68.6477 52.1827 68.391 51.7353C68.1343 51.288 68.006 50.782 68.006 50.2173C68.006 49.6527 68.1343 49.1467 68.391 48.6993C68.6477 48.252 68.9997 47.9037 69.447 47.6543C69.8943 47.405 70.3967 47.2803 70.954 47.2803C71.5113 47.2803 72.0137 47.405 72.461 47.6543C72.9083 47.9037 73.2567 48.252 73.506 48.6993C73.7627 49.1467 73.891 49.6527 73.891 50.2173C73.891 50.782 73.7627 51.288 73.506 51.7353C73.2567 52.1827 72.9083 52.5347 72.461 52.7913C72.0137 53.0407 71.5113 53.1653 70.954 53.1653ZM70.954 52.4723C71.3647 52.4723 71.7313 52.3807 72.054 52.1973C72.384 52.0067 72.6407 51.739 72.824 51.3943C73.0073 51.0497 73.099 50.6573 73.099 50.2173C73.099 49.7773 73.0073 49.385 72.824 49.0403C72.6407 48.6957 72.384 48.4317 72.054 48.2483C71.7313 48.0577 71.3647 47.9623 70.954 47.9623C70.5433 47.9623 70.173 48.0577 69.843 48.2483C69.5203 48.4317 69.2637 48.6957 69.073 49.0403C68.8897 49.385 68.798 49.7773 68.798 50.2173C68.798 50.6573 68.8897 51.0497 69.073 51.3943C69.2637 51.739 69.5203 52.0067 69.843 52.1973C70.173 52.3807 70.5433 52.4723 70.954 52.4723ZM77.3995 45.5533C77.0622 45.5533 76.8055 45.645 76.6295 45.8283C76.4608 46.0117 76.3765 46.283 76.3765 46.6423V47.3243H78.1585V47.9843H76.3985V53.1103H75.6175V47.9843H74.5835V47.3243H75.6175V46.6093C75.6175 46.0813 75.7678 45.6633 76.0685 45.3553C76.3765 45.0473 76.8092 44.8933 77.3665 44.8933C77.5865 44.8933 77.7992 44.9263 78.0045 44.9923C78.2098 45.051 78.3822 45.139 78.5215 45.2563L78.2575 45.8393C78.0302 45.6487 77.7442 45.5533 77.3995 45.5533ZM88.6919 45.4103V53.1103H87.8889V49.5573H83.0709V53.1103H82.2569V45.4103H83.0709V48.8423H87.8889V45.4103H88.6919ZM93.4052 53.1653C92.8478 53.1653 92.3455 53.0407 91.8982 52.7913C91.4508 52.5347 91.0988 52.1827 90.8422 51.7353C90.5855 51.288 90.4572 50.782 90.4572 50.2173C90.4572 49.6527 90.5855 49.1467 90.8422 48.6993C91.0988 48.252 91.4508 47.9037 91.8982 47.6543C92.3455 47.405 92.8478 47.2803 93.4052 47.2803C93.9625 47.2803 94.4648 47.405 94.9122 47.6543C95.3595 47.9037 95.7078 48.252 95.9572 48.6993C96.2138 49.1467 96.3422 49.6527 96.3422 50.2173C96.3422 50.782 96.2138 51.288 95.9572 51.7353C95.7078 52.1827 95.3595 52.5347 94.9122 52.7913C94.4648 53.0407 93.9625 53.1653 93.4052 53.1653ZM93.4052 52.4723C93.8158 52.4723 94.1825 52.3807 94.5052 52.1973C94.8352 52.0067 95.0918 51.739 95.2752 51.3943C95.4585 51.0497 95.5502 50.6573 95.5502 50.2173C95.5502 49.7773 95.4585 49.385 95.2752 49.0403C95.0918 48.6957 94.8352 48.4317 94.5052 48.2483C94.1825 48.0577 93.8158 47.9623 93.4052 47.9623C92.9945 47.9623 92.6242 48.0577 92.2942 48.2483C91.9715 48.4317 91.7148 48.6957 91.5242 49.0403C91.3408 49.385 91.2492 49.7773 91.2492 50.2173C91.2492 50.6573 91.3408 51.0497 91.5242 51.3943C91.7148 51.739 91.9715 52.0067 92.2942 52.1973C92.6242 52.3807 92.9945 52.4723 93.4052 52.4723ZM99.4877 53.1653C99.0183 53.1653 98.5673 53.0993 98.1347 52.9673C97.7093 52.828 97.3757 52.6557 97.1337 52.4503L97.4857 51.8343C97.7277 52.025 98.032 52.1827 98.3987 52.3073C98.7653 52.4247 99.1467 52.4833 99.5427 52.4833C100.071 52.4833 100.459 52.4027 100.709 52.2413C100.965 52.0727 101.094 51.838 101.094 51.5373C101.094 51.3247 101.024 51.1597 100.885 51.0423C100.745 50.9177 100.569 50.826 100.357 50.7673C100.144 50.7013 99.8617 50.639 99.5097 50.5803C99.0403 50.4923 98.6627 50.4043 98.3767 50.3163C98.0907 50.221 97.845 50.0633 97.6397 49.8433C97.4417 49.6233 97.3427 49.319 97.3427 48.9303C97.3427 48.4463 97.5443 48.0503 97.9477 47.7423C98.351 47.4343 98.912 47.2803 99.6307 47.2803C100.005 47.2803 100.379 47.3317 100.753 47.4343C101.127 47.5297 101.435 47.658 101.677 47.8193L101.336 48.4463C100.859 48.1163 100.291 47.9513 99.6307 47.9513C99.132 47.9513 98.7543 48.0393 98.4977 48.2153C98.2483 48.3913 98.1237 48.6223 98.1237 48.9083C98.1237 49.1283 98.1933 49.3043 98.3327 49.4363C98.4793 49.5683 98.659 49.6673 98.8717 49.7333C99.0843 49.792 99.3777 49.8543 99.7517 49.9203C100.214 50.0083 100.584 50.0963 100.863 50.1843C101.141 50.2723 101.38 50.4227 101.578 50.6353C101.776 50.848 101.875 51.1413 101.875 51.5153C101.875 52.0213 101.662 52.4247 101.237 52.7253C100.819 53.0187 100.236 53.1653 99.4877 53.1653ZM106.299 47.2803C106.842 47.2803 107.333 47.405 107.773 47.6543C108.213 47.8963 108.558 48.241 108.807 48.6883C109.057 49.1357 109.181 49.6453 109.181 50.2173C109.181 50.7967 109.057 51.31 108.807 51.7573C108.558 52.2047 108.213 52.553 107.773 52.8023C107.341 53.0443 106.849 53.1653 106.299 53.1653C105.83 53.1653 105.405 53.07 105.023 52.8793C104.649 52.6813 104.341 52.3953 104.099 52.0213V55.2443H103.318V47.3243H104.066V48.4683C104.301 48.087 104.609 47.7937 104.99 47.5883C105.379 47.383 105.815 47.2803 106.299 47.2803ZM106.244 52.4723C106.648 52.4723 107.014 52.3807 107.344 52.1973C107.674 52.0067 107.931 51.739 108.114 51.3943C108.305 51.0497 108.4 50.6573 108.4 50.2173C108.4 49.7773 108.305 49.3887 108.114 49.0513C107.931 48.7067 107.674 48.439 107.344 48.2483C107.014 48.0577 106.648 47.9623 106.244 47.9623C105.834 47.9623 105.463 48.0577 105.133 48.2483C104.811 48.439 104.554 48.7067 104.363 49.0513C104.18 49.3887 104.088 49.7773 104.088 50.2173C104.088 50.6573 104.18 51.0497 104.363 51.3943C104.554 51.739 104.811 52.0067 105.133 52.1973C105.463 52.3807 105.834 52.4723 106.244 52.4723ZM110.774 47.3243H111.555V53.1103H110.774V47.3243ZM111.17 46.0593C111.008 46.0593 110.873 46.0043 110.763 45.8943C110.653 45.7843 110.598 45.6523 110.598 45.4983C110.598 45.3517 110.653 45.2233 110.763 45.1133C110.873 45.0033 111.008 44.9483 111.17 44.9483C111.331 44.9483 111.467 45.0033 111.577 45.1133C111.687 45.216 111.742 45.3407 111.742 45.4873C111.742 45.6487 111.687 45.7843 111.577 45.8943C111.467 46.0043 111.331 46.0593 111.17 46.0593ZM116.775 52.7583C116.628 52.8903 116.445 52.993 116.225 53.0663C116.012 53.1323 115.788 53.1653 115.554 53.1653C115.011 53.1653 114.593 53.0187 114.3 52.7253C114.006 52.432 113.86 52.0177 113.86 51.4823V47.9843H112.826V47.3243H113.86V46.0593H114.641V47.3243H116.401V47.9843H114.641V51.4383C114.641 51.783 114.725 52.047 114.894 52.2303C115.07 52.4063 115.319 52.4943 115.642 52.4943C115.803 52.4943 115.957 52.4687 116.104 52.4173C116.258 52.366 116.39 52.2927 116.5 52.1973L116.775 52.7583ZM120.22 47.2803C120.976 47.2803 121.555 47.471 121.958 47.8523C122.362 48.2263 122.563 48.7837 122.563 49.5243V53.1103H121.815V52.2083C121.639 52.509 121.379 52.7437 121.034 52.9123C120.697 53.081 120.294 53.1653 119.824 53.1653C119.179 53.1653 118.666 53.0113 118.284 52.7033C117.903 52.3953 117.712 51.9883 117.712 51.4823C117.712 50.991 117.888 50.595 118.24 50.2943C118.6 49.9937 119.168 49.8433 119.945 49.8433H121.782V49.4913C121.782 48.9927 121.643 48.615 121.364 48.3583C121.086 48.0943 120.679 47.9623 120.143 47.9623C119.777 47.9623 119.425 48.0247 119.087 48.1493C118.75 48.2667 118.46 48.4317 118.218 48.6443L117.866 48.0613C118.16 47.812 118.512 47.6213 118.922 47.4893C119.333 47.35 119.766 47.2803 120.22 47.2803ZM119.945 52.5493C120.385 52.5493 120.763 52.4503 121.078 52.2523C121.394 52.047 121.628 51.7537 121.782 51.3723V50.4263H119.967C118.977 50.4263 118.482 50.771 118.482 51.4603C118.482 51.7977 118.611 52.0653 118.867 52.2633C119.124 52.454 119.483 52.5493 119.945 52.5493ZM124.685 44.9483H125.466V53.1103H124.685V44.9483ZM138.68 45.4103V53.1103H137.899V46.9503L134.874 52.1313H134.489L131.464 46.9833V53.1103H130.683V45.4103H131.354L134.698 51.1193L138.009 45.4103H138.68ZM143.048 47.2803C143.803 47.2803 144.382 47.471 144.786 47.8523C145.189 48.2263 145.391 48.7837 145.391 49.5243V53.1103H144.643V52.2083C144.467 52.509 144.206 52.7437 143.862 52.9123C143.524 53.081 143.121 53.1653 142.652 53.1653C142.006 53.1653 141.493 53.0113 141.112 52.7033C140.73 52.3953 140.54 51.9883 140.54 51.4823C140.54 50.991 140.716 50.595 141.068 50.2943C141.427 49.9937 141.995 49.8433 142.773 49.8433H144.61V49.4913C144.61 48.9927 144.47 48.615 144.192 48.3583C143.913 48.0943 143.506 47.9623 142.971 47.9623C142.604 47.9623 142.252 48.0247 141.915 48.1493C141.577 48.2667 141.288 48.4317 141.046 48.6443L140.694 48.0613C140.987 47.812 141.339 47.6213 141.75 47.4893C142.16 47.35 142.593 47.2803 143.048 47.2803ZM142.773 52.5493C143.213 52.5493 143.59 52.4503 143.906 52.2523C144.221 52.047 144.456 51.7537 144.61 51.3723V50.4263H142.795C141.805 50.4263 141.31 50.771 141.31 51.4603C141.31 51.7977 141.438 52.0653 141.695 52.2633C141.951 52.454 142.311 52.5493 142.773 52.5493ZM150.46 47.2803C151.186 47.2803 151.762 47.493 152.187 47.9183C152.62 48.3363 152.836 48.9487 152.836 49.7553V53.1103H152.055V49.8323C152.055 49.231 151.905 48.7727 151.604 48.4573C151.303 48.142 150.874 47.9843 150.317 47.9843C149.694 47.9843 149.199 48.1713 148.832 48.5453C148.473 48.912 148.293 49.4217 148.293 50.0743V53.1103H147.512V47.3243H148.26V48.3913C148.473 48.0393 148.766 47.768 149.14 47.5773C149.521 47.3793 149.961 47.2803 150.46 47.2803ZM156.98 47.2803C157.736 47.2803 158.315 47.471 158.718 47.8523C159.122 48.2263 159.323 48.7837 159.323 49.5243V53.1103H158.575V52.2083C158.399 52.509 158.139 52.7437 157.794 52.9123C157.457 53.081 157.054 53.1653 156.584 53.1653C155.939 53.1653 155.426 53.0113 155.044 52.7033C154.663 52.3953 154.472 51.9883 154.472 51.4823C154.472 50.991 154.648 50.595 155 50.2943C155.36 49.9937 155.928 49.8433 156.705 49.8433H158.542V49.4913C158.542 48.9927 158.403 48.615 158.124 48.3583C157.846 48.0943 157.439 47.9623 156.903 47.9623C156.537 47.9623 156.185 48.0247 155.847 48.1493C155.51 48.2667 155.22 48.4317 154.978 48.6443L154.626 48.0613C154.92 47.812 155.272 47.6213 155.682 47.4893C156.093 47.35 156.526 47.2803 156.98 47.2803ZM156.705 52.5493C157.145 52.5493 157.523 52.4503 157.838 52.2523C158.154 52.047 158.388 51.7537 158.542 51.3723V50.4263H156.727C155.737 50.4263 155.242 50.771 155.242 51.4603C155.242 51.7977 155.371 52.0653 155.627 52.2633C155.884 52.454 156.243 52.5493 156.705 52.5493ZM166.801 47.3243V52.4063C166.801 53.389 166.559 54.115 166.075 54.5843C165.599 55.061 164.876 55.2993 163.908 55.2993C163.373 55.2993 162.863 55.2187 162.379 55.0573C161.903 54.9033 161.514 54.687 161.213 54.4083L161.609 53.8143C161.888 54.0637 162.225 54.258 162.621 54.3973C163.025 54.5367 163.446 54.6063 163.886 54.6063C164.62 54.6063 165.159 54.434 165.503 54.0893C165.848 53.752 166.02 53.224 166.02 52.5053V51.7683C165.778 52.135 165.459 52.4137 165.063 52.6043C164.675 52.795 164.242 52.8903 163.765 52.8903C163.223 52.8903 162.728 52.773 162.28 52.5383C161.84 52.2963 161.492 51.9627 161.235 51.5373C160.986 51.1047 160.861 50.617 160.861 50.0743C160.861 49.5317 160.986 49.0477 161.235 48.6223C161.492 48.197 161.84 47.867 162.28 47.6323C162.72 47.3977 163.215 47.2803 163.765 47.2803C164.257 47.2803 164.7 47.3793 165.096 47.5773C165.492 47.7753 165.811 48.0613 166.053 48.4353V47.3243H166.801ZM163.842 52.1973C164.26 52.1973 164.638 52.1093 164.975 51.9333C165.313 51.75 165.573 51.497 165.756 51.1743C165.947 50.8517 166.042 50.485 166.042 50.0743C166.042 49.6637 165.947 49.3007 165.756 48.9853C165.573 48.6627 165.313 48.4133 164.975 48.2373C164.645 48.054 164.268 47.9623 163.842 47.9623C163.424 47.9623 163.047 48.0503 162.709 48.2263C162.379 48.4023 162.119 48.6517 161.928 48.9743C161.745 49.297 161.653 49.6637 161.653 50.0743C161.653 50.485 161.745 50.8517 161.928 51.1743C162.119 51.497 162.379 51.75 162.709 51.9333C163.047 52.1093 163.424 52.1973 163.842 52.1973ZM174.023 50.4593H169.183C169.227 51.0607 169.458 51.5483 169.876 51.9223C170.294 52.289 170.822 52.4723 171.46 52.4723C171.82 52.4723 172.15 52.41 172.45 52.2853C172.751 52.1533 173.011 51.9627 173.231 51.7133L173.671 52.2193C173.415 52.5273 173.092 52.762 172.703 52.9233C172.322 53.0847 171.9 53.1653 171.438 53.1653C170.844 53.1653 170.316 53.0407 169.854 52.7913C169.4 52.5347 169.044 52.1827 168.787 51.7353C168.531 51.288 168.402 50.782 168.402 50.2173C168.402 49.6527 168.523 49.1467 168.765 48.6993C169.015 48.252 169.352 47.9037 169.777 47.6543C170.21 47.405 170.694 47.2803 171.229 47.2803C171.765 47.2803 172.245 47.405 172.67 47.6543C173.096 47.9037 173.429 48.252 173.671 48.6993C173.913 49.1393 174.034 49.6453 174.034 50.2173L174.023 50.4593ZM171.229 47.9513C170.672 47.9513 170.203 48.131 169.821 48.4903C169.447 48.8423 169.235 49.3043 169.183 49.8763H173.286C173.235 49.3043 173.019 48.8423 172.637 48.4903C172.263 48.131 171.794 47.9513 171.229 47.9513ZM182.84 47.2803C183.566 47.2803 184.134 47.4893 184.545 47.9073C184.963 48.3253 185.172 48.9413 185.172 49.7553V53.1103H184.391V49.8323C184.391 49.231 184.244 48.7727 183.951 48.4573C183.665 48.142 183.258 47.9843 182.73 47.9843C182.129 47.9843 181.656 48.1713 181.311 48.5453C180.966 48.912 180.794 49.4217 180.794 50.0743V53.1103H180.013V49.8323C180.013 49.231 179.866 48.7727 179.573 48.4573C179.287 48.142 178.876 47.9843 178.341 47.9843C177.747 47.9843 177.274 48.1713 176.922 48.5453C176.577 48.912 176.405 49.4217 176.405 50.0743V53.1103H175.624V47.3243H176.372V48.3803C176.577 48.0283 176.863 47.757 177.23 47.5663C177.597 47.3757 178.018 47.2803 178.495 47.2803C178.979 47.2803 179.397 47.383 179.749 47.5883C180.108 47.7937 180.376 48.098 180.552 48.5013C180.765 48.12 181.069 47.823 181.465 47.6103C181.868 47.3903 182.327 47.2803 182.84 47.2803ZM192.328 50.4593H187.488C187.532 51.0607 187.763 51.5483 188.181 51.9223C188.599 52.289 189.127 52.4723 189.765 52.4723C190.125 52.4723 190.455 52.41 190.755 52.2853C191.056 52.1533 191.316 51.9627 191.536 51.7133L191.976 52.2193C191.72 52.5273 191.397 52.762 191.008 52.9233C190.627 53.0847 190.205 53.1653 189.743 53.1653C189.149 53.1653 188.621 53.0407 188.159 52.7913C187.705 52.5347 187.349 52.1827 187.092 51.7353C186.836 51.288 186.707 50.782 186.707 50.2173C186.707 49.6527 186.828 49.1467 187.07 48.6993C187.32 48.252 187.657 47.9037 188.082 47.6543C188.515 47.405 188.999 47.2803 189.534 47.2803C190.07 47.2803 190.55 47.405 190.975 47.6543C191.401 47.9037 191.734 48.252 191.976 48.6993C192.218 49.1393 192.339 49.6453 192.339 50.2173L192.328 50.4593ZM189.534 47.9513C188.977 47.9513 188.508 48.131 188.126 48.4903C187.752 48.8423 187.54 49.3043 187.488 49.8763H191.591C191.54 49.3043 191.324 48.8423 190.942 48.4903C190.568 48.131 190.099 47.9513 189.534 47.9513ZM196.877 47.2803C197.603 47.2803 198.179 47.493 198.604 47.9183C199.037 48.3363 199.253 48.9487 199.253 49.7553V53.1103H198.472V49.8323C198.472 49.231 198.322 48.7727 198.021 48.4573C197.72 48.142 197.291 47.9843 196.734 47.9843C196.111 47.9843 195.616 48.1713 195.249 48.5453C194.89 48.912 194.71 49.4217 194.71 50.0743V53.1103H193.929V47.3243H194.677V48.3913C194.89 48.0393 195.183 47.768 195.557 47.5773C195.938 47.3793 196.378 47.2803 196.877 47.2803ZM204.42 52.7583C204.274 52.8903 204.09 52.993 203.87 53.0663C203.658 53.1323 203.434 53.1653 203.199 53.1653C202.657 53.1653 202.239 53.0187 201.945 52.7253C201.652 52.432 201.505 52.0177 201.505 51.4823V47.9843H200.471V47.3243H201.505V46.0593H202.286V47.3243H204.046V47.9843H202.286V51.4383C202.286 51.783 202.371 52.047 202.539 52.2303C202.715 52.4063 202.965 52.4943 203.287 52.4943C203.449 52.4943 203.603 52.4687 203.749 52.4173C203.903 52.366 204.035 52.2927 204.145 52.1973L204.42 52.7583ZM211.009 53.1763C210.437 53.1763 209.887 53.0847 209.359 52.9013C208.838 52.718 208.435 52.476 208.149 52.1753L208.468 51.5483C208.747 51.827 209.117 52.0543 209.579 52.2303C210.041 52.399 210.518 52.4833 211.009 52.4833C211.698 52.4833 212.215 52.3587 212.56 52.1093C212.905 51.8527 213.077 51.5227 213.077 51.1193C213.077 50.8113 212.982 50.5657 212.791 50.3823C212.608 50.199 212.38 50.0597 212.109 49.9643C211.838 49.8617 211.46 49.7517 210.976 49.6343C210.397 49.4877 209.935 49.3483 209.59 49.2163C209.245 49.077 208.948 48.868 208.699 48.5893C208.457 48.3107 208.336 47.933 208.336 47.4563C208.336 47.0677 208.439 46.7157 208.644 46.4003C208.849 46.0777 209.165 45.821 209.59 45.6303C210.015 45.4397 210.543 45.3443 211.174 45.3443C211.614 45.3443 212.043 45.4067 212.461 45.5313C212.886 45.6487 213.253 45.8137 213.561 46.0263L213.286 46.6753C212.963 46.4627 212.619 46.305 212.252 46.2023C211.885 46.0923 211.526 46.0373 211.174 46.0373C210.499 46.0373 209.99 46.1693 209.645 46.4333C209.308 46.69 209.139 47.0237 209.139 47.4343C209.139 47.7423 209.231 47.9917 209.414 48.1823C209.605 48.3657 209.839 48.5087 210.118 48.6113C210.404 48.7067 210.785 48.813 211.262 48.9303C211.827 49.0697 212.281 49.209 212.626 49.3483C212.978 49.4803 213.275 49.6857 213.517 49.9643C213.759 50.2357 213.88 50.606 213.88 51.0753C213.88 51.464 213.774 51.8197 213.561 52.1423C213.356 52.4577 213.037 52.7107 212.604 52.9013C212.171 53.0847 211.64 53.1763 211.009 53.1763ZM220.243 47.3243L217.35 53.8033C217.115 54.346 216.844 54.731 216.536 54.9583C216.228 55.1857 215.858 55.2993 215.425 55.2993C215.146 55.2993 214.886 55.2553 214.644 55.1673C214.402 55.0793 214.193 54.9473 214.017 54.7713L214.38 54.1883C214.673 54.4817 215.025 54.6283 215.436 54.6283C215.7 54.6283 215.924 54.555 216.107 54.4083C216.298 54.2617 216.474 54.0123 216.635 53.6603L216.888 53.0993L214.303 47.3243H215.117L217.295 52.2413L219.473 47.3243H220.243ZM222.829 53.1653C222.36 53.1653 221.909 53.0993 221.476 52.9673C221.051 52.828 220.717 52.6557 220.475 52.4503L220.827 51.8343C221.069 52.025 221.374 52.1827 221.74 52.3073C222.107 52.4247 222.488 52.4833 222.884 52.4833C223.412 52.4833 223.801 52.4027 224.05 52.2413C224.307 52.0727 224.435 51.838 224.435 51.5373C224.435 51.3247 224.366 51.1597 224.226 51.0423C224.087 50.9177 223.911 50.826 223.698 50.7673C223.486 50.7013 223.203 50.639 222.851 50.5803C222.382 50.4923 222.004 50.4043 221.718 50.3163C221.432 50.221 221.187 50.0633 220.981 49.8433C220.783 49.6233 220.684 49.319 220.684 48.9303C220.684 48.4463 220.886 48.0503 221.289 47.7423C221.693 47.4343 222.254 47.2803 222.972 47.2803C223.346 47.2803 223.72 47.3317 224.094 47.4343C224.468 47.5297 224.776 47.658 225.018 47.8193L224.677 48.4463C224.201 48.1163 223.632 47.9513 222.972 47.9513C222.474 47.9513 222.096 48.0393 221.839 48.2153C221.59 48.3913 221.465 48.6223 221.465 48.9083C221.465 49.1283 221.535 49.3043 221.674 49.4363C221.821 49.5683 222.001 49.6673 222.213 49.7333C222.426 49.792 222.719 49.8543 223.093 49.9203C223.555 50.0083 223.926 50.0963 224.204 50.1843C224.483 50.2723 224.721 50.4227 224.919 50.6353C225.117 50.848 225.216 51.1413 225.216 51.5153C225.216 52.0213 225.004 52.4247 224.578 52.7253C224.16 53.0187 223.577 53.1653 222.829 53.1653ZM229.707 52.7583C229.561 52.8903 229.377 52.993 229.157 53.0663C228.945 53.1323 228.721 53.1653 228.486 53.1653C227.944 53.1653 227.526 53.0187 227.232 52.7253C226.939 52.432 226.792 52.0177 226.792 51.4823V47.9843H225.758V47.3243H226.792V46.0593H227.573V47.3243H229.333V47.9843H227.573V51.4383C227.573 51.783 227.658 52.047 227.826 52.2303C228.002 52.4063 228.252 52.4943 228.574 52.4943C228.736 52.4943 228.89 52.4687 229.036 52.4173C229.19 52.366 229.322 52.2927 229.432 52.1973L229.707 52.7583ZM235.963 50.4593H231.123C231.167 51.0607 231.398 51.5483 231.816 51.9223C232.234 52.289 232.762 52.4723 233.4 52.4723C233.759 52.4723 234.089 52.41 234.39 52.2853C234.691 52.1533 234.951 51.9627 235.171 51.7133L235.611 52.2193C235.354 52.5273 235.032 52.762 234.643 52.9233C234.262 53.0847 233.84 53.1653 233.378 53.1653C232.784 53.1653 232.256 53.0407 231.794 52.7913C231.339 52.5347 230.984 52.1827 230.727 51.7353C230.47 51.288 230.342 50.782 230.342 50.2173C230.342 49.6527 230.463 49.1467 230.705 48.6993C230.954 48.252 231.292 47.9037 231.717 47.6543C232.15 47.405 232.634 47.2803 233.169 47.2803C233.704 47.2803 234.185 47.405 234.61 47.6543C235.035 47.9037 235.369 48.252 235.611 48.6993C235.853 49.1393 235.974 49.6453 235.974 50.2173L235.963 50.4593ZM233.169 47.9513C232.612 47.9513 232.142 48.131 231.761 48.4903C231.387 48.8423 231.174 49.3043 231.123 49.8763H235.226C235.175 49.3043 234.958 48.8423 234.577 48.4903C234.203 48.131 233.734 47.9513 233.169 47.9513ZM244.78 47.2803C245.506 47.2803 246.074 47.4893 246.485 47.9073C246.903 48.3253 247.112 48.9413 247.112 49.7553V53.1103H246.331V49.8323C246.331 49.231 246.184 48.7727 245.891 48.4573C245.605 48.142 245.198 47.9843 244.67 47.9843C244.068 47.9843 243.595 48.1713 243.251 48.5453C242.906 48.912 242.734 49.4217 242.734 50.0743V53.1103H241.953V49.8323C241.953 49.231 241.806 48.7727 241.513 48.4573C241.227 48.142 240.816 47.9843 240.281 47.9843C239.687 47.9843 239.214 48.1713 238.862 48.5453C238.517 48.912 238.345 49.4217 238.345 50.0743V53.1103H237.564V47.3243H238.312V48.3803C238.517 48.0283 238.803 47.757 239.17 47.5663C239.536 47.3757 239.958 47.2803 240.435 47.2803C240.919 47.2803 241.337 47.383 241.689 47.5883C242.048 47.7937 242.316 48.098 242.492 48.5013C242.704 48.12 243.009 47.823 243.405 47.6103C243.808 47.3903 244.266 47.2803 244.78 47.2803Z" fill="#4AA3A5"/>
<defs>
<radialGradient id="paint0_angular_30_307" cx="0" cy="0" r="1" gradientUnits="userSpaceOnUse" gradientTransform="translate(27.0508 27.8479) rotate(135) scale(27.0508)">
<stop offset="0.375552" stop-color="#6F90D9"/>
<stop offset="1" stop-color="#77BABB"/>
</radialGradient>
</defs>
</svg>
