<svg width="253" height="58" viewBox="0 0 253 58" fill="none" xmlns="http://www.w3.org/2000/svg">
<path d="M38.116 52.4529C43.8311 49.9025 48.485 45.4494 51.2848 39.8523C54.0847 34.2551 54.8572 27.8604 53.4707 21.7576C52.0843 15.6547 48.6246 10.2214 43.6813 6.38346C38.7379 2.54547 32.6167 0.54026 26.3607 0.709482C20.1046 0.878704 14.1008 3.21189 9.37218 7.3115C4.64354 11.4111 1.48267 17.0235 0.428148 23.1923C-0.626377 29.3612 0.490688 35.7048 3.58901 41.1424C6.68733 46.58 11.5752 50.775 17.4198 53.0128L21.7838 41.6148C18.5762 40.3867 15.8936 38.0843 14.1932 35.1001C12.4928 32.1159 11.8798 28.6344 12.4585 25.2488C13.0372 21.8633 14.772 18.7831 17.3671 16.5332C19.9623 14.2832 23.2573 13.0028 26.6907 12.9099C30.1241 12.817 33.4835 13.9175 36.1965 16.0239C38.9095 18.1302 40.8082 21.1121 41.5691 24.4614C42.33 27.8107 41.9061 31.3203 40.3695 34.3921C38.8329 37.4639 36.2787 39.9078 33.1422 41.3075L38.116 52.4529Z" fill="white"/>
<path d="M26.1967 21.065C26.1967 20.5703 26.5977 20.1693 27.0924 20.1693C27.587 20.1693 27.988 20.5703 27.988 21.065V34.4357C27.988 34.9303 27.587 35.3313 27.0924 35.3313C26.5977 35.3313 26.1967 34.9303 26.1967 34.4357V21.065Z" fill="white"/>
<path d="M29.6461 23.6228C29.6461 23.1281 30.0471 22.7272 30.5417 22.7272C31.0364 22.7272 31.4374 23.1281 31.4374 23.6228V31.8777C31.4374 32.3724 31.0364 32.7734 30.5417 32.7734C30.0471 32.7734 29.6461 32.3724 29.6461 31.8777V23.6228Z" fill="white"/>
<path d="M24.5387 23.6228C24.5387 23.1281 24.1377 22.7272 23.6431 22.7272C23.1484 22.7272 22.7474 23.1281 22.7474 23.6228V31.8777C22.7474 32.3724 23.1484 32.7734 23.6431 32.7734C24.1377 32.7734 24.5387 32.3724 24.5387 31.8777V23.6228Z" fill="white"/>
<path d="M33.0955 25.7749C33.0955 25.2802 33.4965 24.8792 33.9911 24.8792C34.4858 24.8792 34.8868 25.2802 34.8868 25.7749V29.7258C34.8868 30.2204 34.4858 30.6214 33.9911 30.6214C33.4965 30.6214 33.0955 30.2204 33.0955 29.7258V25.7749Z" fill="white"/>
<path d="M21.0893 25.7749C21.0893 25.2802 20.6883 24.8792 20.1936 24.8792C19.699 24.8792 19.298 25.2802 19.298 25.7749V29.7258C19.298 30.2204 19.699 30.6214 20.1936 30.6214C20.6883 30.6214 21.0893 30.2204 21.0893 29.7258V25.7749Z" fill="white"/>
<path d="M15.8487 27.34C15.8487 26.8453 16.2497 26.4444 16.7443 26.4444C17.239 26.4444 17.64 26.8453 17.64 27.34V28.1607C17.64 28.6553 17.239 29.0563 16.7443 29.0563C16.2497 29.0563 15.8487 28.6553 15.8487 28.1607V27.34Z" fill="white"/>
<path d="M36.5445 27.34C36.5445 26.8453 36.9455 26.4444 37.4401 26.4444C37.9347 26.4444 38.3357 26.8453 38.3357 27.34V28.1607C38.3357 28.6553 37.9347 29.0563 37.4401 29.0563C36.9455 29.0563 36.5445 28.6553 36.5445 28.1607V27.34Z" fill="white"/>
<path d="M68.8693 6.81276H73.9573C75.1733 6.81276 76.2453 7.04742 77.1733 7.51676C78.112 7.97542 78.8373 8.62609 79.3493 9.46876C79.872 10.3114 80.1333 11.2928 80.1333 12.4128C80.1333 13.5328 79.872 14.5141 79.3493 15.3568C78.8373 16.1994 78.112 16.8554 77.1733 17.3248C76.2453 17.7834 75.1733 18.0128 73.9573 18.0128H68.8693V6.81276ZM73.8293 15.8848C74.9493 15.8848 75.84 15.5754 76.5013 14.9568C77.1733 14.3274 77.5093 13.4794 77.5093 12.4128C77.5093 11.3461 77.1733 10.5034 76.5013 9.88476C75.84 9.25542 74.9493 8.94076 73.8293 8.94076H71.4613V15.8848H73.8293ZM81.9121 9.40476H84.4081V18.0128H81.9121V9.40476ZM83.1601 8.20476C82.7014 8.20476 82.3281 8.07142 82.0401 7.80476C81.7521 7.53809 81.6081 7.20742 81.6081 6.81276C81.6081 6.41809 81.7521 6.08742 82.0401 5.82076C82.3281 5.55409 82.7014 5.42076 83.1601 5.42076C83.6187 5.42076 83.9921 5.54876 84.2801 5.80476C84.5681 6.06076 84.7121 6.38076 84.7121 6.76476C84.7121 7.18076 84.5681 7.52742 84.2801 7.80476C83.9921 8.07142 83.6187 8.20476 83.1601 8.20476ZM95.6046 9.40476V16.5728C95.6046 18.1514 95.1939 19.3248 94.3726 20.0928C93.5512 20.8608 92.3512 21.2448 90.7726 21.2448C89.9406 21.2448 89.1512 21.1434 88.4046 20.9408C87.6579 20.7381 87.0392 20.4448 86.5486 20.0608L87.5406 18.2688C87.9032 18.5674 88.3619 18.8021 88.9166 18.9728C89.4712 19.1541 90.0259 19.2448 90.5806 19.2448C91.4446 19.2448 92.0792 19.0474 92.4846 18.6528C92.9006 18.2688 93.1086 17.6821 93.1086 16.8928V16.5248C92.4579 17.2394 91.5512 17.5968 90.3886 17.5968C89.5992 17.5968 88.8739 17.4261 88.2126 17.0848C87.5619 16.7328 87.0446 16.2421 86.6606 15.6128C86.2766 14.9834 86.0846 14.2581 86.0846 13.4368C86.0846 12.6154 86.2766 11.8901 86.6606 11.2608C87.0446 10.6314 87.5619 10.1461 88.2126 9.80476C88.8739 9.45276 89.5992 9.27676 90.3886 9.27676C91.6366 9.27676 92.5859 9.68742 93.2366 10.5088V9.40476H95.6046ZM90.8846 15.5488C91.5459 15.5488 92.0846 15.3568 92.5006 14.9728C92.9272 14.5781 93.1406 14.0661 93.1406 13.4368C93.1406 12.8074 92.9272 12.3008 92.5006 11.9168C92.0846 11.5221 91.5459 11.3248 90.8846 11.3248C90.2232 11.3248 89.6792 11.5221 89.2526 11.9168C88.8259 12.3008 88.6126 12.8074 88.6126 13.4368C88.6126 14.0661 88.8259 14.5781 89.2526 14.9728C89.6792 15.3568 90.2232 15.5488 90.8846 15.5488ZM97.9277 9.40476H100.424V18.0128H97.9277V9.40476ZM99.1757 8.20476C98.717 8.20476 98.3437 8.07142 98.0557 7.80476C97.7677 7.53809 97.6237 7.20742 97.6237 6.81276C97.6237 6.41809 97.7677 6.08742 98.0557 5.82076C98.3437 5.55409 98.717 5.42076 99.1757 5.42076C99.6344 5.42076 100.008 5.54876 100.296 5.80476C100.584 6.06076 100.728 6.38076 100.728 6.76476C100.728 7.18076 100.584 7.52742 100.296 7.80476C100.008 8.07142 99.6344 8.20476 99.1757 8.20476ZM108.292 17.5968C108.047 17.7781 107.743 17.9168 107.38 18.0128C107.028 18.0981 106.655 18.1408 106.26 18.1408C105.236 18.1408 104.442 17.8794 103.876 17.3568C103.322 16.8341 103.044 16.0661 103.044 15.0528V11.5168H101.716V9.59676H103.044V7.50076H105.54V9.59676H107.684V11.5168H105.54V15.0208C105.54 15.3834 105.631 15.6661 105.812 15.8688C106.004 16.0608 106.271 16.1568 106.612 16.1568C107.007 16.1568 107.343 16.0501 107.62 15.8368L108.292 17.5968ZM113.165 9.27676C114.499 9.27676 115.523 9.59676 116.237 10.2368C116.952 10.8661 117.309 11.8208 117.309 13.1008V18.0128H114.973V16.9408C114.504 17.7408 113.629 18.1408 112.349 18.1408C111.688 18.1408 111.112 18.0288 110.621 17.8048C110.141 17.5808 109.773 17.2714 109.517 16.8768C109.261 16.4821 109.133 16.0341 109.133 15.5328C109.133 14.7328 109.432 14.1034 110.029 13.6448C110.637 13.1861 111.571 12.9568 112.829 12.9568H114.813C114.813 12.4128 114.648 11.9968 114.317 11.7088C113.987 11.4101 113.491 11.2608 112.829 11.2608C112.371 11.2608 111.917 11.3354 111.469 11.4848C111.032 11.6234 110.659 11.8154 110.349 12.0608L109.453 10.3168C109.923 9.98609 110.483 9.73009 111.133 9.54876C111.795 9.36742 112.472 9.27676 113.165 9.27676ZM112.973 16.4608C113.4 16.4608 113.779 16.3648 114.109 16.1728C114.44 15.9701 114.675 15.6768 114.813 15.2928V14.4128H113.101C112.077 14.4128 111.565 14.7488 111.565 15.4208C111.565 15.7408 111.688 15.9968 111.933 16.1888C112.189 16.3701 112.536 16.4608 112.973 16.4608ZM119.568 6.14076H122.064V18.0128H119.568V6.14076ZM71.1893 28.9248H67.6053V26.8128H77.3653V28.9248H73.7813V38.0128H71.1893V28.9248ZM80.7804 30.5408C81.0791 30.1248 81.4791 29.8101 81.9804 29.5968C82.4924 29.3834 83.0791 29.2768 83.7404 29.2768V31.5808C83.4631 31.5594 83.2764 31.5488 83.1804 31.5488C82.4658 31.5488 81.9058 31.7514 81.5004 32.1568C81.0951 32.5514 80.8924 33.1488 80.8924 33.9488V38.0128H78.3964V29.4048H80.7804V30.5408ZM88.6497 29.2768C89.983 29.2768 91.007 29.5968 91.7217 30.2368C92.4364 30.8661 92.7937 31.8208 92.7937 33.1008V38.0128H90.4577V36.9408C89.9884 37.7408 89.1137 38.1408 87.8337 38.1408C87.1724 38.1408 86.5964 38.0288 86.1057 37.8048C85.6257 37.5808 85.2577 37.2714 85.0017 36.8768C84.7457 36.4821 84.6177 36.0341 84.6177 35.5328C84.6177 34.7328 84.9164 34.1034 85.5137 33.6448C86.1217 33.1861 87.055 32.9568 88.3137 32.9568H90.2977C90.2977 32.4128 90.1324 31.9968 89.8017 31.7088C89.471 31.4101 88.975 31.2608 88.3137 31.2608C87.855 31.2608 87.4017 31.3354 86.9537 31.4848C86.5164 31.6234 86.143 31.8154 85.8337 32.0608L84.9377 30.3168C85.407 29.9861 85.967 29.7301 86.6177 29.5488C87.279 29.3674 87.9564 29.2768 88.6497 29.2768ZM88.4577 36.4608C88.8844 36.4608 89.263 36.3648 89.5937 36.1728C89.9244 35.9701 90.159 35.6768 90.2977 35.2928V34.4128H88.5857C87.5617 34.4128 87.0497 34.7488 87.0497 35.4208C87.0497 35.7408 87.1724 35.9968 87.4177 36.1888C87.6737 36.3701 88.0204 36.4608 88.4577 36.4608ZM100.285 29.2768C101.351 29.2768 102.21 29.5968 102.861 30.2368C103.522 30.8768 103.853 31.8261 103.853 33.0848V38.0128H101.357V33.4688C101.357 32.7861 101.207 32.2794 100.909 31.9488C100.61 31.6074 100.178 31.4368 99.6127 31.4368C98.9834 31.4368 98.482 31.6341 98.1087 32.0288C97.7354 32.4128 97.5487 32.9888 97.5487 33.7568V38.0128H95.0527V29.4048H97.4367V30.4128C97.7674 30.0501 98.178 29.7728 98.6687 29.5808C99.1594 29.3781 99.698 29.2768 100.285 29.2768ZM109.011 38.1408C108.297 38.1408 107.598 38.0554 106.915 37.8848C106.233 37.7034 105.689 37.4794 105.283 37.2128L106.115 35.4208C106.499 35.6661 106.963 35.8688 107.507 36.0288C108.051 36.1781 108.585 36.2528 109.107 36.2528C110.163 36.2528 110.691 35.9914 110.691 35.4688C110.691 35.2234 110.547 35.0474 110.259 34.9408C109.971 34.8341 109.529 34.7434 108.931 34.6688C108.227 34.5621 107.646 34.4394 107.187 34.3008C106.729 34.1621 106.329 33.9168 105.987 33.5648C105.657 33.2128 105.491 32.7114 105.491 32.0608C105.491 31.5168 105.646 31.0368 105.955 30.6208C106.275 30.1941 106.734 29.8634 107.331 29.6288C107.939 29.3941 108.654 29.2768 109.475 29.2768C110.083 29.2768 110.686 29.3461 111.283 29.4848C111.891 29.6128 112.393 29.7941 112.787 30.0288L111.955 31.8048C111.198 31.3781 110.371 31.1648 109.475 31.1648C108.942 31.1648 108.542 31.2394 108.275 31.3888C108.009 31.5381 107.875 31.7301 107.875 31.9648C107.875 32.2314 108.019 32.4181 108.307 32.5248C108.595 32.6314 109.054 32.7328 109.683 32.8288C110.387 32.9461 110.963 33.0741 111.411 33.2128C111.859 33.3408 112.249 33.5808 112.579 33.9328C112.91 34.2848 113.075 34.7754 113.075 35.4048C113.075 35.9381 112.915 36.4128 112.595 36.8288C112.275 37.2448 111.806 37.5701 111.187 37.8048C110.579 38.0288 109.854 38.1408 109.011 38.1408ZM117.351 29.5968H119.559V31.5168H117.415V38.0128H114.919V31.5168H113.591V29.5968H114.919V29.2128C114.919 28.2314 115.207 27.4528 115.783 26.8768C116.37 26.3008 117.191 26.0128 118.247 26.0128C118.621 26.0128 118.973 26.0554 119.303 26.1408C119.645 26.2154 119.927 26.3274 120.151 26.4768L119.495 28.2848C119.207 28.0821 118.871 27.9808 118.487 27.9808C117.73 27.9808 117.351 28.3968 117.351 29.2288V29.5968ZM124.789 38.1408C123.883 38.1408 123.067 37.9541 122.341 37.5808C121.627 37.1968 121.067 36.6688 120.661 35.9968C120.256 35.3248 120.053 34.5621 120.053 33.7088C120.053 32.8554 120.256 32.0928 120.661 31.4208C121.067 30.7488 121.627 30.2261 122.341 29.8528C123.067 29.4688 123.883 29.2768 124.789 29.2768C125.696 29.2768 126.507 29.4688 127.221 29.8528C127.936 30.2261 128.496 30.7488 128.901 31.4208C129.307 32.0928 129.509 32.8554 129.509 33.7088C129.509 34.5621 129.307 35.3248 128.901 35.9968C128.496 36.6688 127.936 37.1968 127.221 37.5808C126.507 37.9541 125.696 38.1408 124.789 38.1408ZM124.789 36.0928C125.429 36.0928 125.952 35.8794 126.357 35.4528C126.773 35.0154 126.981 34.4341 126.981 33.7088C126.981 32.9834 126.773 32.4074 126.357 31.9808C125.952 31.5434 125.429 31.3248 124.789 31.3248C124.149 31.3248 123.621 31.5434 123.205 31.9808C122.789 32.4074 122.581 32.9834 122.581 33.7088C122.581 34.4341 122.789 35.0154 123.205 35.4528C123.621 35.8794 124.149 36.0928 124.789 36.0928ZM133.562 30.5408C133.86 30.1248 134.26 29.8101 134.762 29.5968C135.274 29.3834 135.86 29.2768 136.522 29.2768V31.5808C136.244 31.5594 136.058 31.5488 135.962 31.5488C135.247 31.5488 134.687 31.7514 134.282 32.1568C133.876 32.5514 133.674 33.1488 133.674 33.9488V38.0128H131.178V29.4048H133.562V30.5408ZM149.03 29.2768C150.107 29.2768 150.96 29.5968 151.59 30.2368C152.23 30.8661 152.55 31.8154 152.55 33.0848V38.0128H150.054V33.4688C150.054 32.7861 149.91 32.2794 149.622 31.9488C149.344 31.6074 148.944 31.4368 148.422 31.4368C147.835 31.4368 147.371 31.6288 147.03 32.0128C146.688 32.3861 146.518 32.9461 146.518 33.6928V38.0128H144.022V33.4688C144.022 32.1141 143.478 31.4368 142.39 31.4368C141.814 31.4368 141.355 31.6288 141.014 32.0128C140.672 32.3861 140.502 32.9461 140.502 33.6928V38.0128H138.006V29.4048H140.39V30.3968C140.71 30.0341 141.099 29.7568 141.558 29.5648C142.027 29.3728 142.539 29.2768 143.094 29.2768C143.702 29.2768 144.251 29.3994 144.742 29.6448C145.232 29.8794 145.627 30.2261 145.926 30.6848C146.278 30.2368 146.72 29.8901 147.254 29.6448C147.798 29.3994 148.39 29.2768 149.03 29.2768ZM158.259 29.2768C159.592 29.2768 160.616 29.5968 161.331 30.2368C162.046 30.8661 162.403 31.8208 162.403 33.1008V38.0128H160.067V36.9408C159.598 37.7408 158.723 38.1408 157.443 38.1408C156.782 38.1408 156.206 38.0288 155.715 37.8048C155.235 37.5808 154.867 37.2714 154.611 36.8768C154.355 36.4821 154.227 36.0341 154.227 35.5328C154.227 34.7328 154.526 34.1034 155.123 33.6448C155.731 33.1861 156.664 32.9568 157.923 32.9568H159.907C159.907 32.4128 159.742 31.9968 159.411 31.7088C159.08 31.4101 158.584 31.2608 157.923 31.2608C157.464 31.2608 157.011 31.3354 156.563 31.4848C156.126 31.6234 155.752 31.8154 155.443 32.0608L154.547 30.3168C155.016 29.9861 155.576 29.7301 156.227 29.5488C156.888 29.3674 157.566 29.2768 158.259 29.2768ZM158.067 36.4608C158.494 36.4608 158.872 36.3648 159.203 36.1728C159.534 35.9701 159.768 35.6768 159.907 35.2928V34.4128H158.195C157.171 34.4128 156.659 34.7488 156.659 35.4208C156.659 35.7408 156.782 35.9968 157.027 36.1888C157.283 36.3701 157.63 36.4608 158.067 36.4608ZM170.214 37.5968C169.969 37.7781 169.665 37.9168 169.302 38.0128C168.95 38.0981 168.577 38.1408 168.182 38.1408C167.158 38.1408 166.363 37.8794 165.798 37.3568C165.243 36.8341 164.966 36.0661 164.966 35.0528V31.5168H163.638V29.5968H164.966V27.5008H167.462V29.5968H169.606V31.5168H167.462V35.0208C167.462 35.3834 167.553 35.6661 167.734 35.8688C167.926 36.0608 168.193 36.1568 168.534 36.1568C168.929 36.1568 169.265 36.0501 169.542 35.8368L170.214 37.5968ZM171.615 29.4048H174.111V38.0128H171.615V29.4048ZM172.863 28.2048C172.405 28.2048 172.031 28.0714 171.743 27.8048C171.455 27.5381 171.311 27.2074 171.311 26.8128C171.311 26.4181 171.455 26.0874 171.743 25.8208C172.031 25.5541 172.405 25.4208 172.863 25.4208C173.322 25.4208 173.695 25.5488 173.983 25.8048C174.271 26.0608 174.415 26.3808 174.415 26.7648C174.415 27.1808 174.271 27.5274 173.983 27.8048C173.695 28.0714 173.322 28.2048 172.863 28.2048ZM180.524 38.1408C179.617 38.1408 178.801 37.9541 178.076 37.5808C177.361 37.1968 176.801 36.6688 176.396 35.9968C175.99 35.3248 175.788 34.5621 175.788 33.7088C175.788 32.8554 175.99 32.0928 176.396 31.4208C176.801 30.7488 177.361 30.2261 178.076 29.8528C178.801 29.4688 179.617 29.2768 180.524 29.2768C181.43 29.2768 182.241 29.4688 182.956 29.8528C183.67 30.2261 184.23 30.7488 184.636 31.4208C185.041 32.0928 185.244 32.8554 185.244 33.7088C185.244 34.5621 185.041 35.3248 184.636 35.9968C184.23 36.6688 183.67 37.1968 182.956 37.5808C182.241 37.9541 181.43 38.1408 180.524 38.1408ZM180.524 36.0928C181.164 36.0928 181.686 35.8794 182.092 35.4528C182.508 35.0154 182.716 34.4341 182.716 33.7088C182.716 32.9834 182.508 32.4074 182.092 31.9808C181.686 31.5434 181.164 31.3248 180.524 31.3248C179.884 31.3248 179.356 31.5434 178.94 31.9808C178.524 32.4074 178.316 32.9834 178.316 33.7088C178.316 34.4341 178.524 35.0154 178.94 35.4528C179.356 35.8794 179.884 36.0928 180.524 36.0928ZM192.144 29.2768C193.211 29.2768 194.069 29.5968 194.72 30.2368C195.381 30.8768 195.712 31.8261 195.712 33.0848V38.0128H193.216V33.4688C193.216 32.7861 193.067 32.2794 192.768 31.9488C192.469 31.6074 192.037 31.4368 191.472 31.4368C190.843 31.4368 190.341 31.6341 189.968 32.0288C189.595 32.4128 189.408 32.9888 189.408 33.7568V38.0128H186.912V29.4048H189.296V30.4128C189.627 30.0501 190.037 29.7728 190.528 29.5808C191.019 29.3781 191.557 29.2768 192.144 29.2768ZM70.9953 53.0678C70.438 53.0678 69.9357 52.9431 69.4883 52.6938C69.041 52.4371 68.689 52.0851 68.4323 51.6378C68.1757 51.1904 68.0473 50.6844 68.0473 50.1198C68.0473 49.5551 68.1757 49.0491 68.4323 48.6018C68.689 48.1544 69.041 47.8061 69.4883 47.5568C69.9357 47.3074 70.438 47.1828 70.9953 47.1828C71.5527 47.1828 72.055 47.3074 72.5023 47.5568C72.9497 47.8061 73.298 48.1544 73.5473 48.6018C73.804 49.0491 73.9323 49.5551 73.9323 50.1198C73.9323 50.6844 73.804 51.1904 73.5473 51.6378C73.298 52.0851 72.9497 52.4371 72.5023 52.6938C72.055 52.9431 71.5527 53.0678 70.9953 53.0678ZM70.9953 52.3748C71.406 52.3748 71.7727 52.2831 72.0953 52.0998C72.4253 51.9091 72.682 51.6414 72.8653 51.2968C73.0487 50.9521 73.1403 50.5598 73.1403 50.1198C73.1403 49.6798 73.0487 49.2874 72.8653 48.9428C72.682 48.5981 72.4253 48.3341 72.0953 48.1508C71.7727 47.9601 71.406 47.8648 70.9953 47.8648C70.5847 47.8648 70.2143 47.9601 69.8843 48.1508C69.5617 48.3341 69.305 48.5981 69.1143 48.9428C68.931 49.2874 68.8393 49.6798 68.8393 50.1198C68.8393 50.5598 68.931 50.9521 69.1143 51.2968C69.305 51.6414 69.5617 51.9091 69.8843 52.0998C70.2143 52.2831 70.5847 52.3748 70.9953 52.3748ZM77.4408 45.4558C77.1035 45.4558 76.8468 45.5474 76.6708 45.7308C76.5021 45.9141 76.4178 46.1854 76.4178 46.5448V47.2268H78.1998V47.8868H76.4398V53.0128H75.6588V47.8868H74.6248V47.2268H75.6588V46.5118C75.6588 45.9838 75.8091 45.5658 76.1098 45.2578C76.4178 44.9498 76.8505 44.7958 77.4078 44.7958C77.6278 44.7958 77.8405 44.8288 78.0458 44.8948C78.2511 44.9534 78.4235 45.0414 78.5628 45.1588L78.2988 45.7418C78.0715 45.5511 77.7855 45.4558 77.4408 45.4558ZM88.7333 45.3128V53.0128H87.9303V49.4598H83.1123V53.0128H82.2983V45.3128H83.1123V48.7448H87.9303V45.3128H88.7333ZM93.4465 53.0678C92.8892 53.0678 92.3868 52.9431 91.9395 52.6938C91.4922 52.4371 91.1402 52.0851 90.8835 51.6378C90.6268 51.1904 90.4985 50.6844 90.4985 50.1198C90.4985 49.5551 90.6268 49.0491 90.8835 48.6018C91.1402 48.1544 91.4922 47.8061 91.9395 47.5568C92.3868 47.3074 92.8892 47.1828 93.4465 47.1828C94.0038 47.1828 94.5062 47.3074 94.9535 47.5568C95.4008 47.8061 95.7492 48.1544 95.9985 48.6018C96.2552 49.0491 96.3835 49.5551 96.3835 50.1198C96.3835 50.6844 96.2552 51.1904 95.9985 51.6378C95.7492 52.0851 95.4008 52.4371 94.9535 52.6938C94.5062 52.9431 94.0038 53.0678 93.4465 53.0678ZM93.4465 52.3748C93.8572 52.3748 94.2238 52.2831 94.5465 52.0998C94.8765 51.9091 95.1332 51.6414 95.3165 51.2968C95.4998 50.9521 95.5915 50.5598 95.5915 50.1198C95.5915 49.6798 95.4998 49.2874 95.3165 48.9428C95.1332 48.5981 94.8765 48.3341 94.5465 48.1508C94.2238 47.9601 93.8572 47.8648 93.4465 47.8648C93.0358 47.8648 92.6655 47.9601 92.3355 48.1508C92.0128 48.3341 91.7562 48.5981 91.5655 48.9428C91.3822 49.2874 91.2905 49.6798 91.2905 50.1198C91.2905 50.5598 91.3822 50.9521 91.5655 51.2968C91.7562 51.6414 92.0128 51.9091 92.3355 52.0998C92.6655 52.2831 93.0358 52.3748 93.4465 52.3748ZM99.529 53.0678C99.0596 53.0678 98.6086 53.0018 98.176 52.8698C97.7506 52.7304 97.417 52.5581 97.175 52.3528L97.527 51.7368C97.769 51.9274 98.0733 52.0851 98.44 52.2098C98.8066 52.3271 99.188 52.3858 99.584 52.3858C100.112 52.3858 100.501 52.3051 100.75 52.1438C101.007 51.9751 101.135 51.7404 101.135 51.4398C101.135 51.2271 101.065 51.0621 100.926 50.9448C100.787 50.8201 100.611 50.7284 100.398 50.6698C100.185 50.6038 99.903 50.5414 99.551 50.4828C99.0816 50.3948 98.704 50.3068 98.418 50.2188C98.132 50.1234 97.8863 49.9658 97.681 49.7458C97.483 49.5258 97.384 49.2214 97.384 48.8328C97.384 48.3488 97.5856 47.9528 97.989 47.6448C98.3923 47.3368 98.9533 47.1828 99.672 47.1828C100.046 47.1828 100.42 47.2341 100.794 47.3368C101.168 47.4321 101.476 47.5604 101.718 47.7218L101.377 48.3488C100.9 48.0188 100.332 47.8538 99.672 47.8538C99.1733 47.8538 98.7956 47.9418 98.539 48.1178C98.2896 48.2938 98.165 48.5248 98.165 48.8108C98.165 49.0308 98.2346 49.2068 98.374 49.3388C98.5206 49.4708 98.7003 49.5698 98.913 49.6358C99.1256 49.6944 99.419 49.7568 99.793 49.8228C100.255 49.9108 100.625 49.9988 100.904 50.0868C101.183 50.1748 101.421 50.3251 101.619 50.5378C101.817 50.7504 101.916 51.0438 101.916 51.4178C101.916 51.9238 101.703 52.3271 101.278 52.6278C100.86 52.9211 100.277 53.0678 99.529 53.0678ZM106.341 47.1828C106.883 47.1828 107.375 47.3074 107.815 47.5568C108.255 47.7988 108.599 48.1434 108.849 48.5908C109.098 49.0381 109.223 49.5478 109.223 50.1198C109.223 50.6991 109.098 51.2124 108.849 51.6598C108.599 52.1071 108.255 52.4554 107.815 52.7048C107.382 52.9468 106.891 53.0678 106.341 53.0678C105.871 53.0678 105.446 52.9724 105.065 52.7818C104.691 52.5838 104.383 52.2978 104.141 51.9238V55.1468H103.36V47.2268H104.108V48.3708C104.342 47.9894 104.65 47.6961 105.032 47.4908C105.42 47.2854 105.857 47.1828 106.341 47.1828ZM106.286 52.3748C106.689 52.3748 107.056 52.2831 107.386 52.0998C107.716 51.9091 107.972 51.6414 108.156 51.2968C108.346 50.9521 108.442 50.5598 108.442 50.1198C108.442 49.6798 108.346 49.2911 108.156 48.9538C107.972 48.6091 107.716 48.3414 107.386 48.1508C107.056 47.9601 106.689 47.8648 106.286 47.8648C105.875 47.8648 105.505 47.9601 105.175 48.1508C104.852 48.3414 104.595 48.6091 104.405 48.9538C104.221 49.2911 104.13 49.6798 104.13 50.1198C104.13 50.5598 104.221 50.9521 104.405 51.2968C104.595 51.6414 104.852 51.9091 105.175 52.0998C105.505 52.2831 105.875 52.3748 106.286 52.3748ZM110.815 47.2268H111.596V53.0128H110.815V47.2268ZM111.211 45.9618C111.05 45.9618 110.914 45.9068 110.804 45.7968C110.694 45.6868 110.639 45.5548 110.639 45.4008C110.639 45.2541 110.694 45.1258 110.804 45.0158C110.914 44.9058 111.05 44.8508 111.211 44.8508C111.372 44.8508 111.508 44.9058 111.618 45.0158C111.728 45.1184 111.783 45.2431 111.783 45.3898C111.783 45.5511 111.728 45.6868 111.618 45.7968C111.508 45.9068 111.372 45.9618 111.211 45.9618ZM116.816 52.6608C116.669 52.7928 116.486 52.8954 116.266 52.9688C116.053 53.0348 115.83 53.0678 115.595 53.0678C115.052 53.0678 114.634 52.9211 114.341 52.6278C114.048 52.3344 113.901 51.9201 113.901 51.3848V47.8868H112.867V47.2268H113.901V45.9618H114.682V47.2268H116.442V47.8868H114.682V51.3408C114.682 51.6854 114.766 51.9494 114.935 52.1328C115.111 52.3088 115.36 52.3968 115.683 52.3968C115.844 52.3968 115.998 52.3711 116.145 52.3198C116.299 52.2684 116.431 52.1951 116.541 52.0998L116.816 52.6608ZM120.262 47.1828C121.017 47.1828 121.596 47.3734 122 47.7548C122.403 48.1288 122.605 48.6861 122.605 49.4268V53.0128H121.857V52.1108C121.681 52.4114 121.42 52.6461 121.076 52.8148C120.738 52.9834 120.335 53.0678 119.866 53.0678C119.22 53.0678 118.707 52.9138 118.326 52.6058C117.944 52.2978 117.754 51.8908 117.754 51.3848C117.754 50.8934 117.93 50.4974 118.282 50.1968C118.641 49.8961 119.209 49.7458 119.987 49.7458H121.824V49.3938C121.824 48.8951 121.684 48.5174 121.406 48.2608C121.127 47.9968 120.72 47.8648 120.185 47.8648C119.818 47.8648 119.466 47.9271 119.129 48.0518C118.791 48.1691 118.502 48.3341 118.26 48.5468L117.908 47.9638C118.201 47.7144 118.553 47.5238 118.964 47.3918C119.374 47.2524 119.807 47.1828 120.262 47.1828ZM119.987 52.4518C120.427 52.4518 120.804 52.3528 121.12 52.1548C121.435 51.9494 121.67 51.6561 121.824 51.2748V50.3288H120.009C119.019 50.3288 118.524 50.6734 118.524 51.3628C118.524 51.7001 118.652 51.9678 118.909 52.1658C119.165 52.3564 119.525 52.4518 119.987 52.4518ZM124.726 44.8508H125.507V53.0128H124.726V44.8508ZM138.721 45.3128V53.0128H137.94V46.8528L134.915 52.0338H134.53L131.505 46.8858V53.0128H130.724V45.3128H131.395L134.739 51.0218L138.05 45.3128H138.721ZM143.089 47.1828C143.844 47.1828 144.424 47.3734 144.827 47.7548C145.23 48.1288 145.432 48.6861 145.432 49.4268V53.0128H144.684V52.1108C144.508 52.4114 144.248 52.6461 143.903 52.8148C143.566 52.9834 143.162 53.0678 142.693 53.0678C142.048 53.0678 141.534 52.9138 141.153 52.6058C140.772 52.2978 140.581 51.8908 140.581 51.3848C140.581 50.8934 140.757 50.4974 141.109 50.1968C141.468 49.8961 142.037 49.7458 142.814 49.7458H144.651V49.3938C144.651 48.8951 144.512 48.5174 144.233 48.2608C143.954 47.9968 143.547 47.8648 143.012 47.8648C142.645 47.8648 142.293 47.9271 141.956 48.0518C141.619 48.1691 141.329 48.3341 141.087 48.5468L140.735 47.9638C141.028 47.7144 141.38 47.5238 141.791 47.3918C142.202 47.2524 142.634 47.1828 143.089 47.1828ZM142.814 52.4518C143.254 52.4518 143.632 52.3528 143.947 52.1548C144.262 51.9494 144.497 51.6561 144.651 51.2748V50.3288H142.836C141.846 50.3288 141.351 50.6734 141.351 51.3628C141.351 51.7001 141.479 51.9678 141.736 52.1658C141.993 52.3564 142.352 52.4518 142.814 52.4518ZM150.501 47.1828C151.227 47.1828 151.803 47.3954 152.228 47.8208C152.661 48.2388 152.877 48.8511 152.877 49.6578V53.0128H152.096V49.7348C152.096 49.1334 151.946 48.6751 151.645 48.3598C151.345 48.0444 150.916 47.8868 150.358 47.8868C149.735 47.8868 149.24 48.0738 148.873 48.4478C148.514 48.8144 148.334 49.3241 148.334 49.9768V53.0128H147.553V47.2268H148.301V48.2938C148.514 47.9418 148.807 47.6704 149.181 47.4798C149.563 47.2818 150.003 47.1828 150.501 47.1828ZM157.022 47.1828C157.777 47.1828 158.356 47.3734 158.76 47.7548C159.163 48.1288 159.365 48.6861 159.365 49.4268V53.0128H158.617V52.1108C158.441 52.4114 158.18 52.6461 157.836 52.8148C157.498 52.9834 157.095 53.0678 156.626 53.0678C155.98 53.0678 155.467 52.9138 155.086 52.6058C154.704 52.2978 154.514 51.8908 154.514 51.3848C154.514 50.8934 154.69 50.4974 155.042 50.1968C155.401 49.8961 155.969 49.7458 156.747 49.7458H158.584V49.3938C158.584 48.8951 158.444 48.5174 158.166 48.2608C157.887 47.9968 157.48 47.8648 156.945 47.8648C156.578 47.8648 156.226 47.9271 155.889 48.0518C155.551 48.1691 155.262 48.3341 155.02 48.5468L154.668 47.9638C154.961 47.7144 155.313 47.5238 155.724 47.3918C156.134 47.2524 156.567 47.1828 157.022 47.1828ZM156.747 52.4518C157.187 52.4518 157.564 52.3528 157.88 52.1548C158.195 51.9494 158.43 51.6561 158.584 51.2748V50.3288H156.769C155.779 50.3288 155.284 50.6734 155.284 51.3628C155.284 51.7001 155.412 51.9678 155.669 52.1658C155.925 52.3564 156.285 52.4518 156.747 52.4518ZM166.864 47.2268V52.3088C166.864 53.2914 166.622 54.0174 166.138 54.4868C165.662 54.9634 164.939 55.2018 163.971 55.2018C163.436 55.2018 162.926 55.1211 162.442 54.9598C161.966 54.8058 161.577 54.5894 161.276 54.3108L161.672 53.7168C161.951 53.9661 162.288 54.1604 162.684 54.2998C163.088 54.4391 163.509 54.5088 163.949 54.5088C164.683 54.5088 165.222 54.3364 165.566 53.9918C165.911 53.6544 166.083 53.1264 166.083 52.4078V51.6708C165.841 52.0374 165.522 52.3161 165.126 52.5068C164.738 52.6974 164.305 52.7928 163.828 52.7928C163.286 52.7928 162.791 52.6754 162.343 52.4408C161.903 52.1988 161.555 51.8651 161.298 51.4398C161.049 51.0071 160.924 50.5194 160.924 49.9768C160.924 49.4341 161.049 48.9501 161.298 48.5248C161.555 48.0994 161.903 47.7694 162.343 47.5348C162.783 47.3001 163.278 47.1828 163.828 47.1828C164.32 47.1828 164.763 47.2818 165.159 47.4798C165.555 47.6778 165.874 47.9638 166.116 48.3378V47.2268H166.864ZM163.905 52.0998C164.323 52.0998 164.701 52.0118 165.038 51.8358C165.376 51.6524 165.636 51.3994 165.819 51.0768C166.01 50.7541 166.105 50.3874 166.105 49.9768C166.105 49.5661 166.01 49.2031 165.819 48.8878C165.636 48.5651 165.376 48.3158 165.038 48.1398C164.708 47.9564 164.331 47.8648 163.905 47.8648C163.487 47.8648 163.11 47.9528 162.772 48.1288C162.442 48.3048 162.182 48.5541 161.991 48.8768C161.808 49.1994 161.716 49.5661 161.716 49.9768C161.716 50.3874 161.808 50.7541 161.991 51.0768C162.182 51.3994 162.442 51.6524 162.772 51.8358C163.11 52.0118 163.487 52.0998 163.905 52.0998ZM174.086 50.3618H169.246C169.29 50.9631 169.521 51.4508 169.939 51.8248C170.357 52.1914 170.885 52.3748 171.523 52.3748C171.883 52.3748 172.213 52.3124 172.513 52.1878C172.814 52.0558 173.074 51.8651 173.294 51.6158L173.734 52.1218C173.478 52.4298 173.155 52.6644 172.766 52.8258C172.385 52.9871 171.963 53.0678 171.501 53.0678C170.907 53.0678 170.379 52.9431 169.917 52.6938C169.463 52.4371 169.107 52.0851 168.85 51.6378C168.594 51.1904 168.465 50.6844 168.465 50.1198C168.465 49.5551 168.586 49.0491 168.828 48.6018C169.078 48.1544 169.415 47.8061 169.84 47.5568C170.273 47.3074 170.757 47.1828 171.292 47.1828C171.828 47.1828 172.308 47.3074 172.733 47.5568C173.159 47.8061 173.492 48.1544 173.734 48.6018C173.976 49.0418 174.097 49.5478 174.097 50.1198L174.086 50.3618ZM171.292 47.8538C170.735 47.8538 170.266 48.0334 169.884 48.3928C169.51 48.7448 169.298 49.2068 169.246 49.7788H173.349C173.298 49.2068 173.082 48.7448 172.7 48.3928C172.326 48.0334 171.857 47.8538 171.292 47.8538ZM182.903 47.1828C183.629 47.1828 184.197 47.3918 184.608 47.8098C185.026 48.2278 185.235 48.8438 185.235 49.6578V53.0128H184.454V49.7348C184.454 49.1334 184.307 48.6751 184.014 48.3598C183.728 48.0444 183.321 47.8868 182.793 47.8868C182.192 47.8868 181.719 48.0738 181.374 48.4478C181.029 48.8144 180.857 49.3241 180.857 49.9768V53.0128H180.076V49.7348C180.076 49.1334 179.929 48.6751 179.636 48.3598C179.35 48.0444 178.939 47.8868 178.404 47.8868C177.81 47.8868 177.337 48.0738 176.985 48.4478C176.64 48.8144 176.468 49.3241 176.468 49.9768V53.0128H175.687V47.2268H176.435V48.2828C176.64 47.9308 176.926 47.6594 177.293 47.4688C177.66 47.2781 178.081 47.1828 178.558 47.1828C179.042 47.1828 179.46 47.2854 179.812 47.4908C180.171 47.6961 180.439 48.0004 180.615 48.4038C180.828 48.0224 181.132 47.7254 181.528 47.5128C181.931 47.2928 182.39 47.1828 182.903 47.1828ZM192.412 50.3618H187.572C187.616 50.9631 187.847 51.4508 188.265 51.8248C188.683 52.1914 189.211 52.3748 189.849 52.3748C190.209 52.3748 190.539 52.3124 190.839 52.1878C191.14 52.0558 191.4 51.8651 191.62 51.6158L192.06 52.1218C191.804 52.4298 191.481 52.6644 191.092 52.8258C190.711 52.9871 190.289 53.0678 189.827 53.0678C189.233 53.0678 188.705 52.9431 188.243 52.6938C187.789 52.4371 187.433 52.0851 187.176 51.6378C186.92 51.1904 186.791 50.6844 186.791 50.1198C186.791 49.5551 186.912 49.0491 187.154 48.6018C187.404 48.1544 187.741 47.8061 188.166 47.5568C188.599 47.3074 189.083 47.1828 189.618 47.1828C190.154 47.1828 190.634 47.3074 191.059 47.5568C191.485 47.8061 191.818 48.1544 192.06 48.6018C192.302 49.0418 192.423 49.5478 192.423 50.1198L192.412 50.3618ZM189.618 47.8538C189.061 47.8538 188.592 48.0334 188.21 48.3928C187.836 48.7448 187.624 49.2068 187.572 49.7788H191.675C191.624 49.2068 191.408 48.7448 191.026 48.3928C190.652 48.0334 190.183 47.8538 189.618 47.8538ZM196.961 47.1828C197.687 47.1828 198.263 47.3954 198.688 47.8208C199.121 48.2388 199.337 48.8511 199.337 49.6578V53.0128H198.556V49.7348C198.556 49.1334 198.406 48.6751 198.105 48.3598C197.804 48.0444 197.375 47.8868 196.818 47.8868C196.195 47.8868 195.7 48.0738 195.333 48.4478C194.974 48.8144 194.794 49.3241 194.794 49.9768V53.0128H194.013V47.2268H194.761V48.2938C194.974 47.9418 195.267 47.6704 195.641 47.4798C196.022 47.2818 196.462 47.1828 196.961 47.1828ZM204.504 52.6608C204.358 52.7928 204.174 52.8954 203.954 52.9688C203.742 53.0348 203.518 53.0678 203.283 53.0678C202.741 53.0678 202.323 52.9211 202.029 52.6278C201.736 52.3344 201.589 51.9201 201.589 51.3848V47.8868H200.555V47.2268H201.589V45.9618H202.37V47.2268H204.13V47.8868H202.37V51.3408C202.37 51.6854 202.455 51.9494 202.623 52.1328C202.799 52.3088 203.049 52.3968 203.371 52.3968C203.533 52.3968 203.687 52.3711 203.833 52.3198C203.987 52.2684 204.119 52.1951 204.229 52.0998L204.504 52.6608ZM211.093 53.0788C210.521 53.0788 209.971 52.9871 209.443 52.8038C208.922 52.6204 208.519 52.3784 208.233 52.0778L208.552 51.4508C208.831 51.7294 209.201 51.9568 209.663 52.1328C210.125 52.3014 210.602 52.3858 211.093 52.3858C211.782 52.3858 212.299 52.2611 212.644 52.0118C212.989 51.7551 213.161 51.4251 213.161 51.0218C213.161 50.7138 213.066 50.4681 212.875 50.2848C212.692 50.1014 212.464 49.9621 212.193 49.8668C211.922 49.7641 211.544 49.6541 211.06 49.5368C210.481 49.3901 210.019 49.2508 209.674 49.1188C209.329 48.9794 209.032 48.7704 208.783 48.4918C208.541 48.2131 208.42 47.8354 208.42 47.3588C208.42 46.9701 208.523 46.6181 208.728 46.3028C208.933 45.9801 209.249 45.7234 209.674 45.5328C210.099 45.3421 210.627 45.2468 211.258 45.2468C211.698 45.2468 212.127 45.3091 212.545 45.4338C212.97 45.5511 213.337 45.7161 213.645 45.9288L213.37 46.5778C213.047 46.3651 212.703 46.2074 212.336 46.1048C211.969 45.9948 211.61 45.9398 211.258 45.9398C210.583 45.9398 210.074 46.0718 209.729 46.3358C209.392 46.5924 209.223 46.9261 209.223 47.3368C209.223 47.6448 209.315 47.8941 209.498 48.0848C209.689 48.2681 209.923 48.4111 210.202 48.5138C210.488 48.6091 210.869 48.7154 211.346 48.8328C211.911 48.9721 212.365 49.1114 212.71 49.2508C213.062 49.3828 213.359 49.5881 213.601 49.8668C213.843 50.1381 213.964 50.5084 213.964 50.9778C213.964 51.3664 213.858 51.7221 213.645 52.0448C213.44 52.3601 213.121 52.6131 212.688 52.8038C212.255 52.9871 211.724 53.0788 211.093 53.0788ZM220.327 47.2268L217.434 53.7058C217.2 54.2484 216.928 54.6334 216.62 54.8608C216.312 55.0881 215.942 55.2018 215.509 55.2018C215.231 55.2018 214.97 55.1578 214.728 55.0698C214.486 54.9818 214.277 54.8498 214.101 54.6738L214.464 54.0908C214.758 54.3841 215.11 54.5308 215.52 54.5308C215.784 54.5308 216.008 54.4574 216.191 54.3108C216.382 54.1641 216.558 53.9148 216.719 53.5628L216.972 53.0018L214.387 47.2268H215.201L217.379 52.1438L219.557 47.2268H220.327ZM222.914 53.0678C222.444 53.0678 221.993 53.0018 221.561 52.8698C221.135 52.7304 220.802 52.5581 220.56 52.3528L220.912 51.7368C221.154 51.9274 221.458 52.0851 221.825 52.2098C222.191 52.3271 222.573 52.3858 222.969 52.3858C223.497 52.3858 223.885 52.3051 224.135 52.1438C224.391 51.9751 224.52 51.7404 224.52 51.4398C224.52 51.2271 224.45 51.0621 224.311 50.9448C224.171 50.8201 223.995 50.7284 223.783 50.6698C223.57 50.6038 223.288 50.5414 222.936 50.4828C222.466 50.3948 222.089 50.3068 221.803 50.2188C221.517 50.1234 221.271 49.9658 221.066 49.7458C220.868 49.5258 220.769 49.2214 220.769 48.8328C220.769 48.3488 220.97 47.9528 221.374 47.6448C221.777 47.3368 222.338 47.1828 223.057 47.1828C223.431 47.1828 223.805 47.2341 224.179 47.3368C224.553 47.4321 224.861 47.5604 225.103 47.7218L224.762 48.3488C224.285 48.0188 223.717 47.8538 223.057 47.8538C222.558 47.8538 222.18 47.9418 221.924 48.1178C221.674 48.2938 221.55 48.5248 221.55 48.8108C221.55 49.0308 221.619 49.2068 221.759 49.3388C221.905 49.4708 222.085 49.5698 222.298 49.6358C222.51 49.6944 222.804 49.7568 223.178 49.8228C223.64 49.9108 224.01 49.9988 224.289 50.0868C224.567 50.1748 224.806 50.3251 225.004 50.5378C225.202 50.7504 225.301 51.0438 225.301 51.4178C225.301 51.9238 225.088 52.3271 224.663 52.6278C224.245 52.9211 223.662 53.0678 222.914 53.0678ZM229.792 52.6608C229.645 52.7928 229.462 52.8954 229.242 52.9688C229.029 53.0348 228.805 53.0678 228.571 53.0678C228.028 53.0678 227.61 52.9211 227.317 52.6278C227.023 52.3344 226.877 51.9201 226.877 51.3848V47.8868H225.843V47.2268H226.877V45.9618H227.658V47.2268H229.418V47.8868H227.658V51.3408C227.658 51.6854 227.742 51.9494 227.911 52.1328C228.087 52.3088 228.336 52.3968 228.659 52.3968C228.82 52.3968 228.974 52.3711 229.121 52.3198C229.275 52.2684 229.407 52.1951 229.517 52.0998L229.792 52.6608ZM236.047 50.3618H231.207C231.251 50.9631 231.482 51.4508 231.9 51.8248C232.318 52.1914 232.846 52.3748 233.484 52.3748C233.844 52.3748 234.174 52.3124 234.474 52.1878C234.775 52.0558 235.035 51.8651 235.255 51.6158L235.695 52.1218C235.439 52.4298 235.116 52.6644 234.727 52.8258C234.346 52.9871 233.924 53.0678 233.462 53.0678C232.868 53.0678 232.34 52.9431 231.878 52.6938C231.424 52.4371 231.068 52.0851 230.811 51.6378C230.555 51.1904 230.426 50.6844 230.426 50.1198C230.426 49.5551 230.547 49.0491 230.789 48.6018C231.039 48.1544 231.376 47.8061 231.801 47.5568C232.234 47.3074 232.718 47.1828 233.253 47.1828C233.789 47.1828 234.269 47.3074 234.694 47.5568C235.12 47.8061 235.453 48.1544 235.695 48.6018C235.937 49.0418 236.058 49.5478 236.058 50.1198L236.047 50.3618ZM233.253 47.8538C232.696 47.8538 232.227 48.0334 231.845 48.3928C231.471 48.7448 231.259 49.2068 231.207 49.7788H235.31C235.259 49.2068 235.043 48.7448 234.661 48.3928C234.287 48.0334 233.818 47.8538 233.253 47.8538ZM244.864 47.1828C245.59 47.1828 246.158 47.3918 246.569 47.8098C246.987 48.2278 247.196 48.8438 247.196 49.6578V53.0128H246.415V49.7348C246.415 49.1334 246.268 48.6751 245.975 48.3598C245.689 48.0444 245.282 47.8868 244.754 47.8868C244.153 47.8868 243.68 48.0738 243.335 48.4478C242.99 48.8144 242.818 49.3241 242.818 49.9768V53.0128H242.037V49.7348C242.037 49.1334 241.89 48.6751 241.597 48.3598C241.311 48.0444 240.9 47.8868 240.365 47.8868C239.771 47.8868 239.298 48.0738 238.946 48.4478C238.601 48.8144 238.429 49.3241 238.429 49.9768V53.0128H237.648V47.2268H238.396V48.2828C238.601 47.9308 238.887 47.6594 239.254 47.4688C239.621 47.2781 240.042 47.1828 240.519 47.1828C241.003 47.1828 241.421 47.2854 241.773 47.4908C242.132 47.6961 242.4 48.0004 242.576 48.4038C242.789 48.0224 243.093 47.7254 243.489 47.5128C243.892 47.2928 244.351 47.1828 244.864 47.1828Z" fill="white"/>
</svg>
