<svg width="1440" height="1025" viewBox="0 0 1440 1025" fill="none" xmlns="http://www.w3.org/2000/svg">
<rect y="0.176025" width="1440" height="1024" fill="#0D6EFD"/>
<path d="M1324.5 729.236C1323.85 729.027 1323.29 728.572 1322.95 727.915C1318.32 718.9 1307.23 715.329 1298.21 719.948C1296.91 720.615 1295.3 720.098 1294.64 718.796C1293.97 717.495 1294.48 715.888 1295.79 715.221C1307.41 709.258 1321.72 713.863 1327.68 725.491C1328.35 726.792 1327.83 728.399 1326.53 729.066C1325.87 729.403 1325.14 729.442 1324.5 729.236Z" fill="white" fill-opacity="0.2"/>
<path d="M1315.45 733.868C1314.8 733.658 1314.24 733.203 1313.91 732.546C1312.91 730.6 1311.2 729.153 1309.12 728.482C1307.03 727.811 1304.8 727.989 1302.85 728.988C1301.55 729.655 1299.95 729.138 1299.28 727.836C1298.61 726.534 1299.13 724.928 1300.43 724.261C1303.64 722.614 1307.3 722.316 1310.74 723.425C1314.19 724.533 1316.99 726.912 1318.63 730.132C1319.3 731.433 1318.78 733.04 1317.48 733.707C1316.83 734.038 1316.1 734.077 1315.45 733.868Z" fill="white" fill-opacity="0.2"/>
<path d="M1305.51 739.677C1307.38 740.277 1309.37 739.253 1309.97 737.389C1310.57 735.525 1309.55 733.528 1307.68 732.927C1305.82 732.327 1303.82 733.352 1303.22 735.216C1302.62 737.079 1303.65 739.077 1305.51 739.677Z" fill="white" fill-opacity="0.2"/>
<path d="M1333.69 724.524C1333.04 724.315 1332.48 723.86 1332.14 723.203C1324.91 709.12 1307.59 703.542 1293.51 710.762C1292.21 711.43 1290.6 710.913 1289.93 709.611C1289.26 708.309 1289.78 706.703 1291.08 706.036C1299.17 701.887 1308.38 701.139 1317.03 703.925C1325.69 706.711 1332.73 712.693 1336.88 720.781C1337.55 722.083 1337.03 723.689 1335.73 724.357C1335.06 724.691 1334.33 724.73 1333.69 724.524Z" fill="white" fill-opacity="0.2"/>
<path d="M108.633 507.658C107.862 504.963 104.131 497.146 94.8894 497.146C86.226 497.146 82.3933 504.25 81.5428 506.472C80.1141 505.965 78.6172 505.712 77.0864 505.712C69.5457 505.712 63.3997 511.998 63.3997 519.713C63.3997 527.427 69.5457 533.714 77.0977 533.714H84.3097C85.591 533.714 86.6229 532.654 86.6229 531.353C86.6229 530.052 85.591 528.993 84.3097 528.993H77.0977C72.097 528.993 68.0262 524.837 68.0262 519.724C68.0262 514.612 72.097 510.456 77.0977 510.456C78.776 510.456 80.4089 510.928 81.8377 511.826C83.6746 512.966 85.0467 511.872 85.3302 510.191C86.1467 505.389 90.1155 501.889 94.9007 501.889C99.6746 501.889 103.7 505.378 104.471 510.191C104.641 511.285 105.537 512.102 106.614 512.171C110.957 512.436 114.359 516.132 114.359 520.588C114.359 525.24 110.663 529.016 106.115 529.016H99.017C97.7356 529.016 96.7037 530.075 96.7037 531.376C96.7037 532.678 97.7356 533.737 99.017 533.737H106.115C113.214 533.737 118.986 527.842 118.986 520.588C118.963 514.221 114.552 508.878 108.633 507.658V507.658Z" fill="white" fill-opacity="0.2"/>
<path d="M84.167 524.341C85.1309 525.057 86.5824 524.97 87.4101 524.148L88.8956 522.687L88.8956 545.527C88.8956 546.62 89.9275 547.501 91.1975 547.501C92.4675 547.501 93.4994 546.62 93.4994 545.527L93.4994 522.697L94.9736 524.148C95.8127 524.97 97.2641 525.057 98.2167 524.341C99.1692 523.625 99.2712 522.377 98.4435 521.555L92.9325 516.118C92.4902 515.683 91.8666 515.441 91.1975 515.441C90.5285 515.441 89.9048 515.693 89.4626 516.118L83.9516 521.555C83.1125 522.377 83.2145 523.625 84.167 524.341Z" fill="white" fill-opacity="0.2"/>
<g clip-path="url(#clip0_29_303)">
<path d="M367.358 590.449C369.598 588.252 377.551 582.702 386.549 587.809C394.985 592.597 394.79 601.632 394.39 604.266C396.061 604.562 397.658 605.143 399.149 605.989C406.491 610.157 409.001 619.674 404.737 627.185C400.474 634.696 391.015 637.42 383.662 633.247L376.64 629.261C375.393 628.553 374.973 626.951 375.692 625.684C376.411 624.417 378.002 623.956 379.249 624.665L386.271 628.65C391.14 631.414 397.401 629.617 400.226 624.64C403.051 619.662 401.385 613.365 396.516 610.601C394.882 609.674 393.031 609.231 391.144 609.316C388.725 609.41 387.994 607.587 388.647 605.794C390.506 600.668 388.576 595.066 383.917 592.422C379.269 589.783 373.421 590.955 370.01 595.215C369.24 596.186 367.916 596.487 366.829 595.959C362.454 593.816 357.099 595.535 354.637 599.873C352.066 604.402 353.578 610.123 358.005 612.636L364.917 616.559C366.164 617.267 366.584 618.869 365.865 620.135C365.145 621.402 363.555 621.863 362.308 621.155L355.396 617.232C348.485 613.309 346.123 604.379 350.132 597.316C353.673 591.13 360.921 588.366 367.358 590.449V590.449Z" fill="white" fill-opacity="0.2"/>
<path d="M357.911 630.547C359.32 630.25 360.676 631.153 360.941 632.564L361.427 635.077L376.451 608.609C377.17 607.343 378.754 606.893 379.99 607.595C381.227 608.297 381.652 609.887 380.933 611.154L365.916 637.611L368.305 636.744C369.663 636.255 371.134 636.956 371.59 638.312C372.047 639.668 371.325 641.17 369.978 641.666L361.036 644.92C360.319 645.18 359.553 645.116 358.902 644.746C358.25 644.376 357.809 643.74 357.658 643.003L355.868 633.657C355.592 632.24 356.513 630.85 357.911 630.547Z" fill="white" fill-opacity="0.2"/>
</g>
<path d="M1274.69 290.248C1276.93 288.051 1284.88 282.501 1293.88 287.608C1302.31 292.396 1302.12 301.431 1301.72 304.065C1303.39 304.361 1304.99 304.942 1306.48 305.788C1313.82 309.956 1316.33 319.473 1312.06 326.984C1307.8 334.495 1298.34 337.22 1290.99 333.046L1283.97 329.06C1282.72 328.352 1282.3 326.75 1283.02 325.483C1283.74 324.217 1285.33 323.755 1286.58 324.464L1293.6 328.449C1298.47 331.213 1304.73 329.416 1307.55 324.439C1310.38 319.461 1308.71 313.164 1303.84 310.401C1302.21 309.473 1300.36 309.03 1298.47 309.115C1296.05 309.21 1295.32 307.386 1295.97 305.593C1297.83 300.467 1295.9 294.865 1291.24 292.221C1286.6 289.582 1280.75 290.754 1277.34 295.014C1276.57 295.985 1275.24 296.286 1274.16 295.758C1269.78 293.616 1264.43 295.334 1261.96 299.672C1259.39 304.201 1260.91 309.922 1265.33 312.435L1272.24 316.358C1273.49 317.066 1273.91 318.668 1273.19 319.934C1272.47 321.201 1270.88 321.662 1269.64 320.954L1262.72 317.031C1255.81 313.108 1253.45 304.178 1257.46 297.116C1261 290.929 1268.25 288.165 1274.69 290.248V290.248Z" fill="white" fill-opacity="0.2"/>
<path d="M1265.24 330.346C1266.65 330.049 1268 330.952 1268.27 332.363L1268.75 334.876L1283.78 308.408C1284.5 307.142 1286.08 306.692 1287.32 307.394C1288.55 308.095 1288.98 309.686 1288.26 310.953L1273.24 337.41L1275.63 336.543C1276.99 336.054 1278.46 336.755 1278.92 338.111C1279.37 339.467 1278.65 340.969 1277.31 341.465L1268.36 344.719C1267.65 344.979 1266.88 344.915 1266.23 344.545C1265.58 344.175 1265.14 343.539 1264.99 342.802L1263.2 333.456C1262.92 332.039 1263.84 330.649 1265.24 330.346Z" fill="white" fill-opacity="0.2"/>
<path d="M257.835 284.457C260.51 281.834 270.005 275.207 280.747 281.305C290.818 287.022 290.586 297.808 290.108 300.953C292.103 301.307 294.01 302 295.79 303.01C304.555 307.985 307.552 319.348 302.461 328.316C297.371 337.283 286.079 340.536 277.3 335.553L268.917 330.794C267.427 329.948 266.927 328.036 267.785 326.524C268.644 325.011 270.542 324.461 272.032 325.306L280.415 330.065C286.228 333.365 293.703 331.219 297.076 325.277C300.449 319.334 298.459 311.816 292.647 308.517C290.696 307.409 288.486 306.881 286.233 306.982C283.345 307.095 282.472 304.918 283.252 302.777C285.471 296.657 283.167 289.969 277.604 286.812C272.055 283.662 265.074 285.061 261.002 290.147C260.082 291.306 258.501 291.666 257.204 291.035C251.98 288.477 245.587 290.529 242.647 295.709C239.578 301.116 241.383 307.945 246.669 310.945L254.92 315.629C256.41 316.474 256.91 318.387 256.052 319.899C255.193 321.411 253.295 321.962 251.806 321.116L243.554 316.433C235.303 311.749 232.483 301.088 237.269 292.656C241.497 285.269 250.15 281.97 257.835 284.457V284.457Z" fill="white" fill-opacity="0.2"/>
<path d="M246.556 332.329C248.239 331.975 249.858 333.053 250.174 334.737L250.754 337.738L268.691 306.138C269.549 304.626 271.44 304.089 272.916 304.927C274.393 305.765 274.901 307.664 274.042 309.176L256.113 340.762L258.966 339.727C260.587 339.144 262.343 339.981 262.888 341.6C263.433 343.219 262.571 345.012 260.963 345.604L250.288 349.49C249.432 349.8 248.517 349.723 247.739 349.282C246.962 348.84 246.434 348.081 246.254 347.2L244.118 336.042C243.788 334.351 244.887 332.691 246.556 332.329Z" fill="white" fill-opacity="0.2"/>
<path d="M464.224 452.285C464.224 450.643 462.893 449.312 461.251 449.312C459.61 449.312 458.279 450.643 458.279 452.285V496.667C458.279 498.309 459.61 499.64 461.251 499.64C462.893 499.64 464.224 498.309 464.224 496.667V452.285Z" fill="white" fill-opacity="0.2"/>
<path d="M452.775 460.775C452.775 459.133 451.444 457.802 449.802 457.802C448.16 457.802 446.829 459.133 446.829 460.775V488.176C446.829 489.818 448.16 491.149 449.802 491.149C451.444 491.149 452.775 489.818 452.775 488.176V460.775Z" fill="white" fill-opacity="0.2"/>
<path d="M469.728 460.775C469.728 459.133 471.059 457.802 472.701 457.802C474.343 457.802 475.674 459.133 475.674 460.775V488.176C475.674 489.818 474.343 491.149 472.701 491.149C471.059 491.149 469.728 489.818 469.728 488.176V460.775Z" fill="white" fill-opacity="0.2"/>
<path d="M441.325 467.919C441.325 466.277 439.994 464.946 438.352 464.946C436.71 464.946 435.379 466.277 435.379 467.919V481.033C435.379 482.675 436.71 484.006 438.352 484.006C439.994 484.006 441.325 482.675 441.325 481.033V467.919Z" fill="white" fill-opacity="0.2"/>
<path d="M481.178 467.919C481.178 466.277 482.509 464.946 484.151 464.946C485.793 464.946 487.124 466.277 487.124 467.919V481.033C487.124 482.675 485.793 484.006 484.151 484.006C482.509 484.006 481.178 482.675 481.178 481.033V467.919Z" fill="white" fill-opacity="0.2"/>
<path d="M498.573 473.114C498.573 471.472 497.242 470.141 495.6 470.141C493.958 470.141 492.627 471.472 492.627 473.114V475.838C492.627 477.48 493.958 478.811 495.6 478.811C497.242 478.811 498.573 477.48 498.573 475.838V473.114Z" fill="white" fill-opacity="0.2"/>
<path d="M429.877 473.114C429.877 471.472 428.546 470.141 426.904 470.141C425.262 470.141 423.931 471.472 423.931 473.114V475.838C423.931 477.48 425.262 478.811 426.904 478.811C428.546 478.811 429.877 477.48 429.877 475.838V473.114Z" fill="white" fill-opacity="0.2"/>
<path d="M1131.85 476.112C1137.24 476.853 1142.71 475.703 1147.35 472.858C1151.98 470.013 1155.48 465.65 1157.26 460.512C1159.04 455.374 1158.98 449.778 1157.09 444.679C1155.21 439.58 1151.61 435.292 1146.92 432.547C1142.22 429.802 1136.72 428.769 1131.35 429.624C1125.99 430.479 1121.08 433.169 1117.47 437.236C1113.86 441.303 1111.78 446.496 1111.57 451.928C1111.36 457.361 1113.04 462.698 1116.33 467.031L1124.77 460.624C1122.97 458.247 1122.05 455.317 1122.16 452.336C1122.28 449.354 1123.42 446.505 1125.4 444.272C1127.38 442.04 1130.08 440.564 1133.02 440.095C1135.97 439.625 1138.99 440.192 1141.56 441.699C1144.14 443.206 1146.11 445.559 1147.15 448.357C1148.18 451.156 1148.21 454.227 1147.24 457.047C1146.26 459.867 1144.34 462.261 1141.8 463.822C1139.26 465.383 1136.25 466.015 1133.29 465.608L1131.85 476.112Z" fill="white" fill-opacity="0.2"/>
<path d="M1346.61 513.01C1346.03 511.371 1346.89 509.575 1348.53 508.998C1350.17 508.42 1351.97 509.281 1352.55 510.92L1368.15 555.225C1368.72 556.864 1367.86 558.66 1366.22 559.237C1364.59 559.814 1362.79 558.954 1362.21 557.315L1346.61 513.01Z" fill="white" fill-opacity="0.2"/>
<path d="M1361.03 517.461C1360.45 515.822 1361.31 514.025 1362.95 513.448C1364.59 512.871 1366.38 513.732 1366.96 515.371L1376.59 542.724C1377.17 544.363 1376.31 546.16 1374.67 546.737C1373.03 547.314 1371.23 546.453 1370.66 544.814L1361.03 517.461Z" fill="white" fill-opacity="0.2"/>
<path d="M1344.1 523.42C1343.52 521.781 1341.73 520.92 1340.09 521.498C1338.45 522.075 1337.59 523.871 1338.17 525.51L1347.8 552.863C1348.38 554.502 1350.17 555.363 1351.81 554.786C1353.45 554.209 1354.31 552.412 1353.73 550.773L1344.1 523.42Z" fill="white" fill-opacity="0.2"/>
<path d="M1374.97 520.567C1374.39 518.928 1375.25 517.132 1376.89 516.555C1378.53 515.977 1380.32 516.838 1380.9 518.477L1385.51 531.569C1386.09 533.208 1385.23 535.004 1383.59 535.581C1381.95 536.159 1380.15 535.298 1379.58 533.659L1374.97 520.567Z" fill="white" fill-opacity="0.2"/>
<path d="M1335.18 534.576C1334.61 532.937 1332.81 532.076 1331.17 532.653C1329.53 533.231 1328.67 535.027 1329.25 536.666L1333.86 549.758C1334.43 551.397 1336.23 552.257 1337.87 551.68C1339.51 551.103 1340.37 549.307 1339.79 547.668L1335.18 534.576Z" fill="white" fill-opacity="0.2"/>
<path d="M1319.64 545.877C1319.07 544.238 1319.93 542.441 1321.57 541.864C1323.21 541.287 1325 542.148 1325.58 543.787L1326.54 546.506C1327.11 548.145 1326.25 549.942 1324.61 550.519C1322.98 551.096 1321.18 550.235 1320.6 548.596L1319.64 545.877Z" fill="white" fill-opacity="0.2"/>
<path d="M1388.22 521.729C1387.64 520.09 1388.5 518.293 1390.14 517.716C1391.78 517.139 1393.58 518 1394.16 519.639L1395.11 522.358C1395.69 523.997 1394.83 525.794 1393.19 526.371C1391.55 526.948 1389.76 526.087 1389.18 524.448L1388.22 521.729Z" fill="white" fill-opacity="0.2"/>
<path d="M939.04 442.011C938.516 440.524 939.298 438.893 940.785 438.369C942.273 437.845 943.904 438.627 944.428 440.114L958.588 480.329C959.112 481.816 958.331 483.447 956.843 483.971C955.356 484.495 953.725 483.713 953.201 482.226L939.04 442.011Z" fill="white" fill-opacity="0.2"/>
<path d="M952.124 446.051C951.6 444.564 952.381 442.933 953.869 442.409C955.357 441.885 956.987 442.666 957.511 444.154L966.254 468.982C966.778 470.47 965.996 472.1 964.509 472.624C963.021 473.148 961.39 472.367 960.866 470.879L952.124 446.051Z" fill="white" fill-opacity="0.2"/>
<path d="M936.762 451.46C936.239 449.973 934.608 449.191 933.12 449.715C931.632 450.239 930.851 451.87 931.375 453.357L940.118 478.185C940.642 479.673 942.272 480.454 943.76 479.931C945.248 479.407 946.029 477.776 945.505 476.288L936.762 451.46Z" fill="white" fill-opacity="0.2"/>
<path d="M964.777 448.871C964.254 447.383 965.035 445.752 966.523 445.228C968.01 444.705 969.641 445.486 970.165 446.974L974.349 458.856C974.873 460.344 974.092 461.975 972.604 462.499C971.116 463.023 969.486 462.241 968.962 460.754L964.777 448.871Z" fill="white" fill-opacity="0.2"/>
<path d="M928.667 461.586C928.143 460.099 926.513 459.317 925.025 459.841C923.537 460.365 922.756 461.996 923.28 463.483L927.464 475.366C927.988 476.854 929.619 477.635 931.106 477.111C932.594 476.588 933.375 474.957 932.851 473.469L928.667 461.586Z" fill="white" fill-opacity="0.2"/>
<path d="M914.563 471.844C914.039 470.356 914.82 468.725 916.308 468.201C917.796 467.678 919.427 468.459 919.95 469.947L920.82 472.415C921.343 473.903 920.562 475.533 919.074 476.057C917.587 476.581 915.956 475.8 915.432 474.312L914.563 471.844Z" fill="white" fill-opacity="0.2"/>
<path d="M976.808 449.925C976.284 448.438 977.066 446.807 978.553 446.283C980.041 445.759 981.672 446.54 982.196 448.028L983.065 450.496C983.589 451.984 982.807 453.615 981.32 454.139C979.832 454.663 978.201 453.881 977.677 452.394L976.808 449.925Z" fill="white" fill-opacity="0.2"/>
<path d="M855.779 285.411C856.971 286.444 857.1 288.247 856.067 289.439C855.034 290.631 853.23 290.761 852.038 289.728L819.816 261.81C818.623 260.777 818.494 258.974 819.527 257.782C820.56 256.59 822.364 256.46 823.556 257.493L855.779 285.411Z" fill="white" fill-opacity="0.2"/>
<path d="M842.412 288.383C843.604 289.416 843.733 291.219 842.701 292.412C841.668 293.604 839.864 293.733 838.672 292.7L818.778 275.464C817.586 274.431 817.457 272.627 818.49 271.435C819.522 270.243 821.326 270.114 822.518 271.147L842.412 288.383Z" fill="white" fill-opacity="0.2"/>
<path d="M853.076 276.074C854.268 277.107 856.072 276.978 857.105 275.786C858.138 274.594 858.008 272.79 856.816 271.758L836.922 254.521C835.73 253.489 833.927 253.618 832.894 254.81C831.861 256.002 831.99 257.806 833.182 258.838L853.076 276.074Z" fill="white" fill-opacity="0.2"/>
<path d="M830.023 292.202C831.216 293.235 831.345 295.039 830.312 296.231C829.279 297.423 827.475 297.552 826.283 296.519L816.762 288.27C815.57 287.237 815.441 285.434 816.473 284.241C817.506 283.049 819.31 282.92 820.502 283.953L830.023 292.202Z" fill="white" fill-opacity="0.2"/>
<path d="M855.092 263.268C856.284 264.301 858.088 264.172 859.121 262.98C860.153 261.787 860.024 259.984 858.832 258.951L849.311 250.702C848.119 249.669 846.315 249.798 845.282 250.99C844.249 252.182 844.378 253.986 845.571 255.019L855.092 263.268Z" fill="white" fill-opacity="0.2"/>
<path d="M862.262 247.37C863.454 248.403 863.584 250.207 862.551 251.399C861.518 252.591 859.714 252.72 858.522 251.687L856.544 249.974C855.352 248.941 855.223 247.137 856.256 245.945C857.289 244.753 859.092 244.624 860.285 245.657L862.262 247.37Z" fill="white" fill-opacity="0.2"/>
<path d="M819.05 297.246C820.242 298.279 820.371 300.083 819.339 301.275C818.306 302.467 816.502 302.596 815.31 301.563L813.332 299.85C812.14 298.817 812.011 297.013 813.044 295.821C814.077 294.629 815.88 294.5 817.072 295.533L819.05 297.246Z" fill="white" fill-opacity="0.2"/>
<path d="M1058.07 943.11C1064.98 940.022 1070.62 934.631 1074.01 927.854C1077.4 921.078 1078.33 913.336 1076.65 905.947C1074.98 898.559 1070.79 891.981 1064.8 887.334C1058.82 882.688 1051.41 880.26 1043.83 880.465C1036.26 880.67 1028.99 883.494 1023.27 888.458C1017.54 893.421 1013.71 900.216 1012.44 907.684C1011.16 915.153 1012.51 922.833 1016.26 929.416C1020.01 936 1025.93 941.078 1033.01 943.788L1038.29 929.988C1034.41 928.501 1031.16 925.714 1029.1 922.101C1027.04 918.488 1026.3 914.273 1027 910.174C1027.7 906.075 1029.8 902.346 1032.94 899.622C1036.09 896.898 1040.08 895.348 1044.23 895.236C1048.39 895.123 1052.46 896.456 1055.74 899.006C1059.03 901.556 1061.32 905.166 1062.25 909.221C1063.17 913.276 1062.65 917.525 1060.79 921.244C1058.93 924.963 1055.84 927.922 1052.04 929.616L1058.07 943.11Z" fill="white" fill-opacity="0.2"/>
<path d="M801.194 647.525C808.113 644.438 813.748 639.046 817.137 632.27C820.527 625.494 821.462 617.752 819.784 610.363C818.105 602.974 813.917 596.396 807.932 591.75C801.947 587.103 794.536 584.676 786.962 584.88C779.388 585.085 772.119 587.91 766.394 592.873C760.669 597.837 756.843 604.631 755.566 612.1C754.289 619.569 755.642 627.249 759.393 633.832C763.144 640.415 769.061 645.494 776.137 648.203L781.421 634.404C777.537 632.917 774.29 630.13 772.231 626.517C770.172 622.904 769.43 618.689 770.131 614.59C770.832 610.491 772.932 606.762 776.074 604.038C779.216 601.314 783.205 599.764 787.362 599.651C791.518 599.539 795.586 600.871 798.87 603.421C802.155 605.971 804.453 609.582 805.375 613.636C806.296 617.691 805.783 621.94 803.922 625.659C802.062 629.378 798.97 632.337 795.172 634.032L801.194 647.525Z" fill="white" fill-opacity="0.2"/>
<path d="M857.335 80.7225C856.472 77.7061 852.295 68.9534 841.949 68.9534C832.25 68.9534 827.958 76.9069 827.006 79.3948C825.407 78.8276 823.731 78.544 822.017 78.544C813.575 78.544 806.694 85.5823 806.694 94.219C806.694 102.856 813.575 109.894 822.03 109.894H830.104C831.539 109.894 832.694 108.708 832.694 107.251C832.694 105.795 831.539 104.609 830.104 104.609H822.03C816.431 104.609 811.874 99.9553 811.874 94.2319C811.874 88.5084 816.431 83.8549 822.03 83.8549C823.909 83.8549 825.737 84.3834 827.336 85.3889C829.393 86.6651 830.929 85.4405 831.247 83.5584C832.161 78.1831 836.604 74.2643 841.961 74.2643C847.306 74.2643 851.813 78.1702 852.676 83.5584C852.867 84.7831 853.87 85.6983 855.076 85.7756C859.938 86.0721 863.747 90.21 863.747 95.1987C863.747 100.406 859.608 104.635 854.517 104.635H846.57C845.135 104.635 843.98 105.821 843.98 107.277C843.98 108.734 845.135 109.92 846.57 109.92H854.517C862.464 109.92 868.926 103.32 868.926 95.1987C868.901 88.0702 863.962 82.0889 857.335 80.7225V80.7225Z" fill="white" fill-opacity="0.2"/>
<path d="M845.757 120.258C844.678 119.304 843.053 119.42 842.126 120.516L840.463 122.462V92.0276C840.463 90.571 839.308 89.3979 837.886 89.3979C836.464 89.3979 835.309 90.571 835.309 92.0276V122.45L833.659 120.516C832.719 119.42 831.094 119.304 830.028 120.258C828.961 121.212 828.847 122.875 829.774 123.971L835.944 131.215C836.439 131.795 837.137 132.117 837.886 132.117C838.635 132.117 839.334 131.782 839.829 131.215L845.999 123.971C846.938 122.875 846.824 121.212 845.757 120.258Z" fill="white" fill-opacity="0.2"/>
<g clip-path="url(#clip1_29_303)">
<path d="M748.485 431.16C746.246 428.963 738.292 423.413 729.294 428.52C720.859 433.308 721.054 442.343 721.454 444.977C719.783 445.273 718.185 445.854 716.695 446.7C709.353 450.867 706.843 460.385 711.107 467.896C715.37 475.407 724.829 478.131 732.182 473.958L739.204 469.972C740.451 469.264 740.87 467.662 740.151 466.395C739.432 465.128 737.842 464.667 736.595 465.376L729.573 469.361C724.704 472.125 718.443 470.328 715.618 465.35C712.792 460.373 714.459 454.076 719.328 451.312C720.962 450.385 722.812 449.942 724.7 450.027C727.118 450.121 727.85 448.298 727.197 446.505C725.338 441.379 727.268 435.777 731.927 433.133C736.575 430.494 742.423 431.666 745.833 435.926C746.604 436.897 747.928 437.198 749.015 436.67C753.389 434.527 758.744 436.246 761.207 440.584C763.778 445.113 762.266 450.833 757.838 453.347L750.927 457.27C749.679 457.978 749.26 459.579 749.979 460.846C750.698 462.113 752.288 462.574 753.536 461.866L760.447 457.943C767.359 454.02 769.72 445.09 765.712 438.027C762.171 431.841 754.923 429.077 748.485 431.16V431.16Z" fill="white" fill-opacity="0.2"/>
<path d="M757.933 471.258C756.523 470.961 755.168 471.864 754.902 473.275L754.417 475.788L739.393 449.32C738.674 448.054 737.09 447.604 735.854 448.306C734.617 449.007 734.191 450.598 734.911 451.865L749.928 478.322L747.538 477.455C746.18 476.966 744.71 477.667 744.253 479.023C743.797 480.379 744.518 481.881 745.865 482.377L754.807 485.631C755.524 485.891 756.291 485.827 756.942 485.457C757.593 485.087 758.035 484.451 758.186 483.714L759.975 474.368C760.251 472.951 759.331 471.561 757.933 471.258Z" fill="white" fill-opacity="0.2"/>
</g>
<path d="M107.249 815.065C106.385 812.048 102.208 803.295 91.8618 803.295C82.1626 803.295 77.8716 811.249 76.9194 813.737C75.3198 813.17 73.644 812.886 71.9302 812.886C63.4878 812.886 56.6069 819.924 56.6069 828.561C56.6069 837.198 63.4878 844.236 71.9429 844.236H80.0171C81.4517 844.236 82.6069 843.05 82.6069 841.593C82.6069 840.137 81.4517 838.951 80.0171 838.951H71.9429C66.3442 838.951 61.7866 834.297 61.7866 828.574C61.7866 822.85 66.3442 818.197 71.9429 818.197C73.8218 818.197 75.6499 818.725 77.2495 819.731C79.3062 821.007 80.8423 819.783 81.1597 817.9C82.0737 812.525 86.5171 808.606 91.8745 808.606C97.2192 808.606 101.726 812.512 102.589 817.9C102.78 819.125 103.783 820.04 104.989 820.118C109.851 820.414 113.66 824.552 113.66 829.541C113.66 834.749 109.521 838.977 104.43 838.977H96.4829C95.0483 838.977 93.8931 840.163 93.8931 841.619C93.8931 843.076 95.0483 844.262 96.4829 844.262H104.43C112.377 844.262 118.839 837.662 118.839 829.541C118.814 822.412 113.875 816.431 107.249 815.065V815.065Z" fill="white" fill-opacity="0.2"/>
<g clip-path="url(#clip2_29_303)">
<path d="M304.126 820.797C304.073 817.66 302.304 808.124 292.31 805.446C282.941 802.936 276.738 809.508 275.174 811.664C273.776 810.703 272.23 809.995 270.575 809.551C262.42 807.366 253.952 812.384 251.717 820.726C249.481 829.069 254.306 837.648 262.473 839.836L270.272 841.926C271.658 842.297 273.081 841.451 273.458 840.044C273.835 838.637 273.026 837.192 271.64 836.821L263.841 834.731C258.433 833.282 255.235 827.608 256.717 822.079C258.198 816.551 263.805 813.236 269.213 814.685C271.027 815.171 272.656 816.155 273.941 817.54C275.598 819.305 277.398 818.519 278.192 816.784C280.466 811.828 285.772 809.193 290.947 810.579C296.11 811.963 299.452 816.902 298.892 822.33C298.759 823.562 299.49 824.706 300.635 825.093C305.255 826.638 307.863 831.62 306.572 836.439C305.224 841.469 300.132 844.482 295.215 843.165L287.538 841.108C286.153 840.736 284.73 841.583 284.353 842.99C283.976 844.397 284.785 845.841 286.17 846.213L293.847 848.27C301.523 850.327 309.473 845.624 311.575 837.779C313.396 830.887 310.173 823.832 304.126 820.797V820.797Z" fill="white" fill-opacity="0.2"/>
</g>
<path d="M79.8574 833.743C80.9365 834.544 82.5615 834.447 83.4883 833.526L85.1513 831.891L85.1513 857.462C85.1513 858.686 86.3066 859.671 87.7285 859.671C89.1504 859.671 90.3056 858.686 90.3056 857.462L90.3056 831.901L91.956 833.526C92.8955 834.447 94.5205 834.544 95.5869 833.743C96.6533 832.941 96.7676 831.544 95.8408 830.623L89.6709 824.537C89.1758 824.049 88.4775 823.778 87.7285 823.778C86.9795 823.778 86.2812 824.06 85.7861 824.537L79.6162 830.623C78.6767 831.544 78.791 832.941 79.8574 833.743Z" fill="white" fill-opacity="0.2"/>
<path d="M872.636 834.328C871.772 831.312 867.596 822.559 857.249 822.559C847.55 822.559 843.259 830.512 842.307 833C840.707 832.433 839.031 832.149 837.317 832.149C828.875 832.149 821.994 839.188 821.994 847.824C821.994 856.461 828.875 863.499 837.33 863.499H845.404C846.839 863.499 847.994 862.314 847.994 860.857C847.994 859.4 846.839 858.214 845.404 858.214H837.33C831.731 858.214 827.174 853.561 827.174 847.837C827.174 842.114 831.731 837.46 837.33 837.46C839.209 837.46 841.037 837.989 842.637 838.994C844.693 840.271 846.229 839.046 846.547 837.164C847.461 831.789 851.904 827.87 857.262 827.87C862.606 827.87 867.113 831.776 867.976 837.164C868.167 838.389 869.17 839.304 870.376 839.381C875.238 839.678 879.047 843.815 879.047 848.804C879.047 854.012 874.908 858.24 869.817 858.24H861.87C860.435 858.24 859.28 859.426 859.28 860.883C859.28 862.339 860.435 863.525 861.87 863.525H869.817C877.765 863.525 884.226 856.925 884.226 848.804C884.201 841.676 879.263 835.694 872.636 834.328V834.328Z" fill="white" fill-opacity="0.2"/>
<path d="M845.244 853.006C846.324 853.808 847.949 853.71 848.875 852.79L850.538 851.154L850.538 876.725C850.538 877.949 851.694 878.935 853.116 878.935C854.537 878.935 855.693 877.949 855.693 876.725L855.693 851.165L857.343 852.789C858.283 853.71 859.908 853.808 860.974 853.006C862.04 852.205 862.155 850.807 861.228 849.887L855.058 843.8C854.563 843.313 853.865 843.042 853.116 843.042C852.367 843.042 851.668 843.323 851.173 843.8L845.003 849.887C844.064 850.807 844.178 852.205 845.244 853.006Z" fill="white" fill-opacity="0.2"/>
<g clip-path="url(#clip3_29_303)">
<path d="M1262.84 856.535C1260 855.206 1250.66 852.613 1243.87 860.419C1237.5 867.737 1240.68 876.195 1241.94 878.546C1240.46 879.38 1239.14 880.459 1238.02 881.752C1232.48 888.121 1233.27 897.932 1239.79 903.601C1246.3 909.269 1256.13 908.697 1261.68 902.318L1266.98 896.226C1267.92 895.144 1267.79 893.494 1266.69 892.538C1265.59 891.582 1263.93 891.675 1262.99 892.758L1257.69 898.849C1254.02 903.073 1247.52 903.458 1243.2 899.701C1238.88 895.945 1238.36 889.452 1242.03 885.228C1243.27 883.81 1244.87 882.778 1246.68 882.231C1248.99 881.517 1249.07 879.554 1247.86 878.079C1244.4 873.862 1244.36 867.937 1247.88 863.895C1251.39 859.863 1257.29 859.026 1261.93 861.911C1262.97 862.571 1264.32 862.415 1265.17 861.556C1268.59 858.082 1274.21 857.925 1277.97 861.199C1281.9 864.617 1282.38 870.515 1279.04 874.356L1273.82 880.352C1272.88 881.434 1273.01 883.084 1274.11 884.04C1275.21 884.996 1276.86 884.903 1277.81 883.82L1283.02 877.824C1288.24 871.828 1287.5 862.621 1281.37 857.291C1275.98 852.632 1268.22 852.432 1262.84 856.535V856.535Z" fill="white" fill-opacity="0.2"/>
</g>
<path d="M1258.96 889.46C1260.27 889.172 1261.26 887.882 1261.18 886.578L1261.04 884.25L1280.33 901.033C1281.25 901.837 1282.75 901.612 1283.69 900.539C1284.62 899.466 1284.63 897.948 1283.71 897.145L1264.43 880.368L1266.74 880.19C1268.05 880.085 1269.19 878.923 1269.28 877.592C1269.38 876.262 1268.4 875.259 1267.1 875.354L1258.45 876.013C1257.76 876.067 1257.1 876.416 1256.61 876.981C1256.12 877.546 1255.87 878.258 1255.9 878.944L1256.45 887.594C1256.52 888.907 1257.65 889.738 1258.96 889.46Z" fill="white" fill-opacity="0.2"/>
<g clip-path="url(#clip4_29_303)">
<path d="M1179.11 597.597C1176.27 596.269 1166.92 593.675 1160.13 601.482C1153.77 608.799 1156.95 617.257 1158.2 619.608C1156.72 620.443 1155.41 621.521 1154.29 622.814C1148.75 629.184 1149.54 638.994 1156.06 644.663C1162.57 650.332 1172.4 649.76 1177.95 643.381L1183.25 637.289C1184.19 636.207 1184.05 634.557 1182.95 633.601C1181.85 632.645 1180.2 632.738 1179.26 633.82L1173.96 639.912C1170.29 644.136 1163.78 644.52 1159.46 640.764C1155.15 637.007 1154.63 630.514 1158.3 626.29C1159.53 624.873 1161.13 623.84 1162.94 623.293C1165.25 622.579 1165.34 620.617 1164.13 619.142C1160.67 614.924 1160.63 609 1164.15 604.958C1167.66 600.925 1173.56 600.089 1178.19 602.974C1179.24 603.634 1180.59 603.478 1181.44 602.619C1184.85 599.145 1190.48 598.987 1194.24 602.262C1198.17 605.68 1198.64 611.577 1195.3 615.418L1190.09 621.414C1189.14 622.496 1189.28 624.146 1190.38 625.102C1191.48 626.058 1193.13 625.965 1194.07 624.883L1199.29 618.887C1204.51 612.891 1203.77 603.684 1197.64 598.354C1192.24 593.694 1184.49 593.494 1179.11 597.597V597.597Z" fill="white" fill-opacity="0.2"/>
</g>
<path d="M1175.22 630.522C1176.54 630.234 1177.53 628.944 1177.44 627.641L1177.3 625.313L1196.59 642.096C1197.52 642.899 1199.02 642.674 1199.95 641.602C1200.89 640.529 1200.9 639.01 1199.98 638.207L1180.69 621.431L1183 621.252C1184.31 621.147 1185.45 619.985 1185.55 618.655C1185.64 617.324 1184.66 616.321 1183.36 616.416L1174.72 617.076C1174.03 617.13 1173.36 617.479 1172.87 618.044C1172.38 618.609 1172.14 619.321 1172.17 620.007L1172.71 628.657C1172.79 629.97 1173.92 630.801 1175.22 630.522Z" fill="white" fill-opacity="0.2"/>
<g clip-path="url(#clip5_29_303)">
<path d="M683.424 865.814C680.802 864.09 671.927 860.179 664.084 866.927C656.731 873.253 658.666 882.081 659.567 884.588C657.984 885.201 656.529 886.079 655.23 887.197C648.83 892.703 648.204 902.526 653.837 909.073C659.469 915.62 669.276 916.468 675.685 910.953L681.806 905.687C682.893 904.752 682.996 903.099 682.046 901.995C681.096 900.891 679.447 900.745 678.359 901.681L672.238 906.947C667.994 910.598 661.504 910.043 657.772 905.704C654.039 901.366 654.459 894.866 658.703 891.214C660.127 889.989 661.858 889.197 663.726 888.916C666.117 888.542 666.483 886.612 665.496 884.978C662.684 880.307 663.496 874.439 667.557 870.945C671.609 867.459 677.573 867.481 681.741 871.002C682.684 871.806 684.042 871.846 685.006 871.118C688.886 868.172 694.471 868.825 697.725 872.606C701.121 876.554 700.742 882.458 696.882 885.779L690.858 890.962C689.77 891.897 689.668 893.55 690.618 894.654C691.568 895.758 693.217 895.904 694.305 894.968L700.329 889.785C706.354 884.602 706.948 875.384 701.651 869.228C696.983 863.841 689.338 862.528 683.424 865.814V865.814Z" fill="white" fill-opacity="0.2"/>
<path d="M700.431 903.335C698.991 903.316 697.835 904.464 697.847 905.899L697.856 908.459L678.007 885.388C677.057 884.283 675.416 884.148 674.338 885.075C673.26 886.002 673.149 887.645 674.099 888.749L693.94 911.811L691.428 911.421C690.001 911.203 688.694 912.175 688.508 913.594C688.321 915.012 689.319 916.347 690.736 916.574L700.138 918.041C700.892 918.158 701.631 917.947 702.199 917.459C702.767 916.97 703.078 916.261 703.083 915.508L703.036 905.992C703.033 904.549 701.862 903.363 700.431 903.335Z" fill="white" fill-opacity="0.2"/>
</g>
<path d="M462.067 898.651C468.999 900.21 476.256 899.317 482.603 896.125C488.95 892.932 493.994 887.638 496.875 881.144C499.756 874.65 500.296 867.357 498.403 860.51C496.511 853.662 492.302 847.682 486.495 843.59C480.687 839.497 473.641 837.544 466.555 838.065C459.47 838.585 452.784 841.547 447.637 846.444C442.49 851.341 439.2 857.872 438.328 864.923C437.456 871.974 439.056 879.109 442.856 885.112L454.563 877.703C452.478 874.408 451.6 870.492 452.079 866.623C452.557 862.753 454.363 859.169 457.187 856.481C460.012 853.794 463.681 852.169 467.57 851.883C471.459 851.597 475.326 852.669 478.513 854.915C481.7 857.161 484.01 860.443 485.049 864.201C486.088 867.959 485.791 871.961 484.21 875.525C482.629 879.089 479.861 881.995 476.378 883.747C472.894 885.499 468.911 885.989 465.107 885.134L462.067 898.651Z" fill="white" fill-opacity="0.2"/>
<path d="M164.758 698.279C157.826 699.837 150.569 698.945 144.222 695.752C137.875 692.56 132.831 687.266 129.95 680.771C127.069 674.277 126.529 666.985 128.422 660.137C130.315 653.289 134.523 647.31 140.33 643.217C146.138 639.124 153.185 637.172 160.27 637.692C167.356 638.213 174.041 641.174 179.188 646.071C184.335 650.969 187.625 657.499 188.497 664.55C189.369 671.601 187.769 678.736 183.97 684.739L172.262 677.331C174.347 674.036 175.225 670.12 174.746 666.25C174.268 662.381 172.462 658.797 169.638 656.109C166.813 653.421 163.144 651.796 159.255 651.51C155.366 651.225 151.499 652.296 148.312 654.542C145.125 656.788 142.815 660.07 141.776 663.828C140.737 667.587 141.034 671.589 142.615 675.153C144.196 678.717 146.964 681.623 150.448 683.375C153.931 685.127 157.914 685.617 161.718 684.761L164.758 698.279Z" fill="white" fill-opacity="0.2"/>
<path d="M348.405 191.569C353.791 192.309 359.267 191.159 363.9 188.314C368.534 185.47 372.037 181.107 373.814 175.968C375.591 170.83 375.532 165.235 373.645 160.135C371.759 155.036 368.164 150.749 363.471 148.003C358.778 145.258 353.278 144.225 347.909 145.08C342.54 145.935 337.633 148.625 334.025 152.692C330.417 156.76 328.331 161.952 328.122 167.385C327.913 172.818 329.595 178.155 332.88 182.487L341.328 176.08C339.525 173.703 338.603 170.774 338.717 167.792C338.832 164.81 339.977 161.961 341.957 159.729C343.937 157.497 346.63 156.02 349.577 155.551C352.523 155.082 355.542 155.649 358.117 157.155C360.693 158.662 362.666 161.015 363.701 163.814C364.736 166.612 364.769 169.683 363.794 172.503C362.818 175.323 360.896 177.717 358.353 179.279C355.81 180.84 352.805 181.471 349.848 181.065L348.405 191.569Z" fill="white" fill-opacity="0.2"/>
<path d="M176.541 926.631C176.541 925.716 177.282 924.975 178.196 924.975C179.11 924.975 179.851 925.716 179.851 926.631V951.345C179.851 952.259 179.11 953 178.196 953C177.282 953 176.541 952.259 176.541 951.345V926.631Z" fill="white" fill-opacity="0.2"/>
<path d="M182.916 931.358C182.916 930.444 183.657 929.703 184.572 929.703C185.486 929.703 186.227 930.444 186.227 931.358V946.617C186.227 947.531 185.486 948.272 184.572 948.272C183.657 948.272 182.916 947.531 182.916 946.617V931.358Z" fill="white" fill-opacity="0.2"/>
<path d="M173.476 931.358C173.476 930.444 172.735 929.703 171.82 929.703C170.906 929.703 170.165 930.444 170.165 931.358V946.617C170.165 947.531 170.906 948.272 171.82 948.272C172.735 948.272 173.476 947.531 173.476 946.617V931.358Z" fill="white" fill-opacity="0.2"/>
<path d="M189.292 935.336C189.292 934.422 190.033 933.681 190.947 933.681C191.862 933.681 192.603 934.422 192.603 935.336V942.639C192.603 943.553 191.862 944.294 190.947 944.294C190.033 944.294 189.292 943.553 189.292 942.639V935.336Z" fill="white" fill-opacity="0.2"/>
<path d="M167.1 935.336C167.1 934.422 166.359 933.681 165.445 933.681C164.53 933.681 163.789 934.422 163.789 935.336V942.639C163.789 943.553 164.53 944.294 165.445 944.294C166.359 944.294 167.1 943.553 167.1 942.639V935.336Z" fill="white" fill-opacity="0.2"/>
<path d="M157.413 938.229C157.413 937.315 158.155 936.574 159.069 936.574C159.983 936.574 160.724 937.315 160.724 938.229V939.746C160.724 940.66 159.983 941.402 159.069 941.402C158.155 941.402 157.413 940.66 157.413 939.746V938.229Z" fill="white" fill-opacity="0.2"/>
<path d="M195.667 938.229C195.667 937.315 196.408 936.574 197.322 936.574C198.237 936.574 198.978 937.315 198.978 938.229V939.746C198.978 940.66 198.237 941.402 197.322 941.402C196.408 941.402 195.667 940.66 195.667 939.746V938.229Z" fill="white" fill-opacity="0.2"/>
<path d="M572.212 674.162C571.242 672.961 571.43 671.202 572.631 670.233C573.832 669.264 575.592 669.452 576.561 670.653L602.759 703.116C603.728 704.317 603.54 706.077 602.339 707.046C601.138 708.015 599.379 707.827 598.41 706.626L572.212 674.162Z" fill="white" fill-opacity="0.2"/>
<path d="M585.598 673.614C584.629 672.413 584.817 670.654 586.018 669.685C587.219 668.715 588.978 668.903 589.947 670.104L606.122 690.147C607.091 691.348 606.903 693.107 605.702 694.077C604.501 695.046 602.742 694.858 601.773 693.657L585.598 673.614Z" fill="white" fill-opacity="0.2"/>
<path d="M573.198 683.621C572.228 682.42 570.469 682.232 569.268 683.202C568.067 684.171 567.879 685.93 568.848 687.131L585.023 707.174C585.992 708.375 587.751 708.563 588.952 707.594C590.153 706.624 590.341 704.865 589.372 703.664L573.198 683.621Z" fill="white" fill-opacity="0.2"/>
<path d="M598.19 672.081C597.221 670.88 597.409 669.12 598.61 668.151C599.811 667.182 601.57 667.37 602.539 668.571L610.28 678.164C611.25 679.365 611.062 681.124 609.861 682.093C608.66 683.062 606.9 682.874 605.931 681.673L598.19 672.081Z" fill="white" fill-opacity="0.2"/>
<path d="M569.039 695.605C568.07 694.404 566.311 694.216 565.11 695.185C563.909 696.155 563.721 697.914 564.69 699.115L572.431 708.708C573.4 709.909 575.16 710.096 576.361 709.127C577.562 708.158 577.75 706.399 576.78 705.198L569.039 695.605Z" fill="white" fill-opacity="0.2"/>
<path d="M559.382 709.673C558.413 708.472 558.601 706.713 559.802 705.744C561.003 704.775 562.762 704.963 563.731 706.164L565.339 708.156C566.308 709.357 566.12 711.116 564.919 712.086C563.718 713.055 561.959 712.867 560.99 711.666L559.382 709.673Z" fill="white" fill-opacity="0.2"/>
<path d="M609.631 669.123C608.661 667.922 608.849 666.163 610.05 665.194C611.251 664.224 613.011 664.412 613.98 665.613L615.588 667.606C616.557 668.807 616.369 670.566 615.168 671.535C613.967 672.505 612.208 672.317 611.239 671.116L609.631 669.123Z" fill="white" fill-opacity="0.2"/>
<path d="M554.153 268.379C554.153 266.737 555.484 265.406 557.126 265.406C558.768 265.406 560.099 266.737 560.099 268.379V312.761C560.099 314.403 558.768 315.734 557.126 315.734C555.484 315.734 554.153 314.403 554.153 312.761V268.379Z" fill="white" fill-opacity="0.2"/>
<path d="M565.603 276.869C565.603 275.227 566.934 273.896 568.576 273.896C570.218 273.896 571.549 275.227 571.549 276.869V304.27C571.549 305.912 570.218 307.243 568.576 307.243C566.934 307.243 565.603 305.912 565.603 304.27V276.869Z" fill="white" fill-opacity="0.2"/>
<path d="M548.65 276.869C548.65 275.227 547.319 273.896 545.677 273.896C544.035 273.896 542.704 275.227 542.704 276.869V304.27C542.704 305.912 544.035 307.243 545.677 307.243C547.319 307.243 548.65 305.912 548.65 304.27V276.869Z" fill="white" fill-opacity="0.2"/>
<path d="M577.052 284.013C577.052 282.371 578.384 281.04 580.025 281.04C581.667 281.04 582.998 282.371 582.998 284.013V297.127C582.998 298.769 581.667 300.1 580.025 300.1C578.384 300.1 577.052 298.769 577.052 297.127V284.013Z" fill="white" fill-opacity="0.2"/>
<path d="M537.2 284.013C537.2 282.371 535.869 281.04 534.227 281.04C532.585 281.04 531.254 282.371 531.254 284.013V297.127C531.254 298.769 532.585 300.1 534.227 300.1C535.869 300.1 537.2 298.769 537.2 297.127V284.013Z" fill="white" fill-opacity="0.2"/>
<path d="M519.804 289.208C519.804 287.566 521.135 286.235 522.777 286.235C524.419 286.235 525.75 287.566 525.75 289.208V291.932C525.75 293.574 524.419 294.905 522.777 294.905C521.135 294.905 519.804 293.574 519.804 291.932V289.208Z" fill="white" fill-opacity="0.2"/>
<path d="M588.501 289.208C588.501 287.566 589.832 286.235 591.474 286.235C593.116 286.235 594.447 287.566 594.447 289.208V291.932C594.447 293.574 593.116 294.905 591.474 294.905C589.832 294.905 588.501 293.574 588.501 291.932V289.208Z" fill="white" fill-opacity="0.2"/>
<path d="M1146.12 170.601C1146.12 168.959 1147.45 167.628 1149.09 167.628C1150.73 167.628 1152.06 168.959 1152.06 170.601V214.983C1152.06 216.625 1150.73 217.956 1149.09 217.956C1147.45 217.956 1146.12 216.625 1146.12 214.983V170.601Z" fill="white" fill-opacity="0.2"/>
<path d="M1157.57 179.091C1157.57 177.449 1158.9 176.118 1160.54 176.118C1162.18 176.118 1163.51 177.449 1163.51 179.091V206.492C1163.51 208.134 1162.18 209.465 1160.54 209.465C1158.9 209.465 1157.57 208.134 1157.57 206.492V179.091Z" fill="white" fill-opacity="0.2"/>
<path d="M1140.61 179.091C1140.61 177.449 1139.28 176.118 1137.64 176.118C1136 176.118 1134.67 177.449 1134.67 179.091V206.492C1134.67 208.134 1136 209.465 1137.64 209.465C1139.28 209.465 1140.61 208.134 1140.61 206.492V179.091Z" fill="white" fill-opacity="0.2"/>
<path d="M1169.02 186.235C1169.02 184.593 1170.35 183.262 1171.99 183.262C1173.63 183.262 1174.96 184.593 1174.96 186.235V199.349C1174.96 200.991 1173.63 202.322 1171.99 202.322C1170.35 202.322 1169.02 200.991 1169.02 199.349V186.235Z" fill="white" fill-opacity="0.2"/>
<path d="M1129.16 186.235C1129.16 184.593 1127.83 183.262 1126.19 183.262C1124.55 183.262 1123.22 184.593 1123.22 186.235V199.349C1123.22 200.991 1124.55 202.322 1126.19 202.322C1127.83 202.322 1129.16 200.991 1129.16 199.349V186.235Z" fill="white" fill-opacity="0.2"/>
<path d="M1111.77 191.43C1111.77 189.788 1113.1 188.457 1114.74 188.457C1116.38 188.457 1117.71 189.788 1117.71 191.43V194.154C1117.71 195.796 1116.38 197.127 1114.74 197.127C1113.1 197.127 1111.77 195.796 1111.77 194.154V191.43Z" fill="white" fill-opacity="0.2"/>
<path d="M1180.46 191.43C1180.46 189.788 1181.79 188.457 1183.44 188.457C1185.08 188.457 1186.41 189.788 1186.41 191.43V194.154C1186.41 195.796 1185.08 197.127 1183.44 197.127C1181.79 197.127 1180.46 195.796 1180.46 194.154V191.43Z" fill="white" fill-opacity="0.2"/>
<path d="M629.78 112.428C629.203 110.789 630.064 108.992 631.703 108.415C633.342 107.838 635.138 108.699 635.716 110.338L651.317 154.642C651.894 156.281 651.033 158.078 649.394 158.655C647.755 159.232 645.958 158.371 645.381 156.732L629.78 112.428Z" fill="white" fill-opacity="0.2"/>
<path d="M644.194 116.879C643.617 115.24 644.478 113.443 646.117 112.866C647.756 112.289 649.552 113.15 650.13 114.789L659.761 142.142C660.339 143.781 659.478 145.577 657.839 146.154C656.2 146.732 654.403 145.871 653.826 144.232L644.194 116.879Z" fill="white" fill-opacity="0.2"/>
<path d="M627.271 122.838C626.694 121.199 624.897 120.338 623.258 120.915C621.619 121.492 620.758 123.289 621.335 124.928L630.967 152.281C631.544 153.92 633.341 154.781 634.98 154.204C636.619 153.627 637.48 151.83 636.903 150.191L627.271 122.838Z" fill="white" fill-opacity="0.2"/>
<path d="M658.135 119.985C657.558 118.346 658.419 116.549 660.058 115.972C661.697 115.395 663.493 116.256 664.07 117.895L668.68 130.986C669.257 132.625 668.397 134.422 666.758 134.999C665.119 135.576 663.322 134.715 662.745 133.076L658.135 119.985Z" fill="white" fill-opacity="0.2"/>
<path d="M618.352 133.994C617.775 132.355 615.978 131.494 614.339 132.071C612.7 132.648 611.839 134.445 612.417 136.084L617.026 149.175C617.604 150.814 619.4 151.675 621.039 151.098C622.678 150.521 623.539 148.724 622.962 147.085L618.352 133.994Z" fill="white" fill-opacity="0.2"/>
<path d="M602.813 145.295C602.236 143.656 603.097 141.859 604.736 141.282C606.375 140.705 608.172 141.566 608.749 143.205L609.706 145.924C610.284 147.563 609.423 149.359 607.784 149.937C606.145 150.514 604.348 149.653 603.771 148.014L602.813 145.295Z" fill="white" fill-opacity="0.2"/>
<path d="M671.389 121.147C670.812 119.508 671.673 117.711 673.312 117.134C674.951 116.557 676.748 117.418 677.325 119.057L678.282 121.776C678.86 123.415 677.999 125.212 676.36 125.789C674.721 126.366 672.924 125.505 672.347 123.866L671.389 121.147Z" fill="white" fill-opacity="0.2"/>
<path d="M68.5916 332.085C68.0677 330.598 68.849 328.967 70.3367 328.443C71.8245 327.919 73.4552 328.701 73.979 330.188L88.1397 370.402C88.6636 371.89 87.8822 373.521 86.3945 374.045C84.9068 374.569 83.2761 373.787 82.7522 372.3L68.5916 332.085Z" fill="white" fill-opacity="0.2"/>
<path d="M81.6749 336.125C81.151 334.637 81.9324 333.007 83.4201 332.483C84.9078 331.959 86.5385 332.74 87.0624 334.228L95.8051 359.056C96.3289 360.544 95.5476 362.174 94.0599 362.698C92.5722 363.222 90.9414 362.441 90.4176 360.953L81.6749 336.125Z" fill="white" fill-opacity="0.2"/>
<path d="M66.3138 341.534C65.7899 340.047 64.1592 339.265 62.6715 339.789C61.1838 340.313 60.4024 341.944 60.9263 343.431L69.669 368.259C70.1928 369.747 71.8235 370.528 73.3112 370.004C74.799 369.481 75.5803 367.85 75.0564 366.362L66.3138 341.534Z" fill="white" fill-opacity="0.2"/>
<path d="M94.3287 338.945C93.8048 337.457 94.5861 335.826 96.0738 335.302C97.5616 334.779 99.1923 335.56 99.7161 337.048L103.9 348.93C104.424 350.418 103.643 352.049 102.155 352.573C100.668 353.097 99.0369 352.315 98.513 350.828L94.3287 338.945Z" fill="white" fill-opacity="0.2"/>
<path d="M58.2183 351.66C57.6945 350.173 56.0638 349.391 54.5761 349.915C53.0883 350.439 52.307 352.07 52.8309 353.557L57.0152 365.44C57.5391 366.928 59.1698 367.709 60.6575 367.185C62.1452 366.662 62.9266 365.031 62.4027 363.543L58.2183 351.66Z" fill="white" fill-opacity="0.2"/>
<path d="M44.1142 361.918C43.5903 360.43 44.3717 358.799 45.8594 358.275C47.3471 357.752 48.9778 358.533 49.5017 360.021L50.3709 362.489C50.8947 363.977 50.1134 365.607 48.6257 366.131C47.138 366.655 45.5073 365.874 44.9834 364.386L44.1142 361.918Z" fill="white" fill-opacity="0.2"/>
<path d="M106.359 339.999C105.836 338.512 106.617 336.881 108.105 336.357C109.592 335.833 111.223 336.614 111.747 338.102L112.616 340.57C113.14 342.058 112.359 343.689 110.871 344.213C109.383 344.737 107.753 343.955 107.229 342.468L106.359 339.999Z" fill="white" fill-opacity="0.2"/>
<path d="M1020.47 112.83C1019.87 113.171 1019.16 113.281 1018.45 113.09C1008.66 110.474 998.567 116.299 995.938 126.087C995.559 127.5 994.098 128.344 992.684 127.965C991.271 127.586 990.428 126.125 990.806 124.712C994.188 112.09 1007.2 104.577 1019.82 107.959C1021.24 108.338 1022.08 109.799 1021.7 111.212C1021.51 111.926 1021.05 112.493 1020.47 112.83Z" fill="white" fill-opacity="0.21"/>
<path d="M1017.83 122.644C1017.24 122.986 1016.52 123.096 1015.81 122.905C1013.7 122.339 1011.48 122.634 1009.58 123.729C1007.69 124.824 1006.32 126.597 1005.76 128.71C1005.38 130.123 1003.92 130.967 1002.5 130.588C1001.09 130.21 1000.25 128.749 1000.62 127.335C1001.56 123.851 1003.8 120.935 1006.93 119.128C1010.06 117.32 1013.7 116.84 1017.19 117.783C1018.6 118.161 1019.45 119.622 1019.07 121.036C1018.88 121.735 1018.42 122.303 1017.83 122.644Z" fill="white" fill-opacity="0.21"/>
<path d="M1015.46 133.914C1017.16 132.935 1017.74 130.767 1016.76 129.071C1015.78 127.375 1013.61 126.794 1011.92 127.773C1010.22 128.752 1009.64 130.921 1010.62 132.617C1011.6 134.312 1013.77 134.893 1015.46 133.914Z" fill="white" fill-opacity="0.21"/>
<path d="M1023.14 102.855C1022.55 103.197 1021.83 103.307 1021.12 103.116C1005.83 99.0256 990.067 108.125 985.972 123.409C985.593 124.822 984.132 125.666 982.719 125.287C981.306 124.909 980.462 123.447 980.841 122.034C983.193 113.254 988.819 105.923 996.691 101.378C1004.56 96.8337 1013.72 95.6268 1022.5 97.9796C1023.92 98.3583 1024.76 99.8196 1024.38 101.233C1024.18 101.951 1023.72 102.519 1023.14 102.855Z" fill="white" fill-opacity="0.21"/>
<path d="M265.152 466.145C264.561 466.487 263.847 466.597 263.134 466.406C253.343 463.79 243.253 469.615 240.623 479.402C240.245 480.815 238.783 481.659 237.37 481.28C235.957 480.902 235.113 479.441 235.492 478.027C238.874 465.405 251.887 457.892 264.509 461.274C265.922 461.653 266.766 463.114 266.387 464.528C266.196 465.241 265.735 465.809 265.152 466.145Z" fill="white" fill-opacity="0.21"/>
<path d="M262.515 475.96C261.924 476.301 261.21 476.412 260.497 476.221C258.384 475.654 256.165 475.95 254.269 477.044C252.373 478.139 251.008 479.913 250.442 482.026C250.063 483.439 248.602 484.283 247.189 483.904C245.776 483.525 244.932 482.064 245.311 480.651C246.244 477.166 248.481 474.251 251.612 472.443C254.744 470.635 258.387 470.155 261.877 471.098C263.29 471.477 264.134 472.938 263.755 474.351C263.567 475.051 263.106 475.618 262.515 475.96Z" fill="white" fill-opacity="0.21"/>
<path d="M260.15 487.23C261.845 486.251 262.426 484.082 261.447 482.387C260.468 480.691 258.3 480.11 256.604 481.089C254.908 482.068 254.327 484.236 255.306 485.932C256.286 487.628 258.454 488.209 260.15 487.23Z" fill="white" fill-opacity="0.21"/>
<path d="M267.825 456.171C267.233 456.512 266.52 456.623 265.807 456.431C250.514 452.341 234.753 461.441 230.658 476.725C230.279 478.138 228.818 478.981 227.405 478.603C225.991 478.224 225.148 476.763 225.526 475.35C227.879 466.569 233.505 459.239 241.377 454.694C249.248 450.149 258.409 448.942 267.19 451.295C268.603 451.674 269.447 453.135 269.068 454.548C268.869 455.267 268.408 455.834 267.825 456.171Z" fill="white" fill-opacity="0.21"/>
<path d="M1017.23 688.782C1016.56 688.646 1015.95 688.256 1015.54 687.64C1009.94 679.194 998.525 676.872 990.07 682.46C988.85 683.268 987.197 682.932 986.389 681.712C985.582 680.492 985.918 678.838 987.138 678.031C998.034 670.817 1012.76 673.812 1019.97 684.708C1020.78 685.928 1020.44 687.581 1019.22 688.389C1018.61 688.797 1017.89 688.916 1017.23 688.782Z" fill="white" fill-opacity="0.21"/>
<path d="M1008.75 694.386C1008.08 694.25 1007.47 693.86 1007.06 693.244C1005.86 691.42 1004 690.171 1001.85 689.735C999.708 689.299 997.51 689.723 995.686 690.931C994.466 691.738 992.813 691.402 992.005 690.182C991.198 688.962 991.534 687.309 992.754 686.501C995.762 684.509 999.369 683.808 1002.91 684.529C1006.46 685.249 1009.5 687.304 1011.49 690.322C1012.3 691.542 1011.96 693.195 1010.74 694.003C1010.14 694.403 1009.42 694.522 1008.75 694.386Z" fill="white" fill-opacity="0.21"/>
<path d="M999.51 701.26C1001.43 701.651 1003.3 700.411 1003.69 698.493C1004.08 696.574 1002.84 694.702 1000.92 694.312C999.004 693.922 997.132 695.161 996.742 697.08C996.352 698.998 997.591 700.87 999.51 701.26Z" fill="white" fill-opacity="0.21"/>
<path d="M1025.84 683.082C1025.17 682.946 1024.56 682.556 1024.15 681.94C1015.41 668.744 997.574 665.117 984.38 673.852C983.16 674.659 981.507 674.323 980.699 673.103C979.891 671.883 980.228 670.23 981.448 669.422C989.028 664.404 998.098 662.641 1007.01 664.452C1015.91 666.264 1023.57 671.43 1028.59 679.01C1029.4 680.23 1029.06 681.883 1027.84 682.691C1027.22 683.096 1026.5 683.216 1025.84 683.082Z" fill="white" fill-opacity="0.21"/>
<path d="M1270.08 100.458C1269.43 100.248 1268.87 99.7935 1268.53 99.1363C1263.9 90.1218 1252.81 86.5507 1243.79 91.1692C1242.49 91.8368 1240.88 91.3196 1240.21 90.0178C1239.55 88.716 1240.06 87.1099 1241.36 86.4423C1252.99 80.479 1267.29 85.0844 1273.26 96.7121C1273.93 98.0139 1273.41 99.62 1272.11 100.288C1271.45 100.625 1270.72 100.664 1270.08 100.458Z" fill="white" fill-opacity="0.21"/>
<path d="M1261.03 105.089C1260.38 104.88 1259.82 104.425 1259.48 103.768C1258.49 101.821 1256.78 100.375 1254.69 99.7034C1252.61 99.0323 1250.38 99.2108 1248.43 100.209C1247.13 100.877 1245.52 100.359 1244.86 99.0576C1244.19 97.7558 1244.71 96.1497 1246.01 95.4821C1249.22 93.8357 1252.88 93.5378 1256.32 94.646C1259.76 95.7543 1262.56 98.1332 1264.21 101.353C1264.88 102.655 1264.36 104.261 1263.06 104.929C1262.41 105.259 1261.68 105.298 1261.03 105.089Z" fill="white" fill-opacity="0.21"/>
<path d="M1251.09 110.898C1252.95 111.499 1254.95 110.474 1255.55 108.61C1256.15 106.747 1255.13 104.749 1253.26 104.149C1251.4 103.549 1249.4 104.573 1248.8 106.437C1248.2 108.301 1249.23 110.298 1251.09 110.898Z" fill="white" fill-opacity="0.21"/>
<path d="M1279.27 95.7454C1278.62 95.5361 1278.06 95.0812 1277.72 94.424C1270.49 80.3414 1253.17 74.7632 1239.09 81.9839C1237.78 82.6515 1236.18 82.1343 1235.51 80.8325C1234.84 79.5307 1235.36 77.9246 1236.66 77.257C1244.75 73.1087 1253.96 72.3601 1262.61 75.1462C1271.26 77.9322 1278.31 83.9141 1282.46 92.0029C1283.12 93.3047 1282.61 94.9108 1281.3 95.5784C1280.64 95.9124 1279.91 95.9517 1279.27 95.7454Z" fill="white" fill-opacity="0.21"/>
<path d="M362.269 960.434C361.619 960.224 361.058 959.77 360.721 959.112C356.09 950.098 345 946.527 335.979 951.145C334.678 951.813 333.071 951.296 332.404 949.994C331.736 948.692 332.253 947.086 333.555 946.418C345.183 940.455 359.485 945.061 365.448 956.688C366.116 957.99 365.599 959.596 364.297 960.264C363.64 960.601 362.91 960.64 362.269 960.434Z" fill="white" fill-opacity="0.21"/>
<path d="M353.223 965.065C352.573 964.856 352.012 964.401 351.675 963.744C350.677 961.797 348.969 960.351 346.885 959.679C344.801 959.008 342.57 959.187 340.623 960.185C339.322 960.853 337.715 960.335 337.048 959.034C336.38 957.732 336.897 956.126 338.199 955.458C341.409 953.812 345.072 953.514 348.514 954.622C351.955 955.73 354.756 958.109 356.399 961.329C357.067 962.631 356.549 964.237 355.248 964.905C354.603 965.235 353.873 965.274 353.223 965.065Z" fill="white" fill-opacity="0.21"/>
<path d="M343.28 970.875C345.144 971.475 347.141 970.45 347.742 968.586C348.342 966.723 347.317 964.725 345.454 964.125C343.59 963.525 341.592 964.549 340.992 966.413C340.392 968.277 341.416 970.274 343.28 970.875Z" fill="white" fill-opacity="0.21"/>
<path d="M371.457 955.721C370.807 955.512 370.247 955.057 369.91 954.4C362.679 940.317 345.356 934.739 331.277 941.96C329.975 942.628 328.369 942.11 327.701 940.809C327.034 939.507 327.551 937.901 328.852 937.233C336.941 933.085 346.151 932.336 354.803 935.122C363.455 937.908 370.498 943.89 374.646 951.979C375.314 953.281 374.797 954.887 373.495 955.555C372.828 955.888 372.098 955.928 371.457 955.721Z" fill="white" fill-opacity="0.21"/>
<defs>
<clipPath id="clip0_29_303">
<rect width="65" height="66" fill="white" transform="matrix(-0.869663 -0.493646 -0.493646 0.869663 419.124 604.669)"/>
</clipPath>
<clipPath id="clip1_29_303">
<rect width="65" height="66" fill="white" transform="translate(696.72 445.38) rotate(-29.5805)"/>
</clipPath>
<clipPath id="clip2_29_303">
<rect width="65" height="66" fill="white" transform="translate(257.274 794.59) rotate(15)"/>
</clipPath>
<clipPath id="clip3_29_303">
<rect width="65" height="66" fill="white" transform="translate(1218.74 887.141) rotate(-48.9789)"/>
</clipPath>
<clipPath id="clip4_29_303">
<rect width="65" height="66" fill="white" transform="translate(1135.01 628.203) rotate(-48.9789)"/>
</clipPath>
<clipPath id="clip5_29_303">
<rect width="65" height="66" fill="white" transform="translate(637.375 893.756) rotate(-40.7068)"/>
</clipPath>
</defs>
</svg>
