<svg width="94" height="55" viewBox="0 0 94 55" fill="none" xmlns="http://www.w3.org/2000/svg">
<path d="M53.7909 31.4452C57.2016 29.9231 59.9791 27.2654 61.65 23.9251C63.321 20.5848 63.782 16.7684 62.9545 13.1263C62.1271 9.48414 60.0624 6.24158 57.1122 3.95108C54.1621 1.66059 50.509 0.463891 46.7754 0.564882C43.0418 0.665873 39.4588 2.05831 36.6367 4.50493C33.8147 6.95156 31.9283 10.301 31.299 13.9825C30.6696 17.6641 31.3363 21.4499 33.1854 24.6951C35.0344 27.9402 37.9515 30.4438 41.4395 31.7793L44.0439 24.977C42.1296 24.244 40.5287 22.87 39.5139 21.0891C38.4991 19.3081 38.1332 17.2303 38.4786 15.2099C38.824 13.1894 39.8593 11.3511 41.4081 10.0084C42.9569 8.66565 44.9233 7.90146 46.9724 7.84603C49.0214 7.7906 51.0263 8.44737 52.6454 9.70443C54.2645 10.9615 55.3976 12.7411 55.8517 14.7399C56.3058 16.7388 56.0528 18.8333 55.1358 20.6665C54.2187 22.4997 52.6944 23.9583 50.8226 24.7936L53.7909 31.4452Z" fill="white"/>
<path d="M46.6776 12.7129C46.6776 12.4177 46.9169 12.1784 47.2121 12.1784C47.5073 12.1784 47.7466 12.4177 47.7466 12.7129V20.6925C47.7466 20.9877 47.5073 21.227 47.2121 21.227C46.9169 21.227 46.6776 20.9877 46.6776 20.6925V12.7129Z" fill="white"/>
<path d="M48.7361 14.2394C48.7361 13.9442 48.9754 13.7049 49.2706 13.7049C49.5658 13.7049 49.8051 13.9442 49.8051 14.2394V19.166C49.8051 19.4612 49.5658 19.7005 49.2706 19.7005C48.9754 19.7005 48.7361 19.4612 48.7361 19.166V14.2394Z" fill="white"/>
<path d="M45.6881 14.2394C45.6881 13.9442 45.4487 13.7049 45.1535 13.7049C44.8583 13.7049 44.619 13.9442 44.619 14.2394V19.166C44.619 19.4612 44.8583 19.7005 45.1535 19.7005C45.4487 19.7005 45.6881 19.4612 45.6881 19.166V14.2394Z" fill="white"/>
<path d="M50.7947 15.5238C50.7947 15.2286 51.034 14.9893 51.3292 14.9893C51.6244 14.9893 51.8637 15.2286 51.8637 15.5238V17.8817C51.8637 18.1769 51.6244 18.4162 51.3292 18.4162C51.034 18.4162 50.7947 18.1769 50.7947 17.8817V15.5238Z" fill="white"/>
<path d="M43.6294 15.5238C43.6294 15.2286 43.3901 14.9893 43.0949 14.9893C42.7997 14.9893 42.5604 15.2286 42.5604 15.5238V17.8817C42.5604 18.1769 42.7997 18.4162 43.0949 18.4162C43.3901 18.4162 43.6294 18.1769 43.6294 17.8817V15.5238Z" fill="white"/>
<path d="M40.5019 16.4578C40.5019 16.1626 40.7412 15.9233 41.0364 15.9233C41.3316 15.9233 41.5709 16.1626 41.5709 16.4578V16.9476C41.5709 17.2428 41.3316 17.4821 41.0364 17.4821C40.7412 17.4821 40.5019 17.2428 40.5019 16.9476V16.4578Z" fill="white"/>
<path d="M52.853 16.4578C52.853 16.1626 53.0923 15.9233 53.3875 15.9233C53.6828 15.9233 53.9221 16.1626 53.9221 16.4578V16.9476C53.9221 17.2428 53.6828 17.4821 53.3875 17.4821C53.0923 17.4821 52.853 17.2428 52.853 16.9476V16.4578Z" fill="white"/>
<path d="M0.924072 38.5515H3.4523C4.05653 38.5515 4.5892 38.6681 5.05033 38.9013C5.51675 39.1292 5.87717 39.4525 6.13158 39.8713C6.39129 40.29 6.52115 40.7776 6.52115 41.3341C6.52115 41.8907 6.39129 42.3783 6.13158 42.797C5.87717 43.2157 5.51675 43.5417 5.05033 43.7749C4.5892 44.0028 4.05653 44.1168 3.4523 44.1168H0.924072V38.5515ZM3.38869 43.0594C3.94522 43.0594 4.38779 42.9057 4.71641 42.5982C5.05033 42.2855 5.21728 41.8642 5.21728 41.3341C5.21728 40.8041 5.05033 40.3854 4.71641 40.078C4.38779 39.7653 3.94522 39.6089 3.38869 39.6089H2.21204V43.0594H3.38869Z" fill="white"/>
<path d="M7.40501 39.8395H8.64527V44.1168H7.40501V39.8395ZM8.02514 39.2432C7.79723 39.2432 7.61172 39.1769 7.46861 39.0444C7.3255 38.9119 7.25395 38.7476 7.25395 38.5515C7.25395 38.3554 7.3255 38.1911 7.46861 38.0586C7.61172 37.9261 7.79723 37.8598 8.02514 37.8598C8.25305 37.8598 8.43856 37.9234 8.58167 38.0506C8.72477 38.1778 8.79633 38.3368 8.79633 38.5276C8.79633 38.7344 8.72477 38.9066 8.58167 39.0444C8.43856 39.1769 8.25305 39.2432 8.02514 39.2432Z" fill="white"/>
<path d="M14.2088 39.8395V43.4012C14.2088 44.1857 14.0047 44.7687 13.5966 45.1503C13.1885 45.5319 12.5922 45.7228 11.8078 45.7228C11.3944 45.7228 11.0021 45.6724 10.6311 45.5717C10.2601 45.471 9.9527 45.3252 9.70888 45.1344L10.2018 44.244C10.382 44.3924 10.6099 44.509 10.8855 44.5938C11.1612 44.6839 11.4368 44.729 11.7124 44.729C12.1417 44.729 12.4571 44.6309 12.6585 44.4348C12.8652 44.244 12.9685 43.9525 12.9685 43.5602V43.3774C12.6452 43.7325 12.1947 43.9101 11.617 43.9101C11.2248 43.9101 10.8643 43.8253 10.5357 43.6556C10.2124 43.4807 9.95535 43.2369 9.76454 42.9242C9.57373 42.6115 9.47832 42.2511 9.47832 41.843C9.47832 41.4348 9.57373 41.0744 9.76454 40.7617C9.95535 40.449 10.2124 40.2078 10.5357 40.0382C10.8643 39.8633 11.2248 39.7759 11.617 39.7759C12.2371 39.7759 12.7088 39.9799 13.0321 40.388V39.8395H14.2088ZM11.8634 42.8924C12.1921 42.8924 12.4597 42.797 12.6664 42.6062C12.8784 42.4101 12.9844 42.1557 12.9844 41.843C12.9844 41.5302 12.8784 41.2785 12.6664 41.0877C12.4597 40.8916 12.1921 40.7935 11.8634 40.7935C11.5348 40.7935 11.2645 40.8916 11.0525 41.0877C10.8405 41.2785 10.7345 41.5302 10.7345 41.843C10.7345 42.1557 10.8405 42.4101 11.0525 42.6062C11.2645 42.797 11.5348 42.8924 11.8634 42.8924Z" fill="white"/>
<path d="M15.3632 39.8395H16.6034V44.1168H15.3632V39.8395ZM15.9833 39.2432C15.7554 39.2432 15.5699 39.1769 15.4268 39.0444C15.2837 38.9119 15.2121 38.7476 15.2121 38.5515C15.2121 38.3554 15.2837 38.1911 15.4268 38.0586C15.5699 37.9261 15.7554 37.8598 15.9833 37.8598C16.2112 37.8598 16.3967 37.9234 16.5398 38.0506C16.6829 38.1778 16.7545 38.3368 16.7545 38.5276C16.7545 38.7344 16.6829 38.9066 16.5398 39.0444C16.3967 39.1769 16.2112 39.2432 15.9833 39.2432Z" fill="white"/>
<path d="M20.5133 43.9101C20.3914 44.0002 20.2403 44.0691 20.0601 44.1168C19.8852 44.1592 19.6997 44.1804 19.5036 44.1804C18.9948 44.1804 18.5999 44.0505 18.319 43.7908C18.0434 43.5311 17.9056 43.1495 17.9056 42.6459V40.8889H17.2457V39.9349H17.9056V38.8934H19.1458V39.9349H20.2112V40.8889H19.1458V42.63C19.1458 42.8103 19.1909 42.9507 19.281 43.0514C19.3764 43.1468 19.5089 43.1945 19.6785 43.1945C19.8746 43.1945 20.0416 43.1415 20.1794 43.0355L20.5133 43.9101Z" fill="white"/>
<path d="M22.9347 39.7759C23.5973 39.7759 24.1061 39.9349 24.4612 40.2529C24.8163 40.5656 24.9939 41.04 24.9939 41.676V44.1168H23.8331V43.5841C23.5999 43.9816 23.1653 44.1804 22.5293 44.1804C22.2006 44.1804 21.9144 44.1247 21.6706 44.0134C21.4321 43.9021 21.2492 43.7484 21.122 43.5523C20.9948 43.3562 20.9312 43.1336 20.9312 42.8845C20.9312 42.4869 21.0796 42.1742 21.3765 41.9463C21.6786 41.7184 22.1423 41.6044 22.7678 41.6044H23.7536C23.7536 41.3341 23.6715 41.1274 23.5072 40.9843C23.3429 40.8359 23.0964 40.7617 22.7678 40.7617C22.5399 40.7617 22.3146 40.7988 22.092 40.873C21.8747 40.9419 21.6892 41.0373 21.5355 41.1592L21.0902 40.2926C21.3235 40.1283 21.6017 40.0011 21.925 39.911C22.2537 39.8209 22.5902 39.7759 22.9347 39.7759ZM22.8393 43.3456C23.0513 43.3456 23.2395 43.2979 23.4038 43.2025C23.5681 43.1018 23.6847 42.956 23.7536 42.7652V42.3279H22.9029C22.3941 42.3279 22.1397 42.4949 22.1397 42.8288C22.1397 42.9878 22.2006 43.115 22.3226 43.2104C22.4498 43.3005 22.622 43.3456 22.8393 43.3456Z" fill="white"/>
<path d="M26.1164 38.2176H27.3566V44.1168H26.1164V38.2176Z" fill="white"/>
<path d="M31.6247 39.3585H29.8438V38.309H34.6936V39.3585H32.9127V43.8743H31.6247V39.3585Z" fill="white"/>
<path d="M36.3906 40.1615C36.539 39.9547 36.7377 39.7984 36.9868 39.6924C37.2412 39.5864 37.5328 39.5334 37.8614 39.5334V40.6782C37.7236 40.6676 37.6308 40.6623 37.5831 40.6623C37.228 40.6623 36.9497 40.763 36.7483 40.9644C36.5469 41.1605 36.4462 41.4574 36.4462 41.8549V43.8743H35.2059V39.597H36.3906V40.1615Z" fill="white"/>
<path d="M40.3008 39.5334C40.9633 39.5334 41.4721 39.6924 41.8273 40.0104C42.1824 40.3231 42.3599 40.7975 42.3599 41.4335V43.8743H41.1992V43.3416C40.966 43.7391 40.5313 43.9379 39.8953 43.9379C39.5667 43.9379 39.2805 43.8822 39.0367 43.7709C38.7982 43.6596 38.6153 43.5059 38.4881 43.3098C38.3609 43.1137 38.2973 42.8911 38.2973 42.642C38.2973 42.2445 38.4457 41.9317 38.7425 41.7038C39.0446 41.4759 39.5084 41.362 40.1338 41.362H41.1197C41.1197 41.0916 41.0375 40.8849 40.8732 40.7418C40.7089 40.5934 40.4624 40.5192 40.1338 40.5192C39.9059 40.5192 39.6806 40.5563 39.458 40.6305C39.2407 40.6994 39.0552 40.7948 38.9015 40.9167L38.4563 40.0501C38.6895 39.8858 38.9678 39.7586 39.2911 39.6685C39.6197 39.5784 39.9563 39.5334 40.3008 39.5334ZM40.2054 43.1031C40.4174 43.1031 40.6055 43.0554 40.7698 42.96C40.9342 42.8593 41.0508 42.7135 41.1197 42.5227V42.0854H40.269C39.7602 42.0854 39.5057 42.2524 39.5057 42.5863C39.5057 42.7453 39.5667 42.8725 39.6886 42.9679C39.8158 43.058 39.9881 43.1031 40.2054 43.1031Z" fill="white"/>
<path d="M46.0822 39.5334C46.6122 39.5334 47.0389 39.6924 47.3622 40.0104C47.6908 40.3284 47.8551 40.8001 47.8551 41.4256V43.8743H46.6149V41.6164C46.6149 41.2772 46.5407 41.0254 46.3923 40.8611C46.2439 40.6915 46.0292 40.6067 45.7483 40.6067C45.4356 40.6067 45.1865 40.7047 45.0009 40.9008C44.8154 41.0916 44.7227 41.3779 44.7227 41.7595V43.8743H43.4824V39.597H44.667V40.0978C44.8313 39.9176 45.0354 39.7798 45.2792 39.6844C45.523 39.5837 45.7907 39.5334 46.0822 39.5334Z" fill="white"/>
<path d="M50.4184 43.9379C50.0633 43.9379 49.7161 43.8955 49.3769 43.8107C49.0377 43.7206 48.7674 43.6093 48.566 43.4768L48.9794 42.5863C49.1702 42.7082 49.4007 42.8089 49.6711 42.8884C49.9414 42.9626 50.2064 42.9997 50.4661 42.9997C50.9908 42.9997 51.2532 42.8699 51.2532 42.6102C51.2532 42.4883 51.1816 42.4008 51.0385 42.3478C50.8954 42.2948 50.6755 42.2498 50.3786 42.2127C50.0288 42.1596 49.74 42.0987 49.5121 42.0298C49.2841 41.9609 49.0854 41.839 48.9158 41.6641C48.7515 41.4892 48.6693 41.2401 48.6693 40.9167C48.6693 40.6464 48.7462 40.4079 48.8999 40.2012C49.0589 39.9892 49.2868 39.8249 49.5836 39.7083C49.8857 39.5917 50.2408 39.5334 50.649 39.5334C50.9511 39.5334 51.2505 39.5678 51.5474 39.6367C51.8495 39.7003 52.0986 39.7904 52.2947 39.907L51.8813 40.7895C51.505 40.5775 51.0942 40.4715 50.649 40.4715C50.3839 40.4715 50.1852 40.5086 50.0527 40.5828C49.9202 40.657 49.8539 40.7524 49.8539 40.869C49.8539 41.0015 49.9255 41.0943 50.0686 41.1473C50.2117 41.2003 50.4396 41.2507 50.7523 41.2984C51.1021 41.3567 51.3883 41.4203 51.611 41.4892C51.8336 41.5528 52.027 41.672 52.1913 41.8469C52.3556 42.0218 52.4378 42.2657 52.4378 42.5784C52.4378 42.8434 52.3583 43.0792 52.1993 43.286C52.0403 43.4927 51.8071 43.6543 51.4997 43.7709C51.1975 43.8822 50.8371 43.9379 50.4184 43.9379Z" fill="white"/>
<path d="M54.5625 39.6924H55.6597V40.6464H54.5943V43.8743H53.3541V40.6464H52.6942V39.6924H53.3541V39.5016C53.3541 39.0139 53.4972 38.627 53.7834 38.3408C54.0749 38.0546 54.483 37.9115 55.0078 37.9115C55.1933 37.9115 55.3682 37.9327 55.5325 37.9751C55.7021 38.0122 55.8426 38.0678 55.9539 38.1421L55.6279 39.0404C55.4848 38.9397 55.3178 38.8894 55.127 38.8894C54.7507 38.8894 54.5625 39.0961 54.5625 39.5095V39.6924Z" fill="white"/>
<path d="M58.2585 43.9379C57.808 43.9379 57.4025 43.8451 57.0421 43.6596C56.687 43.4688 56.4087 43.2065 56.2073 42.8725C56.0059 42.5386 55.9052 42.1596 55.9052 41.7356C55.9052 41.3116 56.0059 40.9326 56.2073 40.5987C56.4087 40.2648 56.687 40.0051 57.0421 39.8196C57.4025 39.6288 57.808 39.5334 58.2585 39.5334C58.7091 39.5334 59.1119 39.6288 59.467 39.8196C59.8221 40.0051 60.1004 40.2648 60.3018 40.5987C60.5032 40.9326 60.6039 41.3116 60.6039 41.7356C60.6039 42.1596 60.5032 42.5386 60.3018 42.8725C60.1004 43.2065 59.8221 43.4688 59.467 43.6596C59.1119 43.8451 58.7091 43.9379 58.2585 43.9379ZM58.2585 42.9202C58.5766 42.9202 58.8363 42.8142 59.0377 42.6022C59.2444 42.3849 59.3477 42.096 59.3477 41.7356C59.3477 41.3752 59.2444 41.089 59.0377 40.877C58.8363 40.6597 58.5766 40.551 58.2585 40.551C57.9405 40.551 57.6782 40.6597 57.4715 40.877C57.2647 41.089 57.1614 41.3752 57.1614 41.7356C57.1614 42.096 57.2647 42.3849 57.4715 42.6022C57.6782 42.8142 57.9405 42.9202 58.2585 42.9202Z" fill="white"/>
<path d="M62.6175 40.1615C62.7659 39.9547 62.9647 39.7984 63.2138 39.6924C63.4682 39.5864 63.7597 39.5334 64.0883 39.5334V40.6782C63.9505 40.6676 63.8578 40.6623 63.8101 40.6623C63.455 40.6623 63.1767 40.763 62.9753 40.9644C62.7739 41.1605 62.6732 41.4574 62.6732 41.8549V43.8743H61.4329V39.597H62.6175V40.1615Z" fill="white"/>
<path d="M70.3036 39.5334C70.839 39.5334 71.263 39.6924 71.5757 40.0104C71.8937 40.3231 72.0527 40.7948 72.0527 41.4256V43.8743H70.8125V41.6164C70.8125 41.2772 70.7409 41.0254 70.5978 40.8611C70.46 40.6915 70.2612 40.6067 70.0015 40.6067C69.71 40.6067 69.4794 40.7021 69.3098 40.8929C69.1402 41.0784 69.0554 41.3567 69.0554 41.7277V43.8743H67.8152V41.6164C67.8152 40.9432 67.5448 40.6067 67.0042 40.6067C66.718 40.6067 66.4901 40.7021 66.3205 40.8929C66.1509 41.0784 66.0661 41.3567 66.0661 41.7277V43.8743H64.8258V39.597H66.0104V40.0899C66.1694 39.9097 66.3629 39.7719 66.5908 39.6765C66.824 39.5811 67.0784 39.5334 67.354 39.5334C67.6562 39.5334 67.9291 39.5943 68.1729 39.7162C68.4167 39.8328 68.6128 40.0051 68.7613 40.233C68.9362 40.0104 69.1561 39.8381 69.4211 39.7162C69.6915 39.5943 69.9856 39.5334 70.3036 39.5334Z" fill="white"/>
<path d="M74.8896 39.5334C75.5522 39.5334 76.061 39.6924 76.4161 40.0104C76.7712 40.3231 76.9488 40.7975 76.9488 41.4335V43.8743H75.788V43.3416C75.5548 43.7391 75.1202 43.9379 74.4842 43.9379C74.1556 43.9379 73.8693 43.8822 73.6255 43.7709C73.387 43.6596 73.2042 43.5059 73.0769 43.3098C72.9497 43.1137 72.8861 42.8911 72.8861 42.642C72.8861 42.2445 73.0345 41.9317 73.3314 41.7038C73.6335 41.4759 74.0973 41.362 74.7227 41.362H75.7085C75.7085 41.0916 75.6264 40.8849 75.4621 40.7418C75.2978 40.5934 75.0513 40.5192 74.7227 40.5192C74.4948 40.5192 74.2695 40.5563 74.0469 40.6305C73.8296 40.6994 73.6441 40.7948 73.4904 40.9167L73.0451 40.0501C73.2784 39.8858 73.5566 39.7586 73.8799 39.6685C74.2086 39.5784 74.5451 39.5334 74.8896 39.5334ZM74.7942 43.1031C75.0062 43.1031 75.1944 43.0554 75.3587 42.96C75.523 42.8593 75.6396 42.7135 75.7085 42.5227V42.0854H74.8578C74.349 42.0854 74.0946 42.2524 74.0946 42.5863C74.0946 42.7453 74.1556 42.8725 74.2775 42.9679C74.4047 43.058 74.5769 43.1031 74.7942 43.1031Z" fill="white"/>
<path d="M80.8301 43.6676C80.7082 43.7577 80.5571 43.8266 80.3769 43.8743C80.202 43.9167 80.0165 43.9379 79.8204 43.9379C79.3116 43.9379 78.9167 43.808 78.6358 43.5483C78.3602 43.2886 78.2223 42.907 78.2223 42.4035V40.6464H77.5625V39.6924H78.2223V38.6509H79.4626V39.6924H80.528V40.6464H79.4626V42.3876C79.4626 42.5678 79.5077 42.7082 79.5978 42.8089C79.6932 42.9043 79.8257 42.952 79.9953 42.952C80.1914 42.952 80.3583 42.899 80.4962 42.793L80.8301 43.6676Z" fill="white"/>
<path d="M81.5263 39.597H82.7665V43.8743H81.5263V39.597ZM82.1464 39.0007C81.9185 39.0007 81.733 38.9344 81.5899 38.8019C81.4468 38.6694 81.3752 38.5051 81.3752 38.309C81.3752 38.1129 81.4468 37.9486 81.5899 37.8161C81.733 37.6836 81.9185 37.6173 82.1464 37.6173C82.3743 37.6173 82.5598 37.6809 82.703 37.8081C82.8461 37.9353 82.9176 38.0943 82.9176 38.2852C82.9176 38.4919 82.8461 38.6641 82.703 38.8019C82.5598 38.9344 82.3743 39.0007 82.1464 39.0007Z" fill="white"/>
<path d="M85.9529 43.9379C85.5024 43.9379 85.0969 43.8451 84.7365 43.6596C84.3814 43.4688 84.1031 43.2065 83.9017 42.8725C83.7003 42.5386 83.5996 42.1596 83.5996 41.7356C83.5996 41.3116 83.7003 40.9326 83.9017 40.5987C84.1031 40.2648 84.3814 40.0051 84.7365 39.8196C85.0969 39.6288 85.5024 39.5334 85.9529 39.5334C86.4034 39.5334 86.8063 39.6288 87.1614 39.8196C87.5165 40.0051 87.7948 40.2648 87.9962 40.5987C88.1976 40.9326 88.2983 41.3116 88.2983 41.7356C88.2983 42.1596 88.1976 42.5386 87.9962 42.8725C87.7948 43.2065 87.5165 43.4688 87.1614 43.6596C86.8063 43.8451 86.4034 43.9379 85.9529 43.9379ZM85.9529 42.9202C86.2709 42.9202 86.5306 42.8142 86.7321 42.6022C86.9388 42.3849 87.0421 42.096 87.0421 41.7356C87.0421 41.3752 86.9388 41.089 86.7321 40.877C86.5306 40.6597 86.2709 40.551 85.9529 40.551C85.6349 40.551 85.3725 40.6597 85.1658 40.877C84.9591 41.089 84.8558 41.3752 84.8558 41.7356C84.8558 42.096 84.9591 42.3849 85.1658 42.6022C85.3725 42.8142 85.6349 42.9202 85.9529 42.9202Z" fill="white"/>
<path d="M91.7271 39.5334C92.2571 39.5334 92.6838 39.6924 93.0071 40.0104C93.3357 40.3284 93.5 40.8001 93.5 41.4256V43.8743H92.2598V41.6164C92.2598 41.2772 92.1855 41.0254 92.0371 40.8611C91.8887 40.6915 91.6741 40.6067 91.3932 40.6067C91.0805 40.6067 90.8313 40.7047 90.6458 40.9008C90.4603 41.0916 90.3676 41.3779 90.3676 41.7595V43.8743H89.1273V39.597H90.3119V40.0978C90.4762 39.9176 90.6803 39.7798 90.9241 39.6844C91.1679 39.5837 91.4356 39.5334 91.7271 39.5334Z" fill="white"/>
<path d="M4.20687 53.461C3.92993 53.461 3.68033 53.399 3.45805 53.2751C3.23577 53.1476 3.06086 52.9727 2.93332 52.7504C2.80578 52.5281 2.74201 52.2767 2.74201 51.9961C2.74201 51.7155 2.80578 51.4641 2.93332 51.2418C3.06086 51.0195 3.23577 50.8464 3.45805 50.7225C3.68033 50.5987 3.92993 50.5367 4.20687 50.5367C4.48381 50.5367 4.73342 50.5987 4.9557 50.7225C5.17798 50.8464 5.35107 51.0195 5.47496 51.2418C5.6025 51.4641 5.66627 51.7155 5.66627 51.9961C5.66627 52.2767 5.6025 52.5281 5.47496 52.7504C5.35107 52.9727 5.17798 53.1476 4.9557 53.2751C4.73342 53.399 4.48381 53.461 4.20687 53.461ZM4.20687 53.1166C4.41093 53.1166 4.59313 53.0711 4.75346 52.98C4.91744 52.8852 5.04498 52.7522 5.13608 52.5809C5.22717 52.4097 5.27272 52.2147 5.27272 51.9961C5.27272 51.7775 5.22717 51.5825 5.13608 51.4112C5.04498 51.24 4.91744 51.1088 4.75346 51.0177C4.59313 50.923 4.41093 50.8756 4.20687 50.8756C4.00281 50.8756 3.81879 50.923 3.65482 51.0177C3.49449 51.1088 3.36695 51.24 3.27221 51.4112C3.18111 51.5825 3.13556 51.7775 3.13556 51.9961C3.13556 52.2147 3.18111 52.4097 3.27221 52.5809C3.36695 52.7522 3.49449 52.8852 3.65482 52.98C3.81879 53.0711 4.00281 53.1166 4.20687 53.1166Z" fill="white"/>
<path d="M7.40963 49.6786C7.24201 49.6786 7.11447 49.7241 7.02702 49.8152C6.94321 49.9063 6.9013 50.0411 6.9013 50.2197V50.5586H7.78678V50.8865H6.91223V53.4336H6.52416V50.8865H6.01036V50.5586H6.52416V50.2033C6.52416 49.9409 6.59886 49.7332 6.74826 49.5802C6.9013 49.4271 7.1163 49.3506 7.39323 49.3506C7.50255 49.3506 7.60823 49.367 7.71026 49.3998C7.81229 49.4289 7.89792 49.4727 7.96715 49.531L7.83597 49.8207C7.72301 49.7259 7.5809 49.6786 7.40963 49.6786Z" fill="white"/>
<path d="M13.0208 49.6075V53.4336H12.6218V51.6681H10.2278V53.4336H9.82329V49.6075H10.2278V51.3129H12.6218V49.6075H13.0208Z" fill="white"/>
<path d="M15.3628 53.461C15.0859 53.461 14.8363 53.399 14.614 53.2751C14.3917 53.1476 14.2168 52.9727 14.0893 52.7504C13.9618 52.5281 13.898 52.2767 13.898 51.9961C13.898 51.7155 13.9618 51.4641 14.0893 51.2418C14.2168 51.0195 14.3917 50.8464 14.614 50.7225C14.8363 50.5987 15.0859 50.5367 15.3628 50.5367C15.6398 50.5367 15.8894 50.5987 16.1117 50.7225C16.334 50.8464 16.507 51.0195 16.6309 51.2418C16.7585 51.4641 16.8222 51.7155 16.8222 51.9961C16.8222 52.2767 16.7585 52.5281 16.6309 52.7504C16.507 52.9727 16.334 53.1476 16.1117 53.2751C15.8894 53.399 15.6398 53.461 15.3628 53.461ZM15.3628 53.1166C15.5669 53.1166 15.7491 53.0711 15.9094 52.98C16.0734 52.8852 16.201 52.7522 16.2921 52.5809C16.3832 52.4097 16.4287 52.2147 16.4287 51.9961C16.4287 51.7775 16.3832 51.5825 16.2921 51.4112C16.201 51.24 16.0734 51.1088 15.9094 51.0177C15.7491 50.923 15.5669 50.8756 15.3628 50.8756C15.1588 50.8756 14.9748 50.923 14.8108 51.0177C14.6505 51.1088 14.5229 51.24 14.4282 51.4112C14.3371 51.5825 14.2915 51.7775 14.2915 51.9961C14.2915 52.2147 14.3371 52.4097 14.4282 52.5809C14.5229 52.7522 14.6505 52.8852 14.8108 52.98C14.9748 53.0711 15.1588 53.1166 15.3628 53.1166Z" fill="white"/>
<path d="M18.3852 53.461C18.152 53.461 17.9279 53.4282 17.7129 53.3626C17.5016 53.2933 17.3358 53.2077 17.2155 53.1057L17.3904 52.7996C17.5107 52.8943 17.6619 52.9727 17.8441 53.0346C18.0263 53.0929 18.2158 53.1221 18.4126 53.1221C18.6749 53.1221 18.8681 53.082 18.9919 53.0018C19.1195 52.918 19.1833 52.8014 19.1833 52.652C19.1833 52.5463 19.1486 52.4643 19.0794 52.406C19.0102 52.3441 18.9227 52.2985 18.817 52.2694C18.7114 52.2366 18.5711 52.2056 18.3962 52.1765C18.163 52.1327 17.9753 52.089 17.8332 52.0453C17.6911 51.9979 17.569 51.9196 17.467 51.8103C17.3686 51.7009 17.3194 51.5497 17.3194 51.3566C17.3194 51.1161 17.4196 50.9193 17.62 50.7663C17.8204 50.6132 18.0992 50.5367 18.4563 50.5367C18.6421 50.5367 18.828 50.5622 19.0138 50.6132C19.1997 50.6606 19.3527 50.7244 19.4729 50.8045L19.3035 51.1161C19.0666 50.9521 18.7842 50.8701 18.4563 50.8701C18.2085 50.8701 18.0208 50.9139 17.8933 51.0013C17.7694 51.0888 17.7075 51.2035 17.7075 51.3457C17.7075 51.455 17.7421 51.5424 17.8113 51.608C17.8842 51.6736 17.9735 51.7228 18.0791 51.7556C18.1848 51.7848 18.3306 51.8157 18.5164 51.8485C18.746 51.8922 18.93 51.936 19.0685 51.9797C19.2069 52.0234 19.3254 52.0981 19.4238 52.2038C19.5221 52.3095 19.5713 52.4552 19.5713 52.6411C19.5713 52.8925 19.4657 53.0929 19.2543 53.2423C19.0466 53.3881 18.7569 53.461 18.3852 53.461Z" fill="white"/>
<path d="M21.77 50.5367C22.0397 50.5367 22.2838 50.5987 22.5025 50.7225C22.7211 50.8428 22.8924 51.0141 23.0163 51.2363C23.1401 51.4586 23.2021 51.7119 23.2021 51.9961C23.2021 52.284 23.1401 52.539 23.0163 52.7613C22.8924 52.9836 22.7211 53.1567 22.5025 53.2806C22.2875 53.4008 22.0433 53.461 21.77 53.461C21.5368 53.461 21.3255 53.4136 21.136 53.3188C20.9501 53.2205 20.7971 53.0783 20.6769 52.8925V54.494H20.2888V50.5586H20.6605V51.127C20.7771 50.9375 20.9301 50.7918 21.1196 50.6897C21.3127 50.5877 21.5295 50.5367 21.77 50.5367ZM21.7427 53.1166C21.9431 53.1166 22.1253 53.0711 22.2893 52.98C22.4533 52.8852 22.5808 52.7522 22.6719 52.5809C22.7666 52.4097 22.814 52.2147 22.814 51.9961C22.814 51.7775 22.7666 51.5843 22.6719 51.4167C22.5808 51.2455 22.4533 51.1124 22.2893 51.0177C22.1253 50.923 21.9431 50.8756 21.7427 50.8756C21.5386 50.8756 21.3546 50.923 21.1906 51.0177C21.0303 51.1124 20.9028 51.2455 20.808 51.4167C20.7169 51.5843 20.6714 51.7775 20.6714 51.9961C20.6714 52.2147 20.7169 52.4097 20.808 52.5809C20.9028 52.7522 21.0303 52.8852 21.1906 52.98C21.3546 53.0711 21.5386 53.1166 21.7427 53.1166Z" fill="white"/>
<path d="M23.9932 50.5586H24.3813V53.4336H23.9932V50.5586ZM24.19 49.93C24.1098 49.93 24.0424 49.9027 23.9877 49.848C23.9331 49.7933 23.9057 49.7278 23.9057 49.6512C23.9057 49.5784 23.9331 49.5146 23.9877 49.4599C24.0424 49.4053 24.1098 49.3779 24.19 49.3779C24.2701 49.3779 24.3376 49.4053 24.3922 49.4599C24.4469 49.5109 24.4742 49.5729 24.4742 49.6458C24.4742 49.7259 24.4469 49.7933 24.3922 49.848C24.3376 49.9027 24.2701 49.93 24.19 49.93Z" fill="white"/>
<path d="M26.9751 53.2587C26.9023 53.3243 26.8112 53.3753 26.7018 53.4118C26.5962 53.4446 26.485 53.461 26.3684 53.461C26.0988 53.461 25.8911 53.3881 25.7453 53.2423C25.5996 53.0966 25.5267 52.8907 25.5267 52.6247V50.8865H25.0129V50.5586H25.5267V49.93H25.9148V50.5586H26.7893V50.8865H25.9148V52.6028C25.9148 52.7741 25.9567 52.9053 26.0405 52.9964C26.1279 53.0838 26.2518 53.1275 26.4122 53.1275C26.4923 53.1275 26.5688 53.1148 26.6417 53.0893C26.7182 53.0638 26.7838 53.0273 26.8385 52.98L26.9751 53.2587Z" fill="white"/>
<path d="M28.6873 50.5367C29.0627 50.5367 29.3505 50.6314 29.5509 50.8209C29.7514 51.0068 29.8516 51.2837 29.8516 51.6517V53.4336H29.4799V52.9854C29.3924 53.1348 29.2631 53.2514 29.0918 53.3352C28.9242 53.4191 28.7238 53.461 28.4906 53.461C28.1699 53.461 27.9148 53.3844 27.7253 53.2314C27.5359 53.0783 27.4411 52.8761 27.4411 52.6247C27.4411 52.3805 27.5286 52.1838 27.7035 52.0344C27.882 51.885 28.1644 51.8103 28.5507 51.8103H29.4635V51.6353C29.4635 51.3876 29.3943 51.1999 29.2558 51.0724C29.1173 50.9412 28.9151 50.8756 28.6491 50.8756C28.4669 50.8756 28.292 50.9066 28.1243 50.9685C27.9567 51.0268 27.8128 51.1088 27.6925 51.2145L27.5176 50.9248C27.6634 50.8009 27.8383 50.7061 28.0424 50.6406C28.2464 50.5713 28.4614 50.5367 28.6873 50.5367ZM28.5507 53.1549C28.7693 53.1549 28.957 53.1057 29.1137 53.0073C29.2704 52.9053 29.387 52.7595 29.4635 52.57V52.1H28.5616C28.0697 52.1 27.8237 52.2712 27.8237 52.6137C27.8237 52.7814 27.8875 52.9144 28.015 53.0128C28.1426 53.1075 28.3211 53.1549 28.5507 53.1549Z" fill="white"/>
<path d="M30.9056 49.3779H31.2937V53.4336H30.9056V49.3779Z" fill="white"/>
<path d="M37.8597 49.6075V53.4336H37.4717V50.3727L35.9685 52.9472H35.7772L34.2741 50.3891V53.4336H33.886V49.6075H34.2195L35.8811 52.4443L37.5263 49.6075H37.8597Z" fill="white"/>
<path d="M40.0301 50.5367C40.4055 50.5367 40.6933 50.6314 40.8937 50.8209C41.0942 51.0068 41.1944 51.2837 41.1944 51.6517V53.4336H40.8227V52.9854C40.7352 53.1348 40.6059 53.2514 40.4346 53.3352C40.267 53.4191 40.0666 53.461 39.8334 53.461C39.5127 53.461 39.2576 53.3844 39.0681 53.2314C38.8787 53.0783 38.7839 52.8761 38.7839 52.6247C38.7839 52.3805 38.8714 52.1838 39.0463 52.0344C39.2248 51.885 39.5072 51.8103 39.8935 51.8103H40.8063V51.6353C40.8063 51.3876 40.7371 51.1999 40.5986 51.0724C40.4601 50.9412 40.2579 50.8756 39.9919 50.8756C39.8097 50.8756 39.6348 50.9066 39.4671 50.9685C39.2995 51.0268 39.1556 51.1088 39.0353 51.2145L38.8604 50.9248C39.0062 50.8009 39.1811 50.7061 39.3852 50.6406C39.5892 50.5713 39.8042 50.5367 40.0301 50.5367ZM39.8935 53.1549C40.1121 53.1549 40.2998 53.1057 40.4565 53.0073C40.6132 52.9053 40.7298 52.7595 40.8063 52.57V52.1H39.9044C39.4125 52.1 39.1665 52.2712 39.1665 52.6137C39.1665 52.7814 39.2303 52.9144 39.3578 53.0128C39.4854 53.1075 39.6639 53.1549 39.8935 53.1549Z" fill="white"/>
<path d="M43.7133 50.5367C44.074 50.5367 44.3601 50.6424 44.5714 50.8537C44.7864 51.0614 44.8939 51.3657 44.8939 51.7665V53.4336H44.5058V51.8048C44.5058 51.506 44.4311 51.2782 44.2817 51.1216C44.1323 50.9649 43.9192 50.8865 43.6422 50.8865C43.3325 50.8865 43.0865 50.9794 42.9043 51.1653C42.7258 51.3475 42.6365 51.6007 42.6365 51.925V53.4336H42.2484V50.5586H42.6201V51.0888C42.7258 50.9139 42.8715 50.779 43.0574 50.6843C43.2469 50.5859 43.4655 50.5367 43.7133 50.5367Z" fill="white"/>
<path d="M46.9532 50.5367C47.3286 50.5367 47.6164 50.6314 47.8169 50.8209C48.0173 51.0068 48.1175 51.2837 48.1175 51.6517V53.4336H47.7458V52.9854C47.6583 53.1348 47.529 53.2514 47.3577 53.3352C47.1901 53.4191 46.9897 53.461 46.7565 53.461C46.4358 53.461 46.1807 53.3844 45.9912 53.2314C45.8018 53.0783 45.707 52.8761 45.707 52.6247C45.707 52.3805 45.7945 52.1838 45.9694 52.0344C46.1479 51.885 46.4303 51.8103 46.8166 51.8103H47.7294V51.6353C47.7294 51.3876 47.6602 51.1999 47.5217 51.0724C47.3832 50.9412 47.181 50.8756 46.915 50.8756C46.7328 50.8756 46.5579 50.9066 46.3903 50.9685C46.2226 51.0268 46.0787 51.1088 45.9585 51.2145L45.7835 50.9248C45.9293 50.8009 46.1042 50.7061 46.3083 50.6406C46.5123 50.5713 46.7273 50.5367 46.9532 50.5367ZM46.8166 53.1549C47.0352 53.1549 47.2229 53.1057 47.3796 53.0073C47.5363 52.9053 47.6529 52.7595 47.7294 52.57V52.1H46.8275C46.3356 52.1 46.0896 52.2712 46.0896 52.6137C46.0896 52.7814 46.1534 52.9144 46.2809 53.0128C46.4085 53.1075 46.587 53.1549 46.8166 53.1549Z" fill="white"/>
<path d="M51.8441 50.5586V53.0838C51.8441 53.5721 51.7239 53.9328 51.4834 54.1661C51.2465 54.4029 50.8876 54.5213 50.4066 54.5213C50.1406 54.5213 49.8873 54.4813 49.6468 54.4011C49.41 54.3246 49.2168 54.2171 49.0674 54.0786L49.2642 53.7834C49.4027 53.9073 49.5703 54.0039 49.7671 54.0731C49.9675 54.1424 50.177 54.177 50.3957 54.177C50.76 54.177 51.0279 54.0914 51.1991 53.9201C51.3704 53.7525 51.456 53.4901 51.456 53.133V52.7668C51.3358 52.949 51.1773 53.0875 50.9805 53.1822C50.7874 53.2769 50.5724 53.3243 50.3355 53.3243C50.0659 53.3243 49.8199 53.266 49.5976 53.1494C49.379 53.0292 49.2059 52.8634 49.0784 52.652C48.9545 52.437 48.8925 52.1947 48.8925 51.925C48.8925 51.6554 48.9545 51.4149 49.0784 51.2035C49.2059 50.9922 49.379 50.8282 49.5976 50.7116C49.8163 50.595 50.0622 50.5367 50.3355 50.5367C50.5797 50.5367 50.8001 50.5859 50.9969 50.6843C51.1937 50.7827 51.3522 50.9248 51.4724 51.1106V50.5586H51.8441ZM50.3738 52.98C50.5815 52.98 50.7692 52.9362 50.9368 52.8488C51.1044 52.7577 51.2338 52.632 51.3249 52.4716C51.4196 52.3113 51.467 52.1291 51.467 51.925C51.467 51.721 51.4196 51.5406 51.3249 51.3839C51.2338 51.2236 51.1044 51.0997 50.9368 51.0122C50.7728 50.9211 50.5851 50.8756 50.3738 50.8756C50.1661 50.8756 49.9784 50.9193 49.8108 51.0068C49.6468 51.0942 49.5175 51.2181 49.4227 51.3785C49.3316 51.5388 49.2861 51.721 49.2861 51.925C49.2861 52.1291 49.3316 52.3113 49.4227 52.4716C49.5175 52.632 49.6468 52.7577 49.8108 52.8488C49.9784 52.9362 50.1661 52.98 50.3738 52.98Z" fill="white"/>
<path d="M55.4327 52.1163H53.0277C53.0496 52.4152 53.1644 52.6575 53.3721 52.8433C53.5798 53.0255 53.8422 53.1166 54.1592 53.1166C54.3377 53.1166 54.5017 53.0856 54.6511 53.0237C54.8005 52.9581 54.9299 52.8634 55.0392 52.7395L55.2578 52.9909C55.1303 53.1439 54.97 53.2605 54.7768 53.3407C54.5873 53.4209 54.3778 53.461 54.1482 53.461C53.8531 53.461 53.5907 53.399 53.3612 53.2751C53.1352 53.1476 52.9585 52.9727 52.831 52.7504C52.7034 52.5281 52.6397 52.2767 52.6397 51.9961C52.6397 51.7155 52.6998 51.4641 52.82 51.2418C52.9439 51.0195 53.1115 50.8464 53.3229 50.7225C53.5379 50.5987 53.7784 50.5367 54.0444 50.5367C54.3104 50.5367 54.5491 50.5987 54.7604 50.7225C54.9718 50.8464 55.1376 51.0195 55.2578 51.2418C55.3781 51.4604 55.4382 51.7119 55.4382 51.9961L55.4327 52.1163ZM54.0444 50.8701C53.7675 50.8701 53.5342 50.9594 53.3448 51.138C53.1589 51.3129 53.0532 51.5424 53.0277 51.8267H55.0665C55.041 51.5424 54.9335 51.3129 54.744 51.138C54.5582 50.9594 54.325 50.8701 54.0444 50.8701Z" fill="white"/>
<path d="M59.8137 50.5367C60.1745 50.5367 60.4569 50.6406 60.6609 50.8483C60.8686 51.056 60.9725 51.3621 60.9725 51.7665V53.4336H60.5844V51.8048C60.5844 51.506 60.5115 51.2782 60.3658 51.1216C60.2237 50.9649 60.0214 50.8865 59.7591 50.8865C59.4603 50.8865 59.2252 50.9794 59.054 51.1653C58.8827 51.3475 58.7971 51.6007 58.7971 51.925V53.4336H58.409V51.8048C58.409 51.506 58.3361 51.2782 58.1904 51.1216C58.0482 50.9649 57.8442 50.8865 57.5782 50.8865C57.283 50.8865 57.048 50.9794 56.8731 51.1653C56.7018 51.3475 56.6162 51.6007 56.6162 51.925V53.4336H56.2281V50.5586H56.5998V51.0833C56.7018 50.9084 56.8439 50.7736 57.0261 50.6788C57.2083 50.5841 57.4178 50.5367 57.6547 50.5367C57.8952 50.5367 58.1029 50.5877 58.2778 50.6897C58.4564 50.7918 58.5894 50.943 58.6768 51.1434C58.7825 50.9539 58.9337 50.8064 59.1305 50.7007C59.3309 50.5914 59.5587 50.5367 59.8137 50.5367Z" fill="white"/>
<path d="M64.539 52.1163H62.134C62.1559 52.4152 62.2707 52.6575 62.4784 52.8433C62.6861 53.0255 62.9484 53.1166 63.2654 53.1166C63.444 53.1166 63.608 53.0856 63.7574 53.0237C63.9068 52.9581 64.0361 52.8634 64.1455 52.7395L64.3641 52.9909C64.2365 53.1439 64.0762 53.2605 63.8831 53.3407C63.6936 53.4209 63.4841 53.461 63.2545 53.461C62.9593 53.461 62.697 53.399 62.4674 53.2751C62.2415 53.1476 62.0648 52.9727 61.9372 52.7504C61.8097 52.5281 61.7459 52.2767 61.7459 51.9961C61.7459 51.7155 61.806 51.4641 61.9263 51.2418C62.0502 51.0195 62.2178 50.8464 62.4292 50.7225C62.6442 50.5987 62.8847 50.5367 63.1507 50.5367C63.4167 50.5367 63.6554 50.5987 63.8667 50.7225C64.078 50.8464 64.2438 51.0195 64.3641 51.2418C64.4843 51.4604 64.5445 51.7119 64.5445 51.9961L64.539 52.1163ZM63.1507 50.8701C62.8737 50.8701 62.6405 50.9594 62.451 51.138C62.2652 51.3129 62.1595 51.5424 62.134 51.8267H64.1728C64.1473 51.5424 64.0398 51.3129 63.8503 51.138C63.6645 50.9594 63.4312 50.8701 63.1507 50.8701Z" fill="white"/>
<path d="M66.7992 50.5367C67.16 50.5367 67.446 50.6424 67.6574 50.8537C67.8724 51.0614 67.9799 51.3657 67.9799 51.7665V53.4336H67.5918V51.8048C67.5918 51.506 67.5171 51.2782 67.3677 51.1216C67.2183 50.9649 67.0051 50.8865 66.7282 50.8865C66.4184 50.8865 66.1725 50.9794 65.9903 51.1653C65.8117 51.3475 65.7224 51.6007 65.7224 51.925V53.4336H65.3344V50.5586H65.7061V51.0888C65.8117 50.9139 65.9575 50.779 66.1433 50.6843C66.3328 50.5859 66.5515 50.5367 66.7992 50.5367Z" fill="white"/>
<path d="M70.5475 53.2587C70.4746 53.3243 70.3835 53.3753 70.2742 53.4118C70.1685 53.4446 70.0574 53.461 69.9408 53.461C69.6711 53.461 69.4634 53.3881 69.3177 53.2423C69.1719 53.0966 69.0991 52.8907 69.0991 52.6247V50.8865H68.5853V50.5586H69.0991V49.93H69.4871V50.5586H70.3617V50.8865H69.4871V52.6028C69.4871 52.7741 69.529 52.9053 69.6128 52.9964C69.7003 53.0838 69.8242 53.1275 69.9845 53.1275C70.0647 53.1275 70.1412 53.1148 70.2141 53.0893C70.2906 53.0638 70.3562 53.0273 70.4109 52.98L70.5475 53.2587Z" fill="white"/>
<path d="M73.8214 53.4664C73.5372 53.4664 73.2639 53.4209 73.0015 53.3298C72.7428 53.2387 72.5424 53.1184 72.4003 52.969L72.5588 52.6575C72.6973 52.7959 72.8813 52.9089 73.1108 52.9964C73.3404 53.0802 73.5773 53.1221 73.8214 53.1221C74.1639 53.1221 74.4208 53.0601 74.5921 52.9362C74.7634 52.8087 74.849 52.6447 74.849 52.4443C74.849 52.2913 74.8016 52.1692 74.7069 52.0781C74.6158 51.987 74.5028 51.9178 74.368 51.8704C74.2332 51.8194 74.0455 51.7647 73.805 51.7064C73.5171 51.6335 73.2876 51.5643 73.1163 51.4987C72.945 51.4295 72.7975 51.3256 72.6736 51.1871C72.5533 51.0487 72.4932 50.861 72.4932 50.6242C72.4932 50.431 72.5442 50.2561 72.6462 50.0994C72.7483 49.9391 72.905 49.8116 73.1163 49.7168C73.3277 49.6221 73.59 49.5747 73.9034 49.5747C74.122 49.5747 74.3352 49.6057 74.5429 49.6676C74.7543 49.7259 74.9365 49.8079 75.0895 49.9136L74.9528 50.2361C74.7925 50.1304 74.6213 50.0521 74.4391 50.0011C74.2569 49.9464 74.0783 49.9191 73.9034 49.9191C73.5682 49.9191 73.3149 49.9847 73.1436 50.1158C72.976 50.2434 72.8922 50.4092 72.8922 50.6132C72.8922 50.7663 72.9378 50.8902 73.0289 50.9849C73.1236 51.076 73.2402 51.1471 73.3787 51.1981C73.5208 51.2455 73.7103 51.2983 73.9471 51.3566C74.2277 51.4258 74.4536 51.4951 74.6249 51.5643C74.7998 51.6299 74.9474 51.7319 75.0676 51.8704C75.1879 52.0052 75.248 52.1892 75.248 52.4224C75.248 52.6156 75.1952 52.7923 75.0895 52.9526C74.9875 53.1093 74.829 53.235 74.614 53.3298C74.399 53.4209 74.1348 53.4664 73.8214 53.4664Z" fill="white"/>
<path d="M78.4099 50.5586L76.9723 53.778C76.8557 54.0476 76.7209 54.2389 76.5678 54.3519C76.4148 54.4649 76.2308 54.5213 76.0158 54.5213C75.8773 54.5213 75.748 54.4995 75.6277 54.4558C75.5075 54.412 75.4036 54.3464 75.3162 54.259L75.4965 53.9693C75.6423 54.115 75.8172 54.1879 76.0213 54.1879C76.1525 54.1879 76.2636 54.1515 76.3547 54.0786C76.4494 54.0057 76.5369 53.8818 76.6171 53.7069L76.7428 53.4282L75.4583 50.5586H75.8628L76.945 53.0018L78.0272 50.5586H78.4099Z" fill="white"/>
<path d="M79.6951 53.461C79.4619 53.461 79.2378 53.4282 79.0228 53.3626C78.8114 53.2933 78.6456 53.2077 78.5254 53.1057L78.7003 52.7996C78.8205 52.8943 78.9717 52.9727 79.1539 53.0346C79.3361 53.0929 79.5256 53.1221 79.7224 53.1221C79.9848 53.1221 80.1779 53.082 80.3018 53.0018C80.4293 52.918 80.4931 52.8014 80.4931 52.652C80.4931 52.5463 80.4585 52.4643 80.3892 52.406C80.32 52.3441 80.2326 52.2985 80.1269 52.2694C80.0212 52.2366 79.8809 52.2056 79.706 52.1765C79.4728 52.1327 79.2851 52.089 79.143 52.0453C79.0009 51.9979 78.8788 51.9196 78.7768 51.8103C78.6784 51.7009 78.6292 51.5497 78.6292 51.3566C78.6292 51.1161 78.7294 50.9193 78.9298 50.7663C79.1303 50.6132 79.409 50.5367 79.7661 50.5367C79.952 50.5367 80.1378 50.5622 80.3236 50.6132C80.5095 50.6606 80.6625 50.7244 80.7828 50.8045L80.6133 51.1161C80.3765 50.9521 80.0941 50.8701 79.7661 50.8701C79.5183 50.8701 79.3307 50.9139 79.2031 51.0013C79.0792 51.0888 79.0173 51.2035 79.0173 51.3457C79.0173 51.455 79.0519 51.5424 79.1212 51.608C79.194 51.6736 79.2833 51.7228 79.389 51.7556C79.4947 51.7848 79.6404 51.8157 79.8262 51.8485C80.0558 51.8922 80.2398 51.936 80.3783 51.9797C80.5168 52.0234 80.6352 52.0981 80.7336 52.2038C80.832 52.3095 80.8812 52.4552 80.8812 52.6411C80.8812 52.8925 80.7755 53.0929 80.5642 53.2423C80.3564 53.3881 80.0668 53.461 79.6951 53.461Z" fill="white"/>
<path d="M83.1127 53.2587C83.0398 53.3243 82.9487 53.3753 82.8394 53.4118C82.7337 53.4446 82.6226 53.461 82.506 53.461C82.2363 53.461 82.0286 53.3881 81.8828 53.2423C81.7371 53.0966 81.6642 52.8907 81.6642 52.6247V50.8865H81.1504V50.5586H81.6642V49.93H82.0523V50.5586H82.9268V50.8865H82.0523V52.6028C82.0523 52.7741 82.0942 52.9053 82.178 52.9964C82.2655 53.0838 82.3893 53.1275 82.5497 53.1275C82.6298 53.1275 82.7064 53.1148 82.7792 53.0893C82.8558 53.0638 82.9214 53.0273 82.976 52.98L83.1127 53.2587Z" fill="white"/>
<path d="M86.2211 52.1163H83.8161C83.838 52.4152 83.9528 52.6575 84.1605 52.8433C84.3682 53.0255 84.6305 53.1166 84.9475 53.1166C85.1261 53.1166 85.2901 53.0856 85.4395 53.0237C85.5889 52.9581 85.7182 52.8634 85.8275 52.7395L86.0462 52.9909C85.9186 53.1439 85.7583 53.2605 85.5652 53.3407C85.3757 53.4209 85.1662 53.461 84.9366 53.461C84.6414 53.461 84.3791 53.399 84.1495 53.2751C83.9236 53.1476 83.7469 52.9727 83.6193 52.7504C83.4918 52.5281 83.428 52.2767 83.428 51.9961C83.428 51.7155 83.4881 51.4641 83.6084 51.2418C83.7323 51.0195 83.8999 50.8464 84.1113 50.7225C84.3263 50.5987 84.5668 50.5367 84.8328 50.5367C85.0988 50.5367 85.3374 50.5987 85.5488 50.7225C85.7601 50.8464 85.9259 51.0195 86.0462 51.2418C86.1664 51.4604 86.2266 51.7119 86.2266 51.9961L86.2211 52.1163ZM84.8328 50.8701C84.5558 50.8701 84.3226 50.9594 84.1331 51.138C83.9473 51.3129 83.8416 51.5424 83.8161 51.8267H85.8549C85.8294 51.5424 85.7219 51.3129 85.5324 51.138C85.3465 50.9594 85.1133 50.8701 84.8328 50.8701Z" fill="white"/>
<path d="M90.6021 50.5367C90.9628 50.5367 91.2453 50.6406 91.4493 50.8483C91.657 51.056 91.7609 51.3621 91.7609 51.7665V53.4336H91.3728V51.8048C91.3728 51.506 91.2999 51.2782 91.1542 51.1216C91.012 50.9649 90.8098 50.8865 90.5474 50.8865C90.2486 50.8865 90.0136 50.9794 89.8423 51.1653C89.6711 51.3475 89.5854 51.6007 89.5854 51.925V53.4336H89.1974V51.8048C89.1974 51.506 89.1245 51.2782 88.9787 51.1216C88.8366 50.9649 88.6325 50.8865 88.3665 50.8865C88.0714 50.8865 87.8363 50.9794 87.6614 51.1653C87.4902 51.3475 87.4045 51.6007 87.4045 51.925V53.4336H87.0165V50.5586H87.3881V51.0833C87.4902 50.9084 87.6323 50.7736 87.8145 50.6788C87.9967 50.5841 88.2062 50.5367 88.4431 50.5367C88.6836 50.5367 88.8913 50.5877 89.0662 50.6897C89.2447 50.7918 89.3777 50.943 89.4652 51.1434C89.5709 50.9539 89.7221 50.8064 89.9189 50.7007C90.1193 50.5914 90.347 50.5367 90.6021 50.5367Z" fill="white"/>
</svg>
