<svg width="166" height="49" viewBox="0 0 166 49" fill="none" xmlns="http://www.w3.org/2000/svg">
<path d="M35.3282 48.2313C40.5725 45.891 44.843 41.8047 47.4122 36.6687C49.9814 31.5326 50.6903 25.6646 49.418 20.0645C48.1458 14.4644 44.9711 9.47874 40.435 5.95692C35.8989 2.4351 30.282 0.595072 24.5413 0.750354C18.8006 0.905636 13.2913 3.04662 8.95222 6.80851C4.61311 10.5704 1.71263 15.7204 0.744976 21.3811C-0.22268 27.0418 0.802364 32.8629 3.64545 37.8525C6.48854 42.8422 10.9738 46.6916 16.3369 48.745L20.3414 38.286C17.398 37.159 14.9365 35.0464 13.3761 32.308C11.8158 29.5696 11.2532 26.3749 11.7843 23.2682C12.3154 20.1615 13.9072 17.3351 16.2886 15.2705C18.6699 13.206 21.6935 12.0309 24.8441 11.9457C27.9947 11.8605 31.0773 12.8703 33.5668 14.8032C36.0563 16.736 37.7986 19.4722 38.4969 22.5457C39.1951 25.6191 38.8061 28.8395 37.396 31.6583C35.986 34.477 33.6423 36.7196 30.7641 38.004L35.3282 48.2313Z" fill="#6F90D9"/>
<path d="M24.3909 19.429C24.3909 18.9751 24.7588 18.6072 25.2127 18.6072C25.6666 18.6072 26.0346 18.9751 26.0346 19.429V31.6983C26.0346 32.1522 25.6666 32.5202 25.2127 32.5202C24.7588 32.5202 24.3909 32.1522 24.3909 31.6983V19.429Z" fill="#77BABB"/>
<path d="M27.5561 21.7761C27.5561 21.3222 27.924 20.9543 28.3779 20.9543C28.8318 20.9543 29.1998 21.3222 29.1998 21.7761V29.3511C29.1998 29.805 28.8318 30.1729 28.3779 30.1729C27.924 30.1729 27.5561 29.805 27.5561 29.3511V21.7761Z" fill="#77BABB"/>
<path d="M22.8694 21.7761C22.8694 21.3222 22.5015 20.9543 22.0476 20.9543C21.5937 20.9543 21.2257 21.3222 21.2257 21.7761V29.3511C21.2257 29.805 21.5937 30.1729 22.0476 30.1729C22.5015 30.1729 22.8694 29.805 22.8694 29.3511V21.7761Z" fill="#77BABB"/>
<path d="M30.7213 23.7509C30.7213 23.297 31.0893 22.9291 31.5432 22.9291C31.9971 22.9291 32.365 23.297 32.365 23.7509V27.3764C32.365 27.8303 31.9971 28.1982 31.5432 28.1982C31.0893 28.1982 30.7213 27.8303 30.7213 27.3764V23.7509Z" fill="#77BABB"/>
<path d="M19.7041 23.7509C19.7041 23.297 19.3362 22.9291 18.8823 22.9291C18.4284 22.9291 18.0604 23.297 18.0604 23.7509V27.3764C18.0604 27.8303 18.4284 28.1982 18.8823 28.1982C19.3362 28.1982 19.7041 27.8303 19.7041 27.3764V23.7509Z" fill="#77BABB"/>
<path d="M14.8953 25.1871C14.8953 24.7332 15.2632 24.3653 15.7171 24.3653C16.171 24.3653 16.539 24.7332 16.539 25.1871V25.9402C16.539 26.3941 16.171 26.7621 15.7171 26.7621C15.2632 26.7621 14.8953 26.3941 14.8953 25.9402V25.1871Z" fill="#77BABB"/>
<path d="M33.8862 25.1871C33.8862 24.7332 34.2541 24.3653 34.708 24.3653C35.1619 24.3653 35.5299 24.7332 35.5299 25.1871V25.9402C35.5299 26.3941 35.1619 26.7621 34.708 26.7621C34.2541 26.7621 33.8862 26.3941 33.8862 25.9402V25.1871Z" fill="#77BABB"/>
<path d="M62.2448 15.0105H71.0875C73.2009 15.0105 75.064 15.4184 76.6769 16.234C78.3082 17.0312 79.5688 18.162 80.4587 19.6266C81.3671 21.0911 81.8213 22.7966 81.8213 24.7431C81.8213 26.6897 81.3671 28.3952 80.4587 29.8597C79.5688 31.3243 78.3082 32.4644 76.6769 33.2801C75.064 34.0772 73.2009 34.4758 71.0875 34.4758H62.2448V15.0105ZM70.8651 30.7774C72.8116 30.7774 74.3596 30.2398 75.5089 29.1645C76.6769 28.0708 77.2608 26.597 77.2608 24.7431C77.2608 22.8893 76.6769 21.4248 75.5089 20.3496C74.3596 19.2558 72.8116 18.7089 70.8651 18.7089H66.7496V30.7774H70.8651Z" fill="#6F90D9"/>
<path d="M88.9791 18.6811H82.7502V15.0105H99.7128V18.6811H93.4839V34.4758H88.9791V18.6811Z" fill="#6F90D9"/>
<path d="M119.989 15.0105V34.4758H115.484V26.495H106.641V34.4758H102.137V15.0105H106.641V22.6854H115.484V15.0105H119.989Z" fill="#6F90D9"/>
<path d="M142.308 34.4758L142.28 22.7966L136.552 32.418H134.522L128.821 23.0469V34.4758H124.594V15.0105H128.321L135.606 27.1068L142.781 15.0105H146.479L146.535 34.4758H142.308Z" fill="#6F90D9"/>
<path d="M157.549 34.8095C156.01 34.8095 154.518 34.6055 153.072 34.1977C151.644 33.7713 150.495 33.2244 149.623 32.5571L151.153 29.1645C151.987 29.7763 152.979 30.2676 154.128 30.6383C155.278 31.0091 156.427 31.1945 157.576 31.1945C158.855 31.1945 159.801 31.0091 160.413 30.6383C161.024 30.249 161.33 29.7392 161.33 29.1089C161.33 28.6455 161.145 28.2654 160.774 27.9688C160.422 27.6537 159.959 27.4034 159.384 27.218C158.828 27.0326 158.068 26.8287 157.104 26.6062C155.621 26.254 154.406 25.9018 153.461 25.5496C152.515 25.1973 151.7 24.6319 151.014 23.8533C150.346 23.0747 150.013 22.0365 150.013 20.7389C150.013 19.608 150.319 18.5884 150.93 17.68C151.542 16.7531 152.46 16.0208 153.683 15.4832C154.925 14.9456 156.436 14.6768 158.216 14.6768C159.458 14.6768 160.672 14.8251 161.859 15.1217C163.045 15.4184 164.083 15.8447 164.973 16.4009L163.583 19.8212C161.785 18.8016 159.986 18.2918 158.188 18.2918C156.928 18.2918 155.991 18.4957 155.38 18.9036C154.786 19.3114 154.49 19.849 154.49 20.5164C154.49 21.1838 154.833 21.6843 155.519 22.018C156.223 22.3332 157.289 22.6483 158.716 22.9635C160.2 23.3157 161.414 23.6679 162.359 24.0201C163.305 24.3724 164.111 24.9285 164.778 25.6886C165.464 26.4487 165.807 27.4776 165.807 28.7752C165.807 29.8875 165.492 30.9071 164.862 31.8341C164.25 32.7424 163.323 33.4654 162.081 34.0031C160.839 34.5407 159.328 34.8095 157.549 34.8095Z" fill="#6F90D9"/>
</svg>
